<svg width="859" height="251" viewBox="0 0 859 251" fill="none" xmlns="http://www.w3.org/2000/svg">
<rect x="431.787" y="45.9531" width="22.7829" height="102.124" transform="rotate(-90 431.787 45.9531)" fill="#FFF0ED"/>
<rect x="431.787" y="68.7363" width="22.7829" height="102.124" transform="rotate(-90 431.787 68.7363)" fill="#FFD8D2"/>
<rect x="431.787" y="91.5176" width="22.7829" height="102.124" transform="rotate(-90 431.787 91.5176)" fill="#FFB9B0"/>
<rect x="431.787" y="114.303" width="22.7829" height="102.124" transform="rotate(-90 431.787 114.303)" fill="#FF9285"/>
<rect x="431.787" y="137.084" width="22.7829" height="102.124" transform="rotate(-90 431.787 137.084)" fill="#F6685D"/>
<rect x="431.787" y="159.867" width="22.7829" height="102.124" transform="rotate(-90 431.787 159.867)" fill="#D54941"/>
<rect x="431.787" y="182.652" width="22.7829" height="102.124" transform="rotate(-90 431.787 182.652)" fill="#AD352F"/>
<rect x="431.787" y="205.434" width="22.7829" height="102.124" transform="rotate(-90 431.787 205.434)" fill="#881F1C"/>
<rect x="431.787" y="228.217" width="22.7829" height="102.124" transform="rotate(-90 431.787 228.217)" fill="#68070A"/>
<path d="M434.978 251C433.216 251 431.787 249.571 431.787 247.809L431.787 228.217L533.911 228.217L533.911 247.809C533.911 249.571 532.483 251 530.72 251L434.978 251Z" fill="#490002"/>
<path d="M431.787 23.1719L431.787 3.58032C431.787 1.81776 433.216 0.388935 434.978 0.388935L530.72 0.388934C532.483 0.388934 533.911 1.81777 533.911 3.58032L533.911 23.1719L431.787 23.1719Z" fill="#D54941"/>
<path d="M323.663 23.1719L323.663 3.58032C323.663 1.81776 325.092 0.388935 326.854 0.388935L422.596 0.388934C424.359 0.388934 425.787 1.81777 425.787 3.58032L425.787 23.1719L323.663 23.1719Z" fill="#E37318"/>
<rect x="323.663" y="45.9531" width="22.7829" height="102.124" transform="rotate(-90 323.663 45.9531)" fill="#FFF1E9"/>
<rect x="323.663" y="68.7363" width="22.7829" height="102.124" transform="rotate(-90 323.663 68.7363)" fill="#FFD9C2"/>
<rect x="323.663" y="91.5176" width="22.7829" height="102.124" transform="rotate(-90 323.663 91.5176)" fill="#FFB98C"/>
<rect x="323.663" y="114.303" width="22.7829" height="102.124" transform="rotate(-90 323.663 114.303)" fill="#FA9550"/>
<rect x="323.663" y="137.084" width="22.7829" height="102.124" transform="rotate(-90 323.663 137.084)" fill="#E37318"/>
<rect x="323.663" y="159.867" width="22.7829" height="102.124" transform="rotate(-90 323.663 159.867)" fill="#BE5A00"/>
<rect x="323.663" y="182.652" width="22.7829" height="102.124" transform="rotate(-90 323.663 182.652)" fill="#954500"/>
<rect x="323.663" y="205.436" width="22.7829" height="102.124" transform="rotate(-90 323.663 205.436)" fill="#713300"/>
<rect x="323.663" y="228.217" width="22.7829" height="102.124" transform="rotate(-90 323.663 228.217)" fill="#532300"/>
<path d="M326.854 251C325.092 251 323.663 249.571 323.663 247.809L323.663 228.217L425.787 228.217L425.787 247.809C425.787 249.571 424.359 251 422.596 251L326.854 251Z" fill="#3B1700"/>
<path d="M215.894 23.1719L215.894 3.58032C215.894 1.81776 217.322 0.388935 219.085 0.388935L314.472 0.388934C316.234 0.388934 317.663 1.81777 317.663 3.58032L317.663 23.1719L215.894 23.1719Z" fill="#F5BA18"/>
<rect x="215.894" y="45.9531" width="22.7829" height="101.77" transform="rotate(-90 215.894 45.9531)" fill="#FFF5E4"/>
<rect x="215.894" y="68.7363" width="22.7829" height="101.77" transform="rotate(-90 215.894 68.7363)" fill="#FFE7B5"/>
<rect x="215.894" y="91.5176" width="22.7829" height="101.77" transform="rotate(-90 215.894 91.5176)" fill="#FFD36D"/>
<rect x="215.894" y="114.303" width="22.7829" height="101.77" transform="rotate(-90 215.894 114.303)" fill="#F5BA18"/>
<rect x="215.894" y="137.084" width="22.7829" height="101.77" transform="rotate(-90 215.894 137.084)" fill="#D8A100"/>
<rect x="215.894" y="159.867" width="22.7829" height="101.77" transform="rotate(-90 215.894 159.867)" fill="#B38500"/>
<rect x="215.894" y="182.652" width="22.7829" height="101.77" transform="rotate(-90 215.894 182.652)" fill="#8B6600"/>
<rect x="215.894" y="205.436" width="22.7829" height="101.77" transform="rotate(-90 215.894 205.436)" fill="#654900"/>
<rect x="215.894" y="228.217" width="22.7829" height="101.77" transform="rotate(-90 215.894 228.217)" fill="#443000"/>
<path d="M219.085 251C217.322 251 215.894 249.571 215.894 247.809L215.894 228.217L317.663 228.217L317.663 247.809C317.663 249.571 316.234 251 314.472 251L219.085 251Z" fill="#2B1D00"/>
<path d="M756.159 23.1719L756.159 3.58032C756.159 1.81776 757.588 0.388935 759.351 0.388935L855.092 0.388934C856.855 0.388934 858.283 1.81777 858.283 3.58032L858.283 23.1719L756.159 23.1719Z" fill="#029CD4"/>
<rect x="756.159" y="45.9531" width="22.7829" height="102.124" transform="rotate(-90 756.159 45.9531)" fill="#E8F5FF"/>
<rect x="756.159" y="68.7363" width="22.7829" height="102.124" transform="rotate(-90 756.159 68.7363)" fill="#C4E8FF"/>
<rect x="756.159" y="91.5176" width="22.7829" height="102.124" transform="rotate(-90 756.159 91.5176)" fill="#85D3FF"/>
<rect x="756.159" y="114.303" width="22.7829" height="102.124" transform="rotate(-90 756.159 114.303)" fill="#41B8F2"/>
<rect x="756.159" y="137.084" width="22.7829" height="102.124" transform="rotate(-90 756.159 137.084)" fill="#029CD4"/>
<rect x="756.159" y="159.867" width="22.7829" height="102.124" transform="rotate(-90 756.159 159.867)" fill="#0080B0"/>
<rect x="756.159" y="182.652" width="22.7829" height="102.124" transform="rotate(-90 756.159 182.652)" fill="#00668E"/>
<rect x="756.159" y="205.434" width="22.7829" height="102.124" transform="rotate(-90 756.159 205.434)" fill="#004E6D"/>
<rect x="756.159" y="228.217" width="22.7829" height="102.124" transform="rotate(-90 756.159 228.217)" fill="#003850"/>
<path d="M759.351 251C757.588 251 756.159 249.571 756.159 247.809L756.159 228.217L858.283 228.217L858.283 247.809C858.283 249.571 856.855 251 855.092 251L759.351 251Z" fill="#002536"/>
<path d="M0 23.1719L-1.59945e-06 3.58032C-1.74335e-06 1.81776 1.42883 0.388935 3.19138 0.388935L98.9329 0.388933C100.695 0.388933 102.124 1.81776 102.124 3.58032L102.124 23.1719L0 23.1719Z" fill="#0052D9"/>
<rect y="45.9531" width="22.7829" height="102.124" transform="rotate(-90 0 45.9531)" fill="#F2F3FF"/>
<rect y="68.7363" width="22.7829" height="102.124" transform="rotate(-90 0 68.7363)" fill="#D9E1FF"/>
<rect y="91.5176" width="22.7829" height="102.124" transform="rotate(-90 0 91.5176)" fill="#B5C7FF"/>
<rect y="114.303" width="22.7829" height="102.124" transform="rotate(-90 0 114.303)" fill="#8EABFF"/>
<rect y="137.084" width="22.7829" height="102.124" transform="rotate(-90 0 137.084)" fill="#618DFF"/>
<rect y="159.867" width="22.7829" height="102.124" transform="rotate(-90 0 159.867)" fill="#366EF4"/>
<rect y="182.652" width="22.7829" height="102.124" transform="rotate(-90 0 182.652)" fill="#0052D9"/>
<rect y="205.436" width="22.7829" height="102.124" transform="rotate(-90 0 205.436)" fill="#003CAB"/>
<rect y="228.217" width="22.7829" height="102.124" transform="rotate(-90 0 228.217)" fill="#002A7C"/>
<path d="M3.19138 251C1.42883 251 -1.1665e-07 249.571 -2.60544e-07 247.809L-1.86e-06 228.217L102.124 228.217L102.124 247.809C102.124 249.571 100.695 251 98.9329 251L3.19138 251Z" fill="#001A57"/>
<path d="M648.035 23.1719L648.035 3.58032C648.035 1.81776 649.464 0.388935 651.227 0.388935L746.968 0.388934C748.731 0.388934 750.159 1.81777 750.159 3.58032L750.159 23.1719L648.035 23.1719Z" fill="#8E56DD"/>
<rect x="648.035" y="45.9531" width="22.7829" height="102.124" transform="rotate(-90 648.035 45.9531)" fill="#FBF0FF"/>
<rect x="648.035" y="68.7363" width="22.7829" height="102.124" transform="rotate(-90 648.035 68.7363)" fill="#EEDCFF"/>
<rect x="648.035" y="91.5176" width="22.7829" height="102.124" transform="rotate(-90 648.035 91.5176)" fill="#DCBFFF"/>
<rect x="648.035" y="114.303" width="22.7829" height="102.124" transform="rotate(-90 648.035 114.303)" fill="#C69CFF"/>
<rect x="648.035" y="137.084" width="22.7829" height="102.124" transform="rotate(-90 648.035 137.084)" fill="#AD75FE"/>
<rect x="648.035" y="159.867" width="22.7829" height="102.124" transform="rotate(-90 648.035 159.867)" fill="#8E56DD"/>
<rect x="648.035" y="182.652" width="22.7829" height="102.124" transform="rotate(-90 648.035 182.652)" fill="#7137BF"/>
<rect x="648.035" y="205.436" width="22.7829" height="102.124" transform="rotate(-90 648.035 205.436)" fill="#5610A4"/>
<rect x="648.035" y="228.217" width="22.7829" height="102.124" transform="rotate(-90 648.035 228.217)" fill="#3B007B"/>
<path d="M651.227 251C649.464 251 648.035 249.571 648.035 247.809L648.035 228.217L750.159 228.217L750.159 247.809C750.159 249.571 748.731 251 746.968 251L651.227 251Z" fill="#280057"/>
<path d="M539.911 23.1719L539.911 3.58032C539.911 1.81776 541.34 0.388935 543.103 0.388935L638.844 0.388934C640.607 0.388934 642.035 1.81777 642.035 3.58032L642.035 23.1719L539.911 23.1719Z" fill="#E851B3"/>
<rect x="539.911" y="45.9531" width="22.7829" height="102.124" transform="rotate(-90 539.911 45.9531)" fill="#FFF0F6"/>
<rect x="539.911" y="68.7363" width="22.7829" height="102.124" transform="rotate(-90 539.911 68.7363)" fill="#FFD8EB"/>
<rect x="539.911" y="91.5176" width="22.7829" height="102.124" transform="rotate(-90 539.911 91.5176)" fill="#FFAEDC"/>
<rect x="539.911" y="114.303" width="22.7829" height="102.124" transform="rotate(-90 539.911 114.303)" fill="#FF79CD"/>
<rect x="539.911" y="137.084" width="22.7829" height="102.124" transform="rotate(-90 539.911 137.084)" fill="#E851B3"/>
<rect x="539.911" y="159.867" width="22.7829" height="102.124" transform="rotate(-90 539.911 159.867)" fill="#C43695"/>
<rect x="539.911" y="182.652" width="22.7829" height="102.124" transform="rotate(-90 539.911 182.652)" fill="#A12279"/>
<rect x="539.911" y="205.436" width="22.7829" height="102.124" transform="rotate(-90 539.911 205.436)" fill="#800A5F"/>
<rect x="539.911" y="228.217" width="22.7829" height="102.124" transform="rotate(-90 539.911 228.217)" fill="#610046"/>
<path d="M543.103 251C541.34 251 539.911 249.571 539.911 247.809L539.911 228.217L642.035 228.217L642.035 247.809C642.035 249.571 640.607 251 638.844 251L543.103 251Z" fill="#43002F"/>
<path d="M108.124 23.1719L108.124 3.58032C108.124 1.81776 109.553 0.388935 111.315 0.388935L206.702 0.388934C208.465 0.388934 209.894 1.81777 209.894 3.58032L209.894 23.1719L108.124 23.1719Z" fill="#2BA471"/>
<rect x="108.124" y="45.9531" width="22.7829" height="101.77" transform="rotate(-90 108.124 45.9531)" fill="#E3F9E9"/>
<rect x="108.124" y="68.7363" width="22.7829" height="101.77" transform="rotate(-90 108.124 68.7363)" fill="#C6F3D7"/>
<rect x="108.124" y="91.5176" width="22.7829" height="101.77" transform="rotate(-90 108.124 91.5176)" fill="#92DAB2"/>
<rect x="108.124" y="114.303" width="22.7829" height="101.77" transform="rotate(-90 108.124 114.303)" fill="#56C08D"/>
<rect x="108.124" y="137.084" width="22.7829" height="101.77" transform="rotate(-90 108.124 137.084)" fill="#2BA471"/>
<rect x="108.124" y="159.867" width="22.7829" height="101.77" transform="rotate(-90 108.124 159.867)" fill="#008858"/>
<rect x="108.124" y="182.652" width="22.7829" height="101.77" transform="rotate(-90 108.124 182.652)" fill="#006C45"/>
<rect x="108.124" y="205.434" width="22.7829" height="101.77" transform="rotate(-90 108.124 205.434)" fill="#005334"/>
<rect x="108.124" y="228.217" width="22.7829" height="101.77" transform="rotate(-90 108.124 228.217)" fill="#003B23"/>
<path d="M111.315 251C109.553 251 108.124 249.571 108.124 247.809L108.124 228.217L209.894 228.217L209.894 247.809C209.894 249.571 208.465 251 206.702 251L111.315 251Z" fill="#002515"/>
</svg>
