<svg width="15" height="15" viewBox="0 0 15 15" fill="none" xmlns="http://www.w3.org/2000/svg">
<path fill-rule="evenodd" clip-rule="evenodd" d="M8.2205 1.23525C9.19554 0.292459 10.7464 0.3055 11.7055 1.26455C12.6135 2.17256 12.6613 3.61505 11.8488 4.57932L11.7055 4.73543L6.08252 10.3584L5.19864 9.47448L10.8216 3.85155C11.2919 3.38125 11.2919 2.61874 10.8216 2.14843C10.3815 1.70841 9.69088 1.66904 9.20605 2.03416L9.08939 2.13387L2.44698 8.55834C1.49163 9.54373 1.51598 11.117 2.50136 12.0724C3.48395 13.025 5.02005 13.0611 6.04458 12.189L6.20194 12.0437L13.6913 4.55432L14.5752 5.4382L7.08582 12.9276C5.58433 14.4291 3.1558 14.4479 1.63126 12.9698C0.209466 11.5914 0.118868 9.35697 1.38428 7.87009L1.54952 7.68824L1.63486 7.60302L8.2205 1.23525Z" fill="black" fill-opacity="0.6"/>
</svg>
