<svg width="16" height="16" viewBox="0 0 16 18" fill="none" xmlns="http://www.w3.org/2000/svg">
  <path fill="currentColor" fill-rule="evenodd" clip-rule="evenodd" d="M4.24985 0.249871C3.55956 0.249951 3 0.809572 3 1.49987V14C3 14.6904 3.55964 15.25 4.25 15.25H14.25C14.9404 15.25 15.5 14.6904 15.5 14V5.2489C15.5 4.91698 15.368 4.59868 15.1331 4.36419L11.3763 0.61444C11.1419 0.380487 10.8243 0.249107 10.4931 0.249146L4.24985 0.249871ZM10.4933 1.49915L4.25 1.49987V14H14.25V6.50002L9.25 6.50001V1.50001L10.4933 1.49915ZM10.5 5.25002H14.25L10.5 1.50587V5.25002Z" />
  <path fill="currentColor" d="M0.5 5.25001V16.5C0.5 17.1904 1.05964 17.75 1.75 17.75L14.25 17.75V16.5L1.88889 16.5V5.25001H0.5Z" />
</svg>