<svg width="24" height="24" viewBox="0 0 24 24" fill="none" xmlns="http://www.w3.org/2000/svg">
<path d="M6 4.5C6 5.32846 5.32846 6 4.5 6C3.67154 6 3 5.32846 3 4.5C3 3.67154 3.67154 3 4.5 3C5.32846 3 6 3.67154 6 4.5Z" fill="currentColor" />
<path d="M6 12C6 12.8285 5.32846 13.5 4.5 13.5C3.67154 13.5 3 12.8285 3 12C3 11.1715 3.67154 10.5 4.5 10.5C5.32846 10.5 6 11.1715 6 12Z" fill="currentColor" />
<path d="M4.5 21C5.32846 21 6 20.3285 6 19.5C6 18.6715 5.32846 18 4.5 18C3.67154 18 3 18.6715 3 19.5C3 20.3285 3.67154 21 4.5 21Z" fill="currentColor" />
<path d="M13.5 4.5C13.5 5.32846 12.8285 6 12 6C11.1715 6 10.5 5.32846 10.5 4.5C10.5 3.67154 11.1715 3 12 3C12.8285 3 13.5 3.67154 13.5 4.5Z" fill="currentColor" />
<path d="M12 13.5C12.8285 13.5 13.5 12.8285 13.5 12C13.5 11.1715 12.8285 10.5 12 10.5C11.1715 10.5 10.5 11.1715 10.5 12C10.5 12.8285 11.1715 13.5 12 13.5Z" fill="currentColor" />
<path d="M13.5 19.5C13.5 20.3285 12.8285 21 12 21C11.1715 21 10.5 20.3285 10.5 19.5C10.5 18.6715 11.1715 18 12 18C12.8285 18 13.5 18.6715 13.5 19.5Z" fill="currentColor" />
<path d="M19.5 6C20.3285 6 21 5.32846 21 4.5C21 3.67154 20.3285 3 19.5 3C18.6715 3 18 3.67154 18 4.5C18 5.32846 18.6715 6 19.5 6Z" fill="currentColor" />
<path d="M21 12C21 12.8285 20.3285 13.5 19.5 13.5C18.6715 13.5 18 12.8285 18 12C18 11.1715 18.6715 10.5 19.5 10.5C20.3285 10.5 21 11.1715 21 12Z" fill="currentColor" />
<path d="M19.5 21C20.3285 21 21 20.3285 21 19.5C21 18.6715 20.3285 18 19.5 18C18.6715 18 18 18.6715 18 19.5C18 20.3285 18.6715 21 19.5 21Z" fill="currentColor" />
</svg>
