<svg width="20" height="20" viewBox="0 0 20 20" fill="none" xmlns="http://www.w3.org/2000/svg">
  <path fill="currentColor" fill-rule="evenodd" clip-rule="evenodd" d="M8.125 2.5C5.0184 2.5 2.5 5.0184 2.5 8.125C2.5 11.2316 5.0184 13.75 8.125 13.75C9.22568 13.75 10.2525 13.4339 11.1197 12.8874L15.8839 17.6517L16.7678 16.7678L12.1025 12.1025C13.1204 11.0846 13.75 9.6783 13.75 8.125C13.75 5.0184 11.2316 2.5 8.125 2.5ZM8.125 3.75C10.5412 3.75 12.5 5.70875 12.5 8.125C12.5 10.5412 10.5412 12.5 8.125 12.5C5.70875 12.5 3.75 10.5412 3.75 8.125C3.75 5.70875 5.70875 3.75 8.125 3.75Z" />
</svg>
