<svg width="105" height="28" viewBox="0 0 105 28" fill="none" xmlns="http://www.w3.org/2000/svg">
  <g clip-path="url(#clip0_65_182)">
    <path
      d="M82.8701 4.73254H71.4558V6.38476H74.8911V12.4065H70.9536V14.0573H74.8911V24.1623H76.708V14.0573H81.0532V23.945H84.4832V22.2914H82.8634L82.8701 4.73254ZM76.708 12.4065V6.38476H81.0532V12.4065H76.708Z"
      fill="currentColor" />
    <path d="M60.2114 19.5378H51.2066V21.1901H60.2114V19.5378Z" fill="currentColor" />
    <path
      d="M45.0702 16.4803C45.0702 19.4838 44.8272 21.7637 44.3278 23.7844C44.2751 23.9707 44.3278 24.0206 44.4304 24.0206H46.0866C46.5188 21.7971 46.7313 19.5365 46.7211 17.2714H49.0361V22.4008H47.3919C47.3123 22.4008 47.257 22.4521 47.2921 22.5668L47.7443 24.0517H50.6842V4.77441H45.0702V16.4803ZM46.7224 15.7933V11.8341H49.0361V15.7933H46.7224ZM49.0361 6.43338V10.348H46.7224V6.43338H49.0361Z"
      fill="currentColor" />
    <path
      d="M60.85 11.4737H63.0678V9.98888H56.606C56.8095 9.48642 56.9866 8.97368 57.1365 8.45274H62.6615V6.96791H61.0416C61.3116 6.05001 61.6288 4.96607 61.6477 4.90398C61.6801 4.79329 61.6221 4.75145 61.5505 4.75145H60.1467L59.4947 6.96791H57.5037C57.69 6.1094 57.8506 5.15775 57.9977 4.08867C58.0153 3.96583 57.9491 3.94019 57.8627 3.94019H56.2686C56.1052 5.07541 55.9338 6.05406 55.7151 6.96791H54.7392L54.0872 4.75145H52.682C52.6105 4.75145 52.547 4.79329 52.5848 4.90398C52.6037 4.96607 52.9209 6.05001 53.1909 6.96791H51.6143V8.45274H55.2953C55.1238 8.9761 54.9218 9.48902 54.6906 9.98888H51.2093V11.4737H53.824C53.133 12.4726 52.2359 13.3118 51.1931 13.9345V15.6353C51.1931 15.7204 51.2606 15.8108 51.5306 15.6583C52.0629 15.3631 52.5768 15.0358 53.0694 14.6783H59.2207L59.168 16.9042H54.3086L54.3815 15.5732C54.382 15.5599 54.3798 15.5466 54.375 15.5341C54.3702 15.5217 54.3629 15.5104 54.3535 15.5009C54.3442 15.4914 54.333 15.4839 54.3206 15.4789C54.3082 15.474 54.2949 15.4716 54.2816 15.472H52.7319L52.5754 18.2891C52.5748 18.3026 52.577 18.316 52.5819 18.3285C52.5868 18.3411 52.5942 18.3525 52.6037 18.362C52.6133 18.3715 52.6246 18.3789 52.6372 18.3838C52.6497 18.3887 52.6632 18.3909 52.6766 18.3904H61.0551V22.4075H57.2756C57.1959 22.4075 57.1338 22.4602 57.177 22.5749L57.6292 24.0597H62.8693V16.9055H60.8176L60.8864 14.0141C61.5709 14.6491 62.328 15.2009 63.142 15.6583C63.412 15.8108 63.4781 15.7204 63.4781 15.6353V13.9304C62.4371 13.3081 61.541 12.4705 60.85 11.4737ZM58.8252 11.4737C59.1941 12.082 59.616 12.6566 60.0859 13.1907H54.6865C55.1417 12.6596 55.5428 12.0844 55.8839 11.4737H58.8252Z"
      fill="currentColor" />
    <path
      d="M72.6072 18.3891L69.543 20.7109V9.97278H65.2991V11.7897H67.7396V22.0783L66.7637 22.8126L67.7599 24.13L72.7705 20.3329V18.4674C72.7707 18.4484 72.7655 18.4297 72.7554 18.4135C72.7454 18.3974 72.731 18.3844 72.7138 18.3762C72.6966 18.368 72.6775 18.3648 72.6586 18.3671C72.6397 18.3694 72.6219 18.377 72.6072 18.3891Z"
      fill="currentColor" />
    <path
      d="M67.9786 8.34619H69.9642C69.9822 8.34637 70 8.34167 70.0156 8.33259C70.0311 8.32351 70.0439 8.31039 70.0527 8.29462C70.0614 8.27884 70.0657 8.26101 70.0651 8.24299C70.0645 8.22498 70.059 8.20747 70.0493 8.1923L67.5453 4.36682H65.5596C65.542 4.36677 65.5247 4.37131 65.5094 4.37999C65.4941 4.38867 65.4813 4.40119 65.4723 4.41632C65.4634 4.43145 65.4585 4.44865 65.4581 4.46625C65.4578 4.48384 65.4621 4.50122 65.4706 4.51666L67.9786 8.34619Z"
      fill="currentColor" />
    <path d="M102.663 5.17407H88.3249V6.99097H102.663V5.17407Z" fill="currentColor" />
    <path
      d="M93.5245 13.8562H104.682V12.0393H86.3055V13.8562H91.4039C90.351 16.6221 87.708 23.5603 87.6904 23.6102C87.6841 23.6253 87.6816 23.6417 87.6833 23.658C87.6849 23.6743 87.6907 23.6898 87.6999 23.7033C87.7092 23.7168 87.7218 23.7277 87.7364 23.735C87.751 23.7423 87.7672 23.7458 87.7836 23.7452H103.633C103.651 23.7453 103.667 23.741 103.682 23.7328C103.697 23.7246 103.71 23.7127 103.719 23.6983C103.728 23.6839 103.734 23.6674 103.735 23.6503C103.736 23.6333 103.733 23.6162 103.725 23.6008C103.708 23.5576 101.362 17.3915 101.362 17.3915H99.3882C99.3721 17.3916 99.3563 17.3956 99.342 17.4031C99.3277 17.4106 99.3155 17.4214 99.3062 17.4347C99.297 17.4479 99.291 17.4631 99.2889 17.479C99.2867 17.495 99.2884 17.5113 99.2937 17.5265C99.3194 17.5913 100.966 21.9283 100.966 21.9283H90.4563L93.5245 13.8562Z"
      fill="currentColor" />
    <path
      d="M36.1274 12.7332C35.2963 11.8813 34.3031 11.2043 33.2063 10.742C32.1096 10.2798 30.9314 10.0416 29.7412 10.0416C27.572 10.0416 25.7038 10.788 24.0719 12.1163C23.3605 12.6954 22.6154 13.3879 21.6772 14.299C21.3654 14.6027 15.2182 20.5677 11.1808 24.4836C10.6192 24.4836 9.81201 24.4742 9.09524 24.4499C7.07856 24.3811 5.8556 23.6076 5.16042 22.9259C4.38377 22.1682 3.85042 21.1963 3.62842 20.1342C3.40641 19.0721 3.50581 17.9679 3.91393 16.9625C4.32205 15.9571 5.02039 15.0961 5.91988 14.4893C6.81938 13.8824 7.87925 13.5572 8.96431 13.5552C9.9092 13.5552 11.2078 13.8252 12.667 15.0401C13.3635 15.6178 14.9104 16.9785 15.5894 17.5899C15.6048 17.6053 15.6257 17.6139 15.6474 17.6139C15.6692 17.6139 15.69 17.6053 15.7055 17.5899L18.1028 15.2534C18.1127 15.2451 18.1207 15.2348 18.1262 15.2231C18.1316 15.2115 18.1345 15.1987 18.1345 15.1859C18.1345 15.173 18.1316 15.1602 18.1262 15.1486C18.1207 15.1369 18.1127 15.1266 18.1028 15.1184C16.9514 14.0776 15.3181 12.6211 14.3354 11.8895C13.3401 11.1273 12.1981 10.5791 10.981 10.2791H11.0188C11.3852 8.52687 12.2952 6.93492 13.6193 5.73007C14.9433 4.52523 16.6138 3.76894 18.3928 3.56895C20.1717 3.36896 21.9685 3.73547 23.527 4.61626C25.0855 5.49706 26.3263 6.84721 27.0726 8.47439C27.0785 8.49358 27.0917 8.5097 27.1094 8.51928C27.127 8.52887 27.1477 8.53116 27.1671 8.52569C28.2707 8.21981 29.4177 8.10073 30.5606 8.17337C30.6753 8.18147 30.7199 8.11668 30.6821 8.01274C29.7894 5.48899 28.08 3.3353 25.8248 1.89291C23.5697 0.450524 20.8977 -0.198078 18.2322 0.0498744C15.5667 0.297826 13.0602 1.42815 11.1097 3.26176C9.15931 5.09537 7.87652 7.52739 7.46462 10.1725H7.47272C5.84132 10.4504 4.31849 11.1739 3.07241 12.2629C1.82634 13.3519 0.905516 14.7642 0.411655 16.3437C-0.0822067 17.9232 -0.129889 19.6084 0.273874 21.2133C0.677638 22.8182 1.51713 24.2802 2.69964 25.438C4.05827 26.7686 5.81442 27.619 7.70084 27.8596C8.54769 27.9568 9.3997 28.0018 10.2521 27.9946C11.062 27.9946 26.5853 27.9946 27.2359 27.9946C28.5439 27.9946 29.3957 27.9946 30.3082 27.9258C32.4045 27.7732 34.3847 27.0038 35.987 25.4326C36.8304 24.6081 37.503 23.6256 37.9666 22.541C38.4301 21.4565 38.6754 20.2913 38.6884 19.112C38.7014 17.9326 38.482 16.7623 38.0425 15.6678C37.6031 14.5733 36.9523 13.5761 36.1274 12.7332ZM33.5303 22.9259C32.8419 23.6008 31.6135 24.3811 29.5955 24.4499C28.6627 24.4809 27.5707 24.485 27.0753 24.485H16.236L24.0098 16.9339C24.3675 16.587 25.172 15.8176 25.8645 15.1926C27.3885 13.8225 28.7586 13.5458 29.7277 13.5552C30.8127 13.5575 31.8724 13.8829 32.7717 14.4898C33.6709 15.0968 34.3691 15.9578 34.777 16.9631C35.185 17.9685 35.2843 19.0725 35.0622 20.1345C34.8402 21.1965 34.3069 22.1683 33.5303 22.9259Z"
      fill="currentColor" />
  </g>
  <defs>
    <clipPath id="clip0_65_182">
      <rect width="104.682" height="28" fill="currentColor" />
    </clipPath>
  </defs>
</svg>