<svg width="40" height="40" viewBox="0 0 40 40" fill="none" xmlns="http://www.w3.org/2000/svg">
<path d="M7.5127 10.6575C7.5127 9.13147 8.74975 7.89441 10.2757 7.89441H29.7486C31.2746 7.89441 32.5117 9.13147 32.5117 10.6575V28.9671C32.5117 30.4931 31.2746 31.7302 29.7486 31.7302L13.9566 31.7301L9.48021 37.3138C9.09839 37.79 8.4028 37.8666 7.92657 37.4847C7.66494 37.275 7.5127 36.9578 7.5127 36.6224V10.6575Z" fill="#2378FF"/>
<path d="M18.7496 14.5214C23.2442 9.42785 27.2191 4.65438 30.6744 0.200998C31.5592 -1.00977 31.2222 3.58279 30.3794 5.0858C29.5367 6.58882 27.6826 10.1794 21.5728 14.1457C17.4995 16.7899 16.5585 16.9151 18.7496 14.5214Z" fill="url(#paint0_linear_71_95)"/>
<path d="M32.9634 4.64413C32.4898 6.27922 31.6999 7.83013 30.683 9.20989L25.0559 9.21003C28.1327 6.24199 31.5332 2.78789 33.4412 0.617884C33.4499 0.607909 33.4595 0.597231 33.4698 0.586239L33.4857 0.569566C33.7415 0.306191 34.3148 -0.0225138 32.9634 4.64413Z" fill="url(#paint1_linear_71_95)"/>
<path d="M32.9505 4.32755C31.2694 9.24361 27.0666 13.5128 22.4015 14.5046C22.4015 14.5046 24.5449 15.4102 25.0492 16.5314C25.3728 17.2509 26.5624 18.453 28.6179 20.138C28.6684 20.1794 30.0356 20.7503 32.7194 21.8508L32.7194 29.5295C32.7194 30.9029 31.6061 32.0162 30.2327 32.0162L24.4471 32.016L21.4348 25.4148C20.7063 24.7249 19.9078 24.3799 19.0392 24.3799C18.7629 24.3799 18.4298 24.3896 18.0648 24.3909L17.9065 24.3909C16.5724 24.3856 14.8772 24.2401 13.9538 23.1293C13.1413 22.1518 12.749 21.39 12.777 20.8438C13.4215 20.0388 13.8137 19.3632 13.9538 18.817C14.164 17.9976 15.6349 16.0571 16.6436 15.4965C17.6523 14.9359 17.8204 14.634 18.6189 14.634C19.4175 14.634 29.3767 4.65485 33.2027 0.144592C33.4173 -0.108363 34.6317 -0.588505 32.9505 4.32755Z" fill="white"/>
<path d="M17.8193 19.736C18.4249 19.736 18.9158 19.2451 18.9158 18.6395C18.9158 18.034 18.4249 17.5431 17.8193 17.5431C17.2138 17.5431 16.7229 18.034 16.7229 18.6395C16.7229 19.2451 17.2138 19.736 17.8193 19.736Z" fill="#2378FF"/>
<defs>
<linearGradient id="paint0_linear_71_95" x1="26.2921" y1="-1.53007" x2="23.665" y2="15.6998" gradientUnits="userSpaceOnUse">
<stop stop-color="white"/>
<stop offset="1" stop-color="#3269FF"/>
</linearGradient>
<linearGradient id="paint1_linear_71_95" x1="31.1825" y1="-0.388451" x2="29.4761" y2="8.98836" gradientUnits="userSpaceOnUse">
<stop stop-color="white"/>
<stop offset="1" stop-color="#3269FF"/>
</linearGradient>
</defs>
</svg>
