<svg width="18" height="16" viewBox="0 0 18 16" fill="none" xmlns="http://www.w3.org/2000/svg">
  <path fill="currentColor" d="M10.3736 0.498413L11.581 0.821937L7.69869 15.3108L6.49128 14.9873L10.3736 0.498413Z" />
  <path fill="currentColor" d="M13.687 2.66028L17.3046 6.79909C17.8786 7.45583 17.9195 8.41353 17.4255 9.11321L17.3115 9.25899L13.6894 13.4505L12.7436 12.6332C12.7436 12.6332 16.645 8.25979 16.5103 8.0325L12.7459 3.4829L13.687 2.66028Z" />
  <path fill="currentColor" d="M0.667582 6.90809L3.84161 2.67255L4.8419 3.42215L1.51505 7.99998C1.41314 8.20784 4.8419 12.6428 4.8419 12.6428L3.84161 13.3924L0.667582 9.1569L0.5612 8.99891C0.171134 8.35104 0.206595 7.52325 0.667582 6.90809Z" />
</svg>
