<svg width="16" height="16" viewBox="0 0 16 16" fill="none" xmlns="http://www.w3.org/2000/svg">
  <path
    d="M7.90582 2.79363C10.8499 2.79364 13.2095 5.14029 13.2095 8.00195C13.2095 10.8636 10.8499 13.2103 7.90581 13.2103C5.44426 13.2103 3.39128 11.5698 2.78447 9.35939L1.75098 9.52803C2.44243 12.2422 4.93584 14.252 7.90581 14.252C11.4103 14.252 14.2512 11.4537 14.2512 8.00196C14.2512 4.55018 11.4103 1.75195 7.90582 1.75195C5.80622 1.75195 3.9448 2.75638 2.78981 4.304L2.78981 2.6451H1.75098V5.7916C1.75098 6.06774 1.97483 6.2916 2.25098 6.2916L5.37759 6.2916V5.24707H3.40454C4.33896 3.77709 5.99992 2.79363 7.90582 2.79363Z"
    fill="currentColor" />
  <path d="M6.99951 5.50024V8.38917L9.64596 11.0356L10.3531 10.3285L7.99951 7.97496V5.50024H6.99951Z" fill="currentColor" />
</svg>