<svg width="20" height="20" viewBox="0 0 20 20" fill="none" xmlns="http://www.w3.org/2000/svg">
  <path fill="currentColor" d="M9.99993 3.12494C6.20294 3.12494 3.12488 6.203 3.12488 10C3.12488 13.797 6.20294 16.8751 9.99993 16.8751C13.7969 16.8751 16.875 13.797 16.875 10C16.875 9.52352 16.8264 9.0577 16.7337 8.6075C16.6752 8.32295 16.4282 8.11628 16.1378 8.10872C15.8474 8.10117 15.5901 8.29473 15.5168 8.57585C15.1411 10.0167 13.8302 11.0795 12.2727 11.0795C10.4212 11.0795 8.92039 9.57869 8.92039 7.72726C8.92039 6.16969 9.98319 4.85879 11.4241 4.48312C11.7052 4.40983 11.8988 4.15249 11.8912 3.86207C11.8836 3.57165 11.677 3.32473 11.3924 3.26616C10.9422 3.1735 10.4764 3.12494 9.99993 3.12494Z" />
</svg>
