<svg width="40" height="40" viewBox="0 0 40 40" fill="none" xmlns="http://www.w3.org/2000/svg">
<path fill-rule="evenodd" clip-rule="evenodd" d="M13.0718 5.14678L11.2762 3.88947C9.05215 2.33219 5.98679 2.8727 4.42951 5.09672C2.87223 7.32075 3.41273 10.3861 5.63676 11.9434L5.70302 11.9898C1.62703 19.2445 3.64061 28.5494 10.6009 33.4231C15.5695 36.9021 21.7977 37.2401 26.928 34.853L28.7239 36.1105C30.948 37.6678 34.0133 37.1273 35.5706 34.9033C37.1279 32.6792 36.5874 29.6139 34.3634 28.0566L34.2969 28.01C38.3729 20.7553 36.3594 11.4504 29.399 6.57666C24.4304 3.09764 18.2022 2.75958 13.0718 5.14678ZM29.7154 28.8034C25.3457 33.6379 17.9568 34.5728 12.4807 30.7384C7.00466 26.904 5.35603 19.6411 8.40447 13.8814L29.7154 28.8034ZM7.58278 9.30512L7.51657 9.25875C6.77523 8.73966 6.59506 7.71787 7.11415 6.97653C7.63325 6.23519 8.65503 6.05502 9.39637 6.57411L10.0108 7.00433C9.13775 7.67579 8.32293 8.44369 7.58278 9.30512ZM27.5192 9.2613C22.0431 5.42689 14.6542 6.3618 10.2845 11.1964L31.5954 26.1185C34.6439 20.3588 32.9953 13.0957 27.5192 9.2613ZM29.9891 32.9955C30.8621 32.324 31.6769 31.5561 32.4171 30.6947L32.4835 30.7412C33.2249 31.2603 33.4051 32.2821 32.886 33.0235C32.3669 33.7648 31.3451 33.945 30.6037 33.4259L29.9891 32.9955Z" fill="#00CAFC"/>
</svg>
