<svg width="40" height="40" viewBox="0 0 40 40" fill="none" xmlns="http://www.w3.org/2000/svg">
<path fill-rule="evenodd" clip-rule="evenodd" d="M28.1175 5.91895C28.521 6.15192 28.9018 6.65217 29.1092 7.6216C29.3165 8.59087 29.316 9.89706 29.0621 11.4818C28.9831 11.9749 28.8805 12.4888 28.7548 13.0205C27.3951 12.7295 25.934 12.5052 24.4005 12.3569C23.5053 11.103 22.5805 9.94987 21.6487 8.91778C22.0462 8.54307 22.44 8.19733 22.8276 7.88233C24.0731 6.87007 25.204 6.21654 26.1471 5.91145C27.0903 5.60631 27.7139 5.68597 28.1175 5.91895ZM18.3272 8.91778C17.9297 8.54307 17.5359 8.19734 17.1483 7.88235C15.9029 6.87009 14.7719 6.21656 13.8288 5.91147C12.8856 5.60633 12.262 5.68599 11.8585 5.91896C11.4549 6.15194 11.0741 6.65219 10.8668 7.62162C10.6595 8.59088 10.66 9.89708 10.9138 11.4818C10.9929 11.975 11.0954 12.4888 11.2211 13.0205C12.5809 12.7295 14.0419 12.5052 15.5755 12.3569C16.4706 11.103 17.3954 9.94987 18.3272 8.91778ZM19.988 7.21345C19.5394 6.78938 19.0922 6.39612 18.649 6.03591C17.2716 4.91642 15.8816 4.07479 14.5612 3.64762C13.2409 3.2205 11.8585 3.17148 10.6688 3.85837C9.47905 4.54526 8.83027 5.76701 8.54003 7.12395C8.24976 8.48106 8.28365 10.1056 8.56444 11.8582C8.65479 12.4222 8.7718 13.006 8.91475 13.6065C8.32322 13.783 7.75908 13.9736 7.22554 14.1773C5.56732 14.8104 4.14347 15.5934 3.11332 16.5233C2.08329 17.4531 1.34961 18.6259 1.34961 19.9996C1.34961 21.3734 2.08329 22.5461 3.11332 23.476C4.14347 24.4059 5.56732 25.1888 7.22554 25.822C7.75909 26.0257 8.32324 26.2163 8.91478 26.3927C8.77182 26.9933 8.65481 27.5772 8.56445 28.1411C8.28366 29.8937 8.24976 31.5183 8.54004 32.8754C8.83028 34.2323 9.47905 35.4541 10.6688 36.141C11.8585 36.8279 13.241 36.7788 14.5612 36.3517C15.8816 35.9246 17.2716 35.0829 18.649 33.9634C19.0922 33.6032 19.5394 33.21 19.988 32.7859C20.4365 33.21 20.8837 33.6032 21.3269 33.9635C22.7043 35.0829 24.0943 35.9246 25.4147 36.3517C26.735 36.7789 28.1174 36.8279 29.3071 36.141C30.4969 35.4541 31.1456 34.2324 31.4359 32.8754C31.7262 31.5183 31.6923 29.8937 31.4115 28.1411C31.3211 27.5772 31.2041 26.9933 31.0611 26.3928C31.6527 26.2163 32.2169 26.0257 32.7504 25.822C34.4087 25.1888 35.8325 24.4059 36.8627 23.476C37.8927 22.5461 38.6264 21.3734 38.6264 19.9996C38.6264 18.6259 37.8927 17.4531 36.8627 16.5233C35.8325 15.5934 34.4087 14.8104 32.7504 14.1773C32.2169 13.9736 31.6527 13.783 31.0612 13.6065C31.2041 13.006 31.3211 12.4221 31.4115 11.8582C31.6923 10.1056 31.7262 8.48104 31.4359 7.12393C31.1457 5.76699 30.4969 4.54524 29.3072 3.85835C28.1174 3.17147 26.735 3.22049 25.4147 3.6476C24.0943 4.07477 22.7043 4.9164 21.3269 6.03589C20.8837 6.3961 20.4365 6.78938 19.988 7.21345ZM28.1027 15.3146C27.4695 15.1824 26.8097 15.0649 26.1268 14.9637C26.3504 15.3277 26.5709 15.6979 26.7879 16.0737C27.0049 16.4496 27.2152 16.8256 27.4186 17.2013C27.6724 16.5592 27.9006 15.9291 28.1027 15.3146ZM28.813 19.9997C29.4514 18.5974 29.9876 17.22 30.4155 15.8969C30.9388 16.0538 31.4351 16.222 31.9017 16.4001C33.4011 16.9726 34.5326 17.6253 35.2683 18.2895C36.0042 18.9538 36.247 19.5337 36.247 19.9996C36.247 20.4656 36.0042 21.0455 35.2683 21.7098C34.5326 22.374 33.4011 23.0266 31.9017 23.5991C31.4351 23.7773 30.9388 23.9454 30.4155 24.1024C29.9876 22.7793 29.4513 21.4019 28.813 19.9997ZM26.183 19.9997C25.7431 19.097 25.2576 18.1819 24.7273 17.2634C24.197 16.3449 23.6473 15.4669 23.0854 14.6346C22.0837 14.5641 21.0485 14.5271 19.988 14.5271C18.9274 14.5271 17.8922 14.5641 16.8905 14.6346C16.3286 15.4669 15.7789 16.3449 15.2486 17.2634C14.7183 18.1819 14.2328 19.0969 13.7929 19.9997C14.2328 20.9024 14.7183 21.8175 15.2486 22.736C15.7789 23.6544 16.3286 24.5324 16.8904 25.3647C17.8921 25.4351 18.9274 25.4722 19.988 25.4722C21.0485 25.4722 22.0838 25.4351 23.0855 25.3647C23.6474 24.5324 24.1971 23.6544 24.7273 22.7359C25.2576 21.8175 25.7431 20.9024 26.183 19.9997ZM26.1268 25.0356C26.3504 24.6716 26.5709 24.3015 26.7879 23.9256C27.0049 23.5498 27.2152 23.1738 27.4186 22.7981C27.6724 23.4401 27.9006 24.0702 28.1027 24.6847C27.4695 24.8169 26.8097 24.9343 26.1268 25.0356ZM21.2798 27.834C20.8528 27.8456 20.422 27.8515 19.988 27.8515C19.554 27.8515 19.1232 27.8456 18.6961 27.834C19.1252 28.3748 19.5568 28.8875 19.988 29.3698C20.4191 28.8875 20.8507 28.3748 21.2798 27.834ZM21.6487 31.0816C22.5805 30.0495 23.5053 28.8963 24.4005 27.6424C25.934 27.4941 27.3951 27.2698 28.7548 26.9788C28.8805 27.5105 28.9831 28.0244 29.0621 28.5175C29.316 30.1023 29.3165 31.4085 29.1091 32.3777C28.9018 33.3472 28.521 33.8474 28.1175 34.0804C27.7139 34.3134 27.0903 34.393 26.1471 34.0879C25.204 33.7828 24.0731 33.1293 22.8276 32.117C22.44 31.802 22.0462 31.4563 21.6487 31.0816ZM18.3272 31.0816C17.3954 30.0495 16.4706 28.8963 15.5754 27.6424C14.0419 27.494 12.5809 27.2698 11.2211 26.9788C11.0954 27.5105 10.9929 28.0244 10.9139 28.5175C10.66 30.1023 10.6595 31.4085 10.8668 32.3777C11.0741 33.3472 11.4549 33.8474 11.8585 34.0804C12.262 34.3134 12.8856 34.393 13.8288 34.0879C14.7719 33.7828 15.9029 33.1293 17.1483 32.117C17.5359 31.802 17.9297 31.4563 18.3272 31.0816ZM11.8732 24.6847C12.5064 24.8169 13.1662 24.9343 13.8491 25.0356C13.6255 24.6716 13.405 24.3015 13.188 23.9256C12.971 23.5498 12.7607 23.1738 12.5573 22.7981C12.3035 23.4401 12.0754 24.0702 11.8732 24.6847ZM12.5573 17.2012C12.7607 16.8256 12.971 16.4496 13.188 16.0737C13.405 15.6978 13.6255 15.3277 13.8491 14.9637C13.1662 15.0649 12.5064 15.1824 11.8732 15.3146C12.0753 15.9291 12.3035 16.5592 12.5573 17.2012ZM11.1629 19.9997C10.5246 21.4019 9.98831 22.7793 9.56042 24.1023C9.03713 23.9454 8.54083 23.7773 8.07426 23.5991C6.57488 23.0266 5.44343 22.374 4.70768 21.7098C3.9718 21.0455 3.72898 20.4656 3.72898 19.9996C3.72898 19.5337 3.9718 18.9538 4.70768 18.2895C5.44343 17.6253 6.57488 16.9726 8.07426 16.4001C8.54082 16.222 9.03711 16.0539 9.56038 15.8969C9.98828 17.22 10.5246 18.5974 11.1629 19.9997ZM18.6962 12.1653C19.1232 12.1536 19.554 12.1477 19.988 12.1477C20.422 12.1477 20.8527 12.1536 21.2797 12.1652C20.8506 11.6245 20.419 11.1119 19.988 10.6295C19.5569 11.1119 19.1253 11.6245 18.6962 12.1653ZM23.2393 19.9997C23.2393 21.7956 21.7834 23.2515 19.9875 23.2515C18.1916 23.2515 16.7357 21.7956 16.7357 19.9997C16.7357 18.2038 18.1916 16.7479 19.9875 16.7479C21.7834 16.7479 23.2393 18.2038 23.2393 19.9997Z" fill="#61DAFB"/>
</svg>
