<svg width="40" height="40" viewBox="0 0 40 40" fill="none" xmlns="http://www.w3.org/2000/svg">
<path d="M22.6203 34.9999H15.3591C15.3062 34.9997 15.2543 34.9859 15.2082 34.9599C15.1622 34.9339 15.1236 34.8966 15.096 34.8516C15.0684 34.8065 15.0527 34.7551 15.0506 34.7023C15.0484 34.6495 15.0597 34.597 15.0835 34.5498L29.9436 5.38834C30.0014 5.27194 30.0905 5.17395 30.2008 5.10539C30.3112 5.03684 30.4385 5.00042 30.5685 5.00024H37.1234C37.2434 5.00048 37.3613 5.03146 37.466 5.09023C37.5706 5.14899 37.6584 5.23359 37.7211 5.33594C37.7838 5.43829 37.8191 5.55499 37.8239 5.6749C37.8286 5.79482 37.8026 5.91395 37.7482 6.02093L23.1481 34.6739C23.0984 34.7714 23.0229 34.8533 22.9298 34.9108C22.8367 34.9683 22.7297 34.9991 22.6203 34.9999V34.9999Z" fill="url(#paint0_linear_65_45)"/>
<path d="M10.8804 12.502H3.75883C3.5934 12.5025 3.43317 12.4443 3.30666 12.3377C3.18016 12.2311 3.09559 12.083 3.06802 11.9199L1.98136 5.82682C1.96228 5.72465 1.96623 5.61952 1.99294 5.51907C2.01964 5.41863 2.06842 5.32541 2.13572 5.24621C2.20302 5.16702 2.28715 5.10383 2.38196 5.06127C2.47678 5.0187 2.5799 4.99783 2.68381 5.00018H8.96706C9.13249 4.9997 9.29272 5.05795 9.41922 5.16456C9.54573 5.27116 9.63029 5.4192 9.65786 5.58232L10.8804 12.502Z" fill="#FFC000"/>
<path d="M22.7134 34.9998H15.3396C15.1991 34.9977 15.0639 34.9459 14.958 34.8535C14.8521 34.7611 14.7824 34.6342 14.7613 34.4953L10.8804 12.4865H18.421C18.5863 12.4867 18.7461 12.5453 18.8724 12.6517C18.9988 12.7582 19.0836 12.9058 19.1119 13.0686L22.9385 34.7398C22.9443 34.7722 22.9427 34.8056 22.934 34.8374C22.9253 34.8691 22.9095 34.8986 22.888 34.9235C22.8664 34.9484 22.8395 34.9682 22.8093 34.9814C22.7791 34.9946 22.7463 35.0009 22.7134 34.9998V34.9998Z" fill="url(#paint1_linear_65_45)"/>
<defs>
<linearGradient id="paint0_linear_65_45" x1="17.1535" y1="38.617" x2="16.9798" y2="3.73075" gradientUnits="userSpaceOnUse">
<stop stop-color="#FF3F2B"/>
<stop offset="1" stop-color="#FF9588"/>
</linearGradient>
<linearGradient id="paint1_linear_65_45" x1="19.3038" y1="36.2301" x2="19.1911" y2="13.2734" gradientUnits="userSpaceOnUse">
<stop stop-color="#0064FF"/>
<stop offset="0.18" stop-color="#006FFE"/>
<stop offset="0.5" stop-color="#008DFC"/>
<stop offset="0.92" stop-color="#00BDF9"/>
<stop offset="1" stop-color="#00C7F8"/>
</linearGradient>
</defs>
</svg>
