<svg width="40" height="40" viewBox="0 0 40 40" fill="none" xmlns="http://www.w3.org/2000/svg">
<mask id="mask0_22539_139637" style="mask-type:alpha" maskUnits="userSpaceOnUse" x="0" y="0" width="40" height="40">
<rect width="40" height="40" fill="white"/>
</mask>
<g mask="url(#mask0_22539_139637)">
<path fill-rule="evenodd" clip-rule="evenodd" d="M32.4972 4.95434C35.1486 6.25306 36.7951 8.81475 37.3777 12.1934C37.9432 15.473 36.4782 18.0897 34.8157 19.8171C33.1907 21.5055 31.1401 22.6188 29.704 23.0506C28.3818 23.4482 26.9876 22.6987 26.59 21.3764C26.1924 20.0542 26.942 18.66 28.2642 18.2624C28.8967 18.0722 30.1971 17.4056 31.2131 16.3499C32.1915 15.3333 32.6572 14.2419 32.4504 13.043C32.0677 10.8235 31.1629 9.86839 30.2978 9.4446C29.3298 8.97047 27.8151 8.86811 25.7622 9.53967C23.2029 10.3769 22.7262 12.1074 22.6585 12.7263V28.3271L22.6246 28.5308C22.3096 30.4256 21.0062 32.7905 18.9145 34.4353C16.6883 36.1857 13.5289 37.1461 9.75544 35.9603C5.964 34.7689 3.98007 32.1666 3.23478 29.4408C2.53713 26.8892 2.92557 24.2691 3.68407 22.6241C4.14363 21.6274 5.13716 20.3341 6.39848 19.2718C7.67494 18.1968 9.53668 17.0968 11.7876 17.0101C13.1673 16.9569 14.3289 18.0322 14.3821 19.4119C14.4353 20.7916 13.3599 21.9532 11.9802 22.0063C11.2523 22.0344 10.4251 22.4177 9.61935 23.0962C8.79849 23.7876 8.31664 24.5182 8.22464 24.7177C7.94126 25.3323 7.68144 26.7458 8.05776 28.1221C8.38644 29.3243 9.19871 30.5443 11.2543 31.1903C13.3279 31.8419 14.7885 31.319 15.8239 30.5048C16.8991 29.6594 17.4928 28.509 17.6585 27.8677V12.5293L17.6648 12.4407C17.8097 10.4042 19.1476 6.44281 24.2076 4.7875C26.9814 3.8801 29.9486 3.70596 32.4972 4.95434Z" fill="#00A870"/>
</g>
</svg>
