<svg width="1em" height="1em" viewBox="0 0 20 20" fill="none" xmlns="http://www.w3.org/2000/svg">
    <path fill-rule="evenodd" clip-rule="evenodd"
        d="M5.00008 6.24984C5.00008 3.71853 7.05211 1.6665 9.58341 1.6665C12.1147 1.6665 14.1667 3.71853 14.1667 6.24984C14.1667 8.78114 12.1147 10.8332 9.58341 10.8332C7.05211 10.8332 5.00008 8.78114 5.00008 6.24984ZM9.58341 3.33317C7.97258 3.33317 6.66675 4.63901 6.66675 6.24984C6.66675 7.86067 7.97258 9.1665 9.58341 9.1665C11.1942 9.1665 12.5001 7.86067 12.5001 6.24984C12.5001 4.63901 11.1942 3.33317 9.58341 3.33317Z"
        fill="#009BFF" style="fill:#009BFF;fill:color(display-p3 0.0000 0.6078 1.0000);fill-opacity:1;" />
    <path
        d="M6.66675 13.3332C4.8258 13.3332 3.33341 14.8256 3.33341 16.6665H10.0417V18.3332H1.66675V16.6665C1.66675 13.9051 3.90532 11.6665 6.66675 11.6665H10.0001V13.3332H6.66675Z"
        fill="#009BFF" style="fill:#009BFF;fill:color(display-p3 0.0000 0.6078 1.0000);fill-opacity:1;" />
    <path
        d="M17.1668 14.1665C17.1668 13.7063 16.7937 13.3332 16.3335 13.3332C15.8733 13.3332 15.5002 13.7063 15.5002 14.1665C15.5002 14.6267 15.8733 14.9998 16.3335 14.9998C16.7937 14.9998 17.1668 14.6267 17.1668 14.1665Z"
        fill="#009BFF" style="fill:#009BFF;fill:color(display-p3 0.0000 0.6078 1.0000);fill-opacity:1;" />
    <path
        d="M14.4585 12.9165C14.9187 12.9165 15.2918 13.2896 15.2918 13.7498C15.2918 14.2101 14.9187 14.5832 14.4585 14.5832C13.9983 14.5832 13.6252 14.2101 13.6252 13.7498C13.6252 13.2896 13.9983 12.9165 14.4585 12.9165Z"
        fill="#009BFF" style="fill:#009BFF;fill:color(display-p3 0.0000 0.6078 1.0000);fill-opacity:1;" />
    <path
        d="M14.3336 15.4165C14.3336 14.9563 13.9605 14.5832 13.5002 14.5832C13.04 14.5832 12.6669 14.9563 12.6669 15.4165C12.6669 15.8767 13.04 16.2498 13.5002 16.2498C13.9605 16.2498 14.3336 15.8767 14.3336 15.4165Z"
        fill="#009BFF" style="fill:#009BFF;fill:color(display-p3 0.0000 0.6078 1.0000);fill-opacity:1;" />
    <path fill-rule="evenodd" clip-rule="evenodd"
        d="M10.5258 15.0922C10.5258 12.6154 12.5336 10.6077 15.0103 10.6077C17.3669 10.6077 19.6693 12.3282 19.4929 14.9523C19.4146 16.1161 18.6159 16.9461 17.5183 17.2423C17.0946 17.3566 16.631 17.3276 16.3554 17.3103C16.3056 17.3072 16.2619 17.3045 16.2257 17.303C15.9081 17.2904 15.8703 17.3306 15.8676 17.3335C15.8099 17.3817 15.7898 17.4149 15.7839 17.426C15.7786 17.4361 15.7782 17.4406 15.778 17.4445C15.777 17.4595 15.7822 17.515 15.835 17.599L15.8445 17.6141C15.8787 17.6682 15.9419 17.7683 15.9952 17.8742C16.0478 17.9787 16.1432 18.1869 16.1508 18.4405C16.1603 18.7604 16.0246 19.1144 15.6816 19.3361C15.4129 19.5099 15.1083 19.5391 14.8834 19.5391C12.3795 19.5391 10.5258 17.5412 10.5258 15.0922ZM15.0103 12.2743C13.454 12.2743 12.1925 13.5359 12.1925 15.0922C12.1925 16.4074 12.9937 17.4555 14.1411 17.7732C14.1159 17.6364 14.1051 17.4916 14.1145 17.3406C14.1448 16.8572 14.3764 16.4081 14.798 16.0554C15.3211 15.6176 15.9343 15.6235 16.2918 15.6377C16.3958 15.6418 16.4847 15.6464 16.562 15.6504C16.8165 15.6635 16.9467 15.6702 17.0841 15.6332C17.5956 15.4951 17.8062 15.1947 17.83 14.8405C17.9241 13.4407 16.6866 12.2743 15.0103 12.2743Z"
        fill="#009BFF" style="fill:#009BFF;fill:color(display-p3 0.0000 0.6078 1.0000);fill-opacity:1;" />
    <path
        d="M17.1667 14.1667C17.1667 13.7065 16.7936 13.3334 16.3333 13.3334C15.8731 13.3334 15.5 13.7065 15.5 14.1667C15.5 14.627 15.8731 15.0001 16.3333 15.0001C16.7936 15.0001 17.1667 14.627 17.1667 14.1667Z"
        fill="#4CEB1B" style="fill:#4CEB1B;fill:color(display-p3 0.2980 0.9216 0.1059);fill-opacity:1;" />
    <path
        d="M14.4583 12.9167C14.9186 12.9167 15.2917 13.2898 15.2917 13.7501C15.2917 14.2103 14.9186 14.5834 14.4583 14.5834C13.9981 14.5834 13.625 14.2103 13.625 13.7501C13.625 13.2898 13.9981 12.9167 14.4583 12.9167Z"
        fill="#4CEB1B" style="fill:#4CEB1B;fill:color(display-p3 0.2980 0.9216 0.1059);fill-opacity:1;" />
    <path
        d="M14.3334 15.4167C14.3334 14.9565 13.9603 14.5834 13.5001 14.5834C13.0398 14.5834 12.6667 14.9565 12.6667 15.4167C12.6667 15.877 13.0398 16.2501 13.5001 16.2501C13.9603 16.2501 14.3334 15.877 14.3334 15.4167Z"
        fill="#4CEB1B" style="fill:#4CEB1B;fill:color(display-p3 0.2980 0.9216 0.1059);fill-opacity:1;" />
    <path fill-rule="evenodd" clip-rule="evenodd"
        d="M10.5256 15.0924C10.5256 12.6157 12.5334 10.6079 15.0101 10.6079C17.3667 10.6079 19.6692 12.3284 19.4927 14.9525C19.4145 16.1164 18.6157 16.9463 17.5181 17.2425C17.0944 17.3569 16.6308 17.3278 16.3552 17.3106C16.3054 17.3074 16.2618 17.3047 16.2256 17.3033C15.9079 17.2907 15.8701 17.3309 15.8675 17.3337C15.8098 17.382 15.7896 17.4152 15.7838 17.4262C15.7785 17.4363 15.7781 17.4408 15.7778 17.4448C15.7769 17.4597 15.782 17.5152 15.8348 17.5992L15.8444 17.6143C15.8786 17.6685 15.9418 17.7685 15.9951 17.8745C16.0476 17.9789 16.1431 18.1871 16.1506 18.4408C16.1602 18.7607 16.0244 19.1146 15.6814 19.3364C15.4127 19.5101 15.1081 19.5393 14.8832 19.5393C12.3794 19.5393 10.5256 17.5415 10.5256 15.0924ZM15.0101 12.2746C13.4539 12.2746 12.1923 13.5362 12.1923 15.0924C12.1923 16.4077 12.9935 17.4558 14.1409 17.7734C14.1157 17.6367 14.1049 17.4918 14.1144 17.3408C14.1446 16.8574 14.3762 16.4084 14.7978 16.0556C15.321 15.6179 15.9342 15.6237 16.2917 15.6379C16.3957 15.6421 16.4845 15.6466 16.5618 15.6506C16.8163 15.6638 16.9466 15.6705 17.0839 15.6334C17.5955 15.4954 17.806 15.195 17.8298 14.8407C17.9239 13.441 16.6864 12.2746 15.0101 12.2746Z"
        fill="#4CEB1B" style="fill:#4CEB1B;fill:color(display-p3 0.2980 0.9216 0.1059);fill-opacity:1;" />
</svg>