<svg width="186" height="135" viewBox="0 0 186 135" fill="none" xmlns="http://www.w3.org/2000/svg">
<g filter="url(#filter0_d_16850_30554)">
<rect x="1.95361" y="37.5186" width="22.7624" height="22.7624" rx="4.32" fill="#0052D9"/>
<path fill-rule="evenodd" clip-rule="evenodd" d="M11.2363 53.2815L6.22144 48.2506L7.7216 46.7504L11.7547 50.7963L19.3597 43.2086L20.8584 44.7072L12.3035 53.2426C12.2795 53.2666 12.2543 53.2884 12.228 53.3083C11.9451 53.5635 11.5085 53.5544 11.2363 53.2815Z" fill="white"/>
</g>
<rect x="2.67483" y="1.24832" width="21.3224" height="21.3224" rx="3.6" fill="white" stroke="#DCDCDC" stroke-width="1.44"/>
<path fill-rule="evenodd" clip-rule="evenodd" d="M11.2376 16.2912L6.22266 11.2604L7.72282 9.76021L11.7559 13.8061L19.361 6.21832L20.8596 7.71697L12.3047 16.2524C12.2808 16.2763 12.2555 16.2982 12.2292 16.318C11.9463 16.5732 11.5097 16.5642 11.2376 16.2912Z" fill="white"/>
<rect x="2.67361" y="75.2278" width="21.3224" height="21.3224" rx="3.6" fill="white" stroke="#DCDCDC" stroke-width="1.44"/>
<path fill-rule="evenodd" clip-rule="evenodd" d="M11.2363 90.2707L6.22144 85.2399L7.7216 83.7397L11.7547 87.7856L19.3597 80.1978L20.8584 81.6965L12.3035 90.2319C12.2795 90.2558 12.2543 90.2777 12.228 90.2975C11.9451 90.5527 11.5085 90.5437 11.2363 90.2707Z" fill="white"/>
<rect x="2.67361" y="112.216" width="21.3224" height="21.3224" rx="3.6" fill="white" stroke="#DCDCDC" stroke-width="1.44"/>
<path fill-rule="evenodd" clip-rule="evenodd" d="M11.2363 127.259L6.22144 122.228L7.7216 120.728L11.7547 124.774L19.3597 117.186L20.8584 118.685L12.3035 127.22C12.2795 127.244 12.2543 127.266 12.228 127.286C11.9451 127.541 11.5085 127.532 11.2363 127.259Z" fill="white"/>
<g filter="url(#filter1_d_16850_30554)">
<rect x="36.0974" y="40.3643" width="147.956" height="17.0718" rx="4.32" fill="#0052D9"/>
</g>
<rect x="36.0974" y="3.375" width="147.956" height="17.0718" rx="4.32" fill="#EBEDF1"/>
<rect x="36.0974" y="77.3525" width="102.431" height="17.0718" rx="4.32" fill="#EBEDF1"/>
<rect x="36.0974" y="114.342" width="147.956" height="17.0718" rx="4.32" fill="#EBEDF1"/>
<defs>
<filter id="filter0_d_16850_30554" x="0.513613" y="37.5186" width="25.6425" height="25.6427" filterUnits="userSpaceOnUse" color-interpolation-filters="sRGB">
<feFlood flood-opacity="0" result="BackgroundImageFix"/>
<feColorMatrix in="SourceAlpha" type="matrix" values="0 0 0 0 0 0 0 0 0 0 0 0 0 0 0 0 0 0 127 0" result="hardAlpha"/>
<feOffset dy="1.44"/>
<feGaussianBlur stdDeviation="0.72"/>
<feColorMatrix type="matrix" values="0 0 0 0 0 0 0 0 0 0 0 0 0 0 0 0 0 0 0.25 0"/>
<feBlend mode="normal" in2="BackgroundImageFix" result="effect1_dropShadow_16850_30554"/>
<feBlend mode="normal" in="SourceGraphic" in2="effect1_dropShadow_16850_30554" result="shape"/>
</filter>
<filter id="filter1_d_16850_30554" x="34.6574" y="40.3643" width="150.836" height="19.9523" filterUnits="userSpaceOnUse" color-interpolation-filters="sRGB">
<feFlood flood-opacity="0" result="BackgroundImageFix"/>
<feColorMatrix in="SourceAlpha" type="matrix" values="0 0 0 0 0 0 0 0 0 0 0 0 0 0 0 0 0 0 127 0" result="hardAlpha"/>
<feOffset dy="1.44"/>
<feGaussianBlur stdDeviation="0.72"/>
<feColorMatrix type="matrix" values="0 0 0 0 0 0 0 0 0 0 0 0 0 0 0 0 0 0 0.25 0"/>
<feBlend mode="normal" in2="BackgroundImageFix" result="effect1_dropShadow_16850_30554"/>
<feBlend mode="normal" in="SourceGraphic" in2="effect1_dropShadow_16850_30554" result="shape"/>
</filter>
</defs>
</svg>
