<svg width="208" height="148" viewBox="0 0 208 148" fill="none" xmlns="http://www.w3.org/2000/svg">
<path d="M0.245605 7.83727C0.245605 5.38418 0.245605 4.15764 0.723009 3.22069C1.14295 2.39651 1.81302 1.72644 2.63719 1.30651C3.57415 0.829102 4.8007 0.829102 7.25379 0.829102H200.95C203.403 0.829102 204.629 0.829102 205.566 1.30651C206.391 1.72644 207.061 2.39651 207.481 3.22069C207.958 4.15764 207.958 5.38419 207.958 7.83729V140.951C207.958 143.404 207.958 144.63 207.481 145.567C207.061 146.391 206.391 147.061 205.566 147.481C204.629 147.959 203.403 147.959 200.95 147.959H7.25378C4.80069 147.959 3.57415 147.959 2.63719 147.481C1.81302 147.061 1.14295 146.391 0.723009 145.567C0.245605 144.63 0.245605 143.404 0.245605 140.951V7.83727Z" fill="#F1F2F5"/>
<path d="M104.102 0.828125H203.578C205.997 0.828125 207.958 2.78917 207.958 5.20824V35.4469H104.102V0.828125Z" fill="#E3E6EB"/>
<g filter="url(#filter0_d_16850_30572)">
<rect x="17.5549" y="9.48242" width="46.1583" height="17.3094" rx="2.92008" fill="#0052D9"/>
</g>
<rect x="121.411" y="9.48242" width="46.1583" height="17.3094" rx="2.92008" fill="#D6DBE3"/>
<rect x="17.5549" y="46.9863" width="173.094" height="11.5396" rx="2.92008" fill="#D6DBE3"/>
<rect x="17.5549" y="67.1816" width="103.856" height="11.5396" rx="2.92008" fill="#D6DBE3"/>
<defs>
<filter id="filter0_d_16850_30572" x="16.0949" y="9.48242" width="49.0783" height="20.2296" filterUnits="userSpaceOnUse" color-interpolation-filters="sRGB">
<feFlood flood-opacity="0" result="BackgroundImageFix"/>
<feColorMatrix in="SourceAlpha" type="matrix" values="0 0 0 0 0 0 0 0 0 0 0 0 0 0 0 0 0 0 127 0" result="hardAlpha"/>
<feOffset dy="1.46004"/>
<feGaussianBlur stdDeviation="0.730019"/>
<feColorMatrix type="matrix" values="0 0 0 0 0 0 0 0 0 0 0 0 0 0 0 0 0 0 0.25 0"/>
<feBlend mode="normal" in2="BackgroundImageFix" result="effect1_dropShadow_16850_30572"/>
<feBlend mode="normal" in="SourceGraphic" in2="effect1_dropShadow_16850_30572" result="shape"/>
</filter>
</defs>
</svg>
