<svg width="216" height="41" viewBox="0 0 216 41" fill="none" xmlns="http://www.w3.org/2000/svg">
<rect x="2.13367" y="1.52234" width="211.766" height="37.7408" rx="5.87157" fill="white" stroke="#D4E3FC" stroke-width="2.93579"/>
<rect x="4.33551" y="3.72418" width="207.362" height="33.3371" rx="3.66973" fill="white" stroke="#0052D9" stroke-width="1.46789"/>
<rect x="15.2043" y="14.5918" width="81.2116" height="11.6017" rx="4.40368" fill="#E3E6EB"/>
<mask id="path-4-outside-1_16850_30590" maskUnits="userSpaceOnUse" x="104.101" y="9.9668" width="11" height="21" fill="black">
<rect fill="white" x="104.101" y="9.9668" width="11" height="21"/>
<path fill-rule="evenodd" clip-rule="evenodd" d="M105.101 29.1959C105.101 28.8516 105.38 28.5724 105.725 28.5724H108.032C108.353 28.5724 108.657 28.1128 108.842 26.9513L108.846 19.8003L108.843 14.0267C108.643 12.7719 108.314 12.2139 108.032 12.2139H105.725C105.38 12.2139 105.101 11.9347 105.101 11.5903C105.101 11.246 105.38 10.9668 105.725 10.9668H108.032C108.652 10.9668 109.121 11.2871 109.466 11.8893C109.811 11.2871 110.28 10.9668 110.899 10.9668H113.207C113.551 10.9668 113.83 11.246 113.83 11.5903C113.83 11.9347 113.551 12.2139 113.207 12.2139H110.899C110.617 12.2139 110.289 12.7719 110.089 14.0267L110.086 19.8003L110.09 26.9513C110.274 28.1128 110.578 28.5724 110.899 28.5724H113.207C113.551 28.5724 113.83 28.8516 113.83 29.1959C113.83 29.5403 113.551 29.8195 113.207 29.8195H110.899C110.285 29.8195 109.813 29.5283 109.466 28.9711C109.119 29.5283 108.647 29.8195 108.032 29.8195H105.725C105.38 29.8195 105.101 29.5403 105.101 29.1959Z"/>
</mask>
<path fill-rule="evenodd" clip-rule="evenodd" d="M105.101 29.1959C105.101 28.8516 105.38 28.5724 105.725 28.5724H108.032C108.353 28.5724 108.657 28.1128 108.842 26.9513L108.846 19.8003L108.843 14.0267C108.643 12.7719 108.314 12.2139 108.032 12.2139H105.725C105.38 12.2139 105.101 11.9347 105.101 11.5903C105.101 11.246 105.38 10.9668 105.725 10.9668H108.032C108.652 10.9668 109.121 11.2871 109.466 11.8893C109.811 11.2871 110.28 10.9668 110.899 10.9668H113.207C113.551 10.9668 113.83 11.246 113.83 11.5903C113.83 11.9347 113.551 12.2139 113.207 12.2139H110.899C110.617 12.2139 110.289 12.7719 110.089 14.0267L110.086 19.8003L110.09 26.9513C110.274 28.1128 110.578 28.5724 110.899 28.5724H113.207C113.551 28.5724 113.83 28.8516 113.83 29.1959C113.83 29.5403 113.551 29.8195 113.207 29.8195H110.899C110.285 29.8195 109.813 29.5283 109.466 28.9711C109.119 29.5283 108.647 29.8195 108.032 29.8195H105.725C105.38 29.8195 105.101 29.5403 105.101 29.1959Z" fill="#313233"/>
<path d="M108.842 26.9513L109.567 27.0666L109.576 27.0095L109.576 26.9517L108.842 26.9513ZM108.846 19.8003L109.58 19.8007L109.58 19.7999L108.846 19.8003ZM108.843 14.0267L109.577 14.0263L109.577 13.9684L109.567 13.9111L108.843 14.0267ZM109.466 11.8893L108.829 12.2542L109.466 13.3657L110.103 12.2542L109.466 11.8893ZM110.089 14.0267L109.364 13.9111L109.355 13.9684L109.355 14.0263L110.089 14.0267ZM110.086 19.8003L109.352 19.7999L109.352 19.8007L110.086 19.8003ZM110.09 26.9513L109.356 26.9517L109.356 27.0095L109.365 27.0666L110.09 26.9513ZM109.466 28.9711L110.089 28.5832L109.466 27.5823L108.843 28.5832L109.466 28.9711ZM105.725 27.8384C104.975 27.8384 104.367 28.4462 104.367 29.1959H105.835C105.835 29.2569 105.786 29.3063 105.725 29.3063V27.8384ZM108.032 27.8384H105.725V29.3063H108.032V27.8384ZM108.117 26.836C108.03 27.3847 107.924 27.6966 107.841 27.8511C107.749 28.0234 107.786 27.8384 108.032 27.8384V29.3063C108.6 29.3063 108.949 28.8916 109.135 28.5438C109.331 28.1781 109.469 27.6795 109.567 27.0666L108.117 26.836ZM109.576 26.9517L109.58 19.8007L108.112 19.7999L108.108 26.9509L109.576 26.9517ZM108.109 14.0271L108.112 19.8007L109.58 19.7999L109.577 14.0263L108.109 14.0271ZM108.032 12.9478C107.847 12.9478 107.746 12.8548 107.737 12.8455C107.727 12.8363 107.756 12.8632 107.807 12.9675C107.906 13.1739 108.023 13.5492 108.118 14.1423L109.567 13.9111C109.462 13.2494 109.315 12.7183 109.13 12.3319C109.037 12.14 108.919 11.9489 108.763 11.7959C108.606 11.6428 108.359 11.48 108.032 11.48V12.9478ZM105.725 12.9478H108.032V11.48H105.725V12.9478ZM104.367 11.5903C104.367 12.3401 104.975 12.9478 105.725 12.9478V11.48C105.786 11.48 105.835 11.5294 105.835 11.5903H104.367ZM105.725 10.2329C104.975 10.2329 104.367 10.8406 104.367 11.5903H105.835C105.835 11.6513 105.786 11.7007 105.725 11.7007V10.2329ZM108.032 10.2329H105.725V11.7007H108.032V10.2329ZM110.103 11.5245C109.658 10.7489 108.973 10.2329 108.032 10.2329V11.7007C108.331 11.7007 108.583 11.8254 108.829 12.2542L110.103 11.5245ZM110.103 12.2542C110.348 11.8254 110.6 11.7007 110.899 11.7007V10.2329C109.959 10.2329 109.273 10.7489 108.829 11.5245L110.103 12.2542ZM110.899 11.7007H113.207V10.2329H110.899V11.7007ZM113.207 11.7007C113.146 11.7007 113.096 11.6513 113.096 11.5903H114.564C114.564 10.8406 113.956 10.2329 113.207 10.2329V11.7007ZM113.096 11.5903C113.096 11.5294 113.146 11.48 113.207 11.48V12.9478C113.956 12.9478 114.564 12.3401 114.564 11.5903H113.096ZM113.207 11.48H110.899V12.9478H113.207V11.48ZM110.899 11.48C110.573 11.48 110.326 11.6428 110.169 11.7959C110.012 11.9489 109.894 12.14 109.802 12.3319C109.616 12.7183 109.47 13.2494 109.364 13.9111L110.814 14.1423C110.908 13.5492 111.026 13.1739 111.125 12.9675C111.175 12.8632 111.204 12.8363 111.195 12.8455C111.186 12.8548 111.085 12.9478 110.899 12.9478V11.48ZM109.355 14.0263L109.352 19.7999L110.82 19.8007L110.823 14.0271L109.355 14.0263ZM110.824 26.9509L110.82 19.7999L109.352 19.8007L109.356 26.9517L110.824 26.9509ZM109.365 27.0666C109.462 27.6795 109.601 28.1781 109.796 28.5438C109.983 28.8916 110.332 29.3063 110.899 29.3063V27.8384C111.146 27.8384 111.183 28.0234 111.091 27.8511C111.008 27.6966 110.902 27.3847 110.815 26.836L109.365 27.0666ZM110.899 29.3063H113.207V27.8384H110.899V29.3063ZM113.207 29.3063C113.146 29.3063 113.096 29.2569 113.096 29.1959H114.564C114.564 28.4462 113.956 27.8384 113.207 27.8384V29.3063ZM113.096 29.1959C113.096 29.135 113.146 29.0855 113.207 29.0855V30.5534C113.956 30.5534 114.564 29.9457 114.564 29.1959H113.096ZM113.207 29.0855H110.899V30.5534H113.207V29.0855ZM110.899 29.0855C110.573 29.0855 110.321 28.9565 110.089 28.5832L108.843 29.359C109.304 30.1001 109.996 30.5534 110.899 30.5534V29.0855ZM108.032 30.5534C108.935 30.5534 109.627 30.1001 110.089 29.359L108.843 28.5832C108.61 28.9565 108.359 29.0855 108.032 29.0855V30.5534ZM105.725 30.5534H108.032V29.0855H105.725V30.5534ZM104.367 29.1959C104.367 29.9457 104.975 30.5534 105.725 30.5534V29.0855C105.786 29.0855 105.835 29.135 105.835 29.1959H104.367Z" fill="white" mask="url(#path-4-outside-1_16850_30590)"/>
</svg>
