<svg width="203" height="49" viewBox="0 0 203 49" fill="none" xmlns="http://www.w3.org/2000/svg">
<rect x="0.431152" y="0.0126953" width="48.7597" height="48.7597" rx="5.28796" fill="#EBEDF1"/>
<path d="M23.6795 25.5259V32.2304H25.9434V25.5259H32.6478V23.262H25.9434V16.5576H23.6795V23.262H16.9751V25.5259H23.6795Z" fill="#BCC4D0"/>
<rect x="153.675" y="0.0136719" width="48.7597" height="48.7597" rx="5.28796" fill="#EBEDF1"/>
<path fill-rule="evenodd" clip-rule="evenodd" d="M170.219 23.2617H185.892V25.5256H170.219V23.2617Z" fill="#BCC4D0"/>
<path d="M83.8868 27.9876C84.1195 27.9876 84.4685 27.9664 84.9339 27.9241L80.5872 36.8396H84.2676L89.693 25.6714C90.0526 24.9523 90.3276 24.2014 90.518 23.4188C90.7506 22.5938 90.867 21.7901 90.867 21.0075C90.867 19.7383 90.5497 18.575 89.9151 17.5174C89.3017 16.4387 88.4556 15.5926 87.3769 14.9792C86.3193 14.3446 85.156 14.0273 83.8868 14.0273C82.6177 14.0273 81.4438 14.3446 80.3651 14.9792C79.3075 15.5926 78.4614 16.4387 77.8268 17.5174C77.2134 18.575 76.9067 19.7383 76.9067 21.0075C76.9067 22.2766 77.2134 23.4505 77.8268 24.5292C78.4614 25.5868 79.3075 26.4223 80.3651 27.0357C81.4438 27.6703 82.6177 27.9876 83.8868 27.9876ZM83.8868 17.327C84.9021 17.327 85.7694 17.6866 86.4885 18.4058C87.2077 19.1249 87.5673 19.9922 87.5673 21.0075C87.5673 22.0227 87.2077 22.89 86.4885 23.6091C85.7694 24.3283 84.9021 24.6879 83.8868 24.6879C82.8716 24.6879 82.0043 24.3283 81.2852 23.6091C80.566 22.89 80.2064 22.0227 80.2064 21.0075C80.2064 19.9922 80.566 19.1249 81.2852 18.4058C82.0043 17.6866 82.8716 17.327 83.8868 17.327Z" fill="#5F7292"/>
<path d="M100.835 27.9876C101.068 27.9876 101.417 27.9664 101.882 27.9241L97.5355 36.8396H101.216L106.641 25.6714C107.001 24.9523 107.276 24.2014 107.466 23.4188C107.699 22.5938 107.815 21.7901 107.815 21.0075C107.815 19.7383 107.498 18.575 106.863 17.5174C106.25 16.4387 105.404 15.5926 104.325 14.9792C103.268 14.3446 102.104 14.0273 100.835 14.0273C99.5661 14.0273 98.3921 14.3446 97.3134 14.9792C96.2558 15.5926 95.4097 16.4387 94.7752 17.5174C94.1618 18.575 93.8551 19.7383 93.8551 21.0075C93.8551 22.2766 94.1618 23.4505 94.7752 24.5292C95.4097 25.5868 96.2558 26.4223 97.3134 27.0357C98.3921 27.6703 99.5661 27.9876 100.835 27.9876ZM100.835 17.327C101.85 17.327 102.718 17.6866 103.437 18.4058C104.156 19.1249 104.516 19.9922 104.516 21.0075C104.516 22.0227 104.156 22.89 103.437 23.6091C102.718 24.3283 101.85 24.6879 100.835 24.6879C99.8199 24.6879 98.9527 24.3283 98.2335 23.6091C97.5143 22.89 97.1548 22.0227 97.1548 21.0075C97.1548 19.9922 97.5143 19.1249 98.2335 18.4058C98.9527 17.6866 99.8199 17.327 100.835 17.327Z" fill="#5F7292"/>
<path d="M117.784 27.9876C118.016 27.9876 118.365 27.9664 118.831 27.9241L114.484 36.8396H118.164L123.59 25.6714C123.949 24.9523 124.224 24.2014 124.415 23.4188C124.647 22.5938 124.764 21.7901 124.764 21.0075C124.764 19.7383 124.446 18.575 123.812 17.5174C123.198 16.4387 122.352 15.5926 121.274 14.9792C120.216 14.3446 119.053 14.0273 117.784 14.0273C116.514 14.0273 115.34 14.3446 114.262 14.9792C113.204 15.5926 112.358 16.4387 111.723 17.5174C111.11 18.575 110.803 19.7383 110.803 21.0075C110.803 22.2766 111.11 23.4505 111.723 24.5292C112.358 25.5868 113.204 26.4223 114.262 27.0357C115.34 27.6703 116.514 27.9876 117.784 27.9876ZM117.784 17.327C118.799 17.327 119.666 17.6866 120.385 18.4058C121.104 19.1249 121.464 19.9922 121.464 21.0075C121.464 22.0227 121.104 22.89 120.385 23.6091C119.666 24.3283 118.799 24.6879 117.784 24.6879C116.768 24.6879 115.901 24.3283 115.182 23.6091C114.463 22.89 114.103 22.0227 114.103 21.0075C114.103 19.9922 114.463 19.1249 115.182 18.4058C115.901 17.6866 116.768 17.327 117.784 17.327Z" fill="#5F7292"/>
</svg>
