<svg width="204" height="181" viewBox="0 0 204 181" fill="none" xmlns="http://www.w3.org/2000/svg">
<rect x="1.96514" y="2.33769" width="200.441" height="37.793" rx="5.87969" fill="white" stroke="#D4E3FC" stroke-width="2.93985"/>
<rect x="4.17002" y="4.54258" width="196.031" height="33.3832" rx="3.67481" fill="white" stroke="#0052D9" stroke-width="1.46992"/>
<path fill-rule="evenodd" clip-rule="evenodd" d="M177.7 12.5215H176.248V13.9737H173.344C172.542 13.9737 171.892 14.6239 171.892 15.4259V28.4958C171.892 29.2979 172.542 29.948 173.344 29.948H187.866C188.668 29.948 189.318 29.2979 189.318 28.4958V15.4259C189.318 14.6239 188.668 13.9737 187.866 13.9737H184.962V12.5215H183.509V13.9737H177.7V12.5215ZM183.509 16.8781V15.4259H177.7V16.8781H176.248V15.4259H173.344V18.3303H187.866V15.4259H184.962V16.8781H183.509ZM187.866 19.7825H173.344V28.4958H187.866V19.7825Z" fill="#0052D9"/>
<rect x="15.0522" y="15.4258" width="81.3239" height="11.6177" rx="4.40977" fill="#EBEDF1"/>
<rect x="3.43506" y="50.2793" width="197.501" height="130.699" rx="4.40977" fill="#F1F2F5"/>
<circle cx="23.7655" cy="90.9408" r="8.71328" fill="#EBEDF1"/>
<circle cx="23.7655" cy="114.175" r="8.71328" fill="#D6DBE3"/>
<circle cx="23.7655" cy="137.412" r="8.71328" fill="#D6DBE3"/>
<circle cx="23.7655" cy="160.647" r="8.71328" fill="#D6DBE3"/>
<circle cx="49.9057" cy="90.9408" r="8.71328" fill="#EBEDF1"/>
<circle cx="49.9057" cy="114.175" r="8.71328" fill="#D6DBE3"/>
<circle cx="49.9057" cy="137.412" r="8.71328" fill="#D6DBE3"/>
<circle cx="49.9057" cy="160.647" r="8.71328" fill="#D6DBE3"/>
<circle cx="76.0458" cy="90.9408" r="8.71328" fill="#EBEDF1"/>
<circle cx="76.0458" cy="114.175" r="8.71328" fill="#D6DBE3"/>
<circle cx="76.0458" cy="137.412" r="8.71328" fill="#D6DBE3"/>
<circle cx="76.0458" cy="160.647" r="8.71328" fill="#EBEDF1"/>
<circle cx="102.185" cy="90.9408" r="8.71328" fill="#EBEDF1"/>
<circle cx="102.185" cy="114.175" r="8.71328" fill="#D6DBE3"/>
<circle cx="102.185" cy="137.412" r="8.71328" fill="#D6DBE3"/>
<circle cx="102.185" cy="160.647" r="8.71328" fill="#EBEDF1"/>
<circle cx="128.326" cy="90.9408" r="8.71328" fill="#D6DBE3"/>
<g filter="url(#filter0_d_16850_30608)">
<circle cx="128.326" cy="114.176" r="11.6177" fill="#0052D9"/>
</g>
<path d="M128.187 115.427C128.295 115.427 128.457 115.417 128.673 115.397L126.659 119.528H128.364L130.877 114.354C131.044 114.02 131.171 113.673 131.26 113.31C131.367 112.928 131.421 112.555 131.421 112.193C131.421 111.605 131.274 111.066 130.98 110.576C130.696 110.076 130.304 109.684 129.804 109.4C129.314 109.106 128.775 108.959 128.187 108.959C127.599 108.959 127.056 109.106 126.556 109.4C126.066 109.684 125.674 110.076 125.38 110.576C125.096 111.066 124.954 111.605 124.954 112.193C124.954 112.781 125.096 113.325 125.38 113.824C125.674 114.314 126.066 114.701 126.556 114.986C127.056 115.28 127.599 115.427 128.187 115.427ZM128.187 110.488C128.658 110.488 129.06 110.654 129.393 110.987C129.726 111.321 129.893 111.722 129.893 112.193C129.893 112.663 129.726 113.065 129.393 113.398C129.06 113.731 128.658 113.898 128.187 113.898C127.717 113.898 127.315 113.731 126.982 113.398C126.649 113.065 126.482 112.663 126.482 112.193C126.482 111.722 126.649 111.321 126.982 110.987C127.315 110.654 127.717 110.488 128.187 110.488Z" fill="white"/>
<circle cx="128.326" cy="137.412" r="8.71328" fill="#D6DBE3"/>
<circle cx="128.326" cy="160.647" r="8.71328" fill="#EBEDF1"/>
<circle cx="154.465" cy="90.9408" r="8.71328" fill="#D6DBE3"/>
<circle cx="154.465" cy="114.175" r="8.71328" fill="#D6DBE3"/>
<circle cx="154.465" cy="137.412" r="8.71328" fill="#D6DBE3"/>
<circle cx="154.465" cy="160.647" r="8.71328" fill="#EBEDF1"/>
<circle cx="180.605" cy="90.9408" r="8.71328" fill="#D6DBE3"/>
<circle cx="180.605" cy="114.175" r="8.71328" fill="#D6DBE3"/>
<circle cx="180.605" cy="137.412" r="8.71328" fill="#D6DBE3"/>
<circle cx="180.605" cy="160.647" r="8.71328" fill="#EBEDF1"/>
<rect x="15.0522" y="61.8975" width="17.4266" height="11.6177" rx="4.40977" fill="#EBEDF1"/>
<rect x="41.1924" y="61.8975" width="17.4266" height="11.6177" rx="4.40977" fill="#EBEDF1"/>
<rect x="67.3325" y="61.8975" width="17.4266" height="11.6177" rx="4.40977" fill="#EBEDF1"/>
<rect x="93.4722" y="61.8975" width="17.4266" height="11.6177" rx="4.40977" fill="#EBEDF1"/>
<rect x="119.612" y="61.8975" width="17.4266" height="11.6177" rx="4.40977" fill="#EBEDF1"/>
<rect x="145.752" y="61.8975" width="17.4266" height="11.6177" rx="4.40977" fill="#EBEDF1"/>
<rect x="171.892" y="61.8975" width="17.4266" height="11.6177" rx="4.40977" fill="#EBEDF1"/>
<defs>
<filter id="filter0_d_16850_30608" x="115.238" y="102.559" width="26.1752" height="26.1752" filterUnits="userSpaceOnUse" color-interpolation-filters="sRGB">
<feFlood flood-opacity="0" result="BackgroundImageFix"/>
<feColorMatrix in="SourceAlpha" type="matrix" values="0 0 0 0 0 0 0 0 0 0 0 0 0 0 0 0 0 0 127 0" result="hardAlpha"/>
<feOffset dy="1.46992"/>
<feGaussianBlur stdDeviation="0.734962"/>
<feColorMatrix type="matrix" values="0 0 0 0 0 0 0 0 0 0 0 0 0 0 0 0 0 0 0.25 0"/>
<feBlend mode="normal" in2="BackgroundImageFix" result="effect1_dropShadow_16850_30608"/>
<feBlend mode="normal" in="SourceGraphic" in2="effect1_dropShadow_16850_30608" result="shape"/>
</filter>
</defs>
</svg>
