<svg width="227" height="145" viewBox="0 0 227 145" fill="none" xmlns="http://www.w3.org/2000/svg">
<rect x="133.984" y="0.0839844" width="92.5553" height="144.618" rx="4.39144" fill="#F1F2F5"/>
<rect x="168.693" y="40.5781" width="46.2777" height="11.5694" rx="2.92763" fill="#E3E6EB"/>
<rect x="168.693" y="14.5469" width="46.2777" height="11.5694" rx="2.92763" fill="#E3E6EB"/>
<rect x="146.287" y="38.4175" width="15.8903" height="15.8903" rx="3.65953" fill="white" stroke="#E3E6EB" stroke-width="1.46381"/>
<path fill-rule="evenodd" clip-rule="evenodd" d="M152.503 49.5739L148.809 45.8681L149.952 44.7244L153.027 47.8086L158.825 42.0233L159.968 43.1659L153.575 49.5443C153.554 49.5653 153.532 49.5847 153.509 49.6026C153.221 49.8605 152.779 49.8508 152.503 49.5739Z" fill="white"/>
<rect x="146.287" y="12.3862" width="15.8903" height="15.8903" rx="3.65953" fill="white" stroke="#E3E6EB" stroke-width="1.46381"/>
<path fill-rule="evenodd" clip-rule="evenodd" d="M152.503 23.5426L148.809 19.8369L149.952 18.6931L153.027 21.7773L158.825 15.9921L159.968 17.1347L153.575 23.513C153.554 23.534 153.532 23.5535 153.509 23.5714C153.221 23.8292 152.779 23.8196 152.503 23.5426Z" fill="white"/>
<rect x="0.936035" y="0.0839844" width="92.5553" height="144.618" rx="4.39144" fill="#F1F2F5"/>
<g filter="url(#filter0_d_16850_30651)">
<rect x="35.6445" y="40.5781" width="46.2777" height="11.5694" rx="2.92763" fill="#0052D9"/>
</g>
<g filter="url(#filter1_d_16850_30651)">
<rect x="35.6445" y="14.5469" width="46.2777" height="11.5694" rx="2.92763" fill="#0052D9"/>
</g>
<rect x="35.6445" y="66.6094" width="46.2777" height="11.5694" rx="2.92763" fill="#E3E6EB"/>
<rect x="35.6445" y="92.6406" width="46.2777" height="11.5694" rx="2.92763" fill="#E3E6EB"/>
<rect x="35.6445" y="118.672" width="46.2777" height="11.5694" rx="2.92763" fill="#E3E6EB"/>
<g filter="url(#filter2_d_16850_30651)">
<rect x="12.5063" y="37.6855" width="17.3541" height="17.3541" rx="4.39144" fill="#0052D9"/>
<path fill-rule="evenodd" clip-rule="evenodd" d="M19.4543 49.5739L15.7603 45.8681L16.904 44.7244L19.9784 47.8086L25.7768 42.0233L26.9194 43.1659L20.5265 49.5443C20.5055 49.5653 20.4835 49.5847 20.4606 49.6026C20.1729 49.8605 19.7303 49.8508 19.4543 49.5739Z" fill="white"/>
</g>
<g filter="url(#filter3_d_16850_30651)">
<rect x="12.5063" y="11.6543" width="17.3541" height="17.3541" rx="4.39144" fill="#0052D9"/>
<path fill-rule="evenodd" clip-rule="evenodd" d="M19.4543 23.5426L15.7603 19.8369L16.904 18.6931L19.9784 21.7773L25.7768 15.9921L26.9194 17.1347L20.5265 23.513C20.5055 23.534 20.4835 23.5535 20.4606 23.5714C20.1729 23.8292 19.7303 23.8196 19.4543 23.5426Z" fill="white"/>
</g>
<rect x="13.2383" y="64.4487" width="15.8903" height="15.8903" rx="3.65953" fill="white" stroke="#E3E6EB" stroke-width="1.46381"/>
<path fill-rule="evenodd" clip-rule="evenodd" d="M19.4543 75.6051L15.7603 71.8994L16.904 70.7556L19.9784 73.8398L25.7768 68.0546L26.9194 69.1972L20.5265 75.5755C20.5055 75.5965 20.4835 75.616 20.4606 75.6339C20.1729 75.8917 19.7303 75.8821 19.4543 75.6051Z" fill="white"/>
<rect x="13.2383" y="90.48" width="15.8903" height="15.8903" rx="3.65953" fill="white" stroke="#E3E6EB" stroke-width="1.46381"/>
<path fill-rule="evenodd" clip-rule="evenodd" d="M19.4543 101.636L15.7603 97.9306L16.904 96.7869L19.9784 99.8711L25.7768 94.0858L26.9194 95.2284L20.5265 101.607C20.5055 101.628 20.4835 101.647 20.4606 101.665C20.1729 101.923 19.7303 101.913 19.4543 101.636Z" fill="white"/>
<rect x="13.2383" y="116.511" width="15.8903" height="15.8903" rx="3.65953" fill="white" stroke="#E3E6EB" stroke-width="1.46381"/>
<path fill-rule="evenodd" clip-rule="evenodd" d="M19.4543 127.668L15.7603 123.962L16.904 122.818L19.9784 125.902L25.7768 120.117L26.9194 121.26L20.5265 127.638C20.5055 127.659 20.4835 127.678 20.4606 127.696C20.1729 127.954 19.7303 127.945 19.4543 127.668Z" fill="white"/>
<rect x="102.168" y="46.3623" width="23.1388" height="23.1388" rx="4.39144" fill="#EBEDF1"/>
<g filter="url(#filter4_d_16850_30651)">
<rect x="102.168" y="75.2861" width="23.1388" height="23.1388" rx="4.39144" fill="#0052D9"/>
</g>
<path fill-rule="evenodd" clip-rule="evenodd" d="M112.067 91.6904L111.07 90.6934L114.91 86.8534L111.07 83.0134L112.067 82.0163L116.904 86.8534L112.067 91.6904Z" fill="white"/>
<path fill-rule="evenodd" clip-rule="evenodd" d="M115.407 53.0947L116.404 54.0918L112.564 57.9318L116.404 61.7718L115.407 62.7688L110.57 57.9318L115.407 53.0947Z" fill="#BCC4D0"/>
<defs>
<filter id="filter0_d_16850_30651" x="34.1807" y="40.5781" width="49.2055" height="14.497" filterUnits="userSpaceOnUse" color-interpolation-filters="sRGB">
<feFlood flood-opacity="0" result="BackgroundImageFix"/>
<feColorMatrix in="SourceAlpha" type="matrix" values="0 0 0 0 0 0 0 0 0 0 0 0 0 0 0 0 0 0 127 0" result="hardAlpha"/>
<feOffset dy="1.46381"/>
<feGaussianBlur stdDeviation="0.731907"/>
<feColorMatrix type="matrix" values="0 0 0 0 0 0 0 0 0 0 0 0 0 0 0 0 0 0 0.25 0"/>
<feBlend mode="normal" in2="BackgroundImageFix" result="effect1_dropShadow_16850_30651"/>
<feBlend mode="normal" in="SourceGraphic" in2="effect1_dropShadow_16850_30651" result="shape"/>
</filter>
<filter id="filter1_d_16850_30651" x="34.1807" y="14.5469" width="49.2055" height="14.497" filterUnits="userSpaceOnUse" color-interpolation-filters="sRGB">
<feFlood flood-opacity="0" result="BackgroundImageFix"/>
<feColorMatrix in="SourceAlpha" type="matrix" values="0 0 0 0 0 0 0 0 0 0 0 0 0 0 0 0 0 0 127 0" result="hardAlpha"/>
<feOffset dy="1.46381"/>
<feGaussianBlur stdDeviation="0.731907"/>
<feColorMatrix type="matrix" values="0 0 0 0 0 0 0 0 0 0 0 0 0 0 0 0 0 0 0.25 0"/>
<feBlend mode="normal" in2="BackgroundImageFix" result="effect1_dropShadow_16850_30651"/>
<feBlend mode="normal" in="SourceGraphic" in2="effect1_dropShadow_16850_30651" result="shape"/>
</filter>
<filter id="filter2_d_16850_30651" x="11.0425" y="37.6855" width="20.2816" height="20.2821" filterUnits="userSpaceOnUse" color-interpolation-filters="sRGB">
<feFlood flood-opacity="0" result="BackgroundImageFix"/>
<feColorMatrix in="SourceAlpha" type="matrix" values="0 0 0 0 0 0 0 0 0 0 0 0 0 0 0 0 0 0 127 0" result="hardAlpha"/>
<feOffset dy="1.46381"/>
<feGaussianBlur stdDeviation="0.731907"/>
<feColorMatrix type="matrix" values="0 0 0 0 0 0 0 0 0 0 0 0 0 0 0 0 0 0 0.25 0"/>
<feBlend mode="normal" in2="BackgroundImageFix" result="effect1_dropShadow_16850_30651"/>
<feBlend mode="normal" in="SourceGraphic" in2="effect1_dropShadow_16850_30651" result="shape"/>
</filter>
<filter id="filter3_d_16850_30651" x="11.0425" y="11.6543" width="20.2816" height="20.2821" filterUnits="userSpaceOnUse" color-interpolation-filters="sRGB">
<feFlood flood-opacity="0" result="BackgroundImageFix"/>
<feColorMatrix in="SourceAlpha" type="matrix" values="0 0 0 0 0 0 0 0 0 0 0 0 0 0 0 0 0 0 127 0" result="hardAlpha"/>
<feOffset dy="1.46381"/>
<feGaussianBlur stdDeviation="0.731907"/>
<feColorMatrix type="matrix" values="0 0 0 0 0 0 0 0 0 0 0 0 0 0 0 0 0 0 0.25 0"/>
<feBlend mode="normal" in2="BackgroundImageFix" result="effect1_dropShadow_16850_30651"/>
<feBlend mode="normal" in="SourceGraphic" in2="effect1_dropShadow_16850_30651" result="shape"/>
</filter>
<filter id="filter4_d_16850_30651" x="100.704" y="75.2861" width="26.0663" height="26.0663" filterUnits="userSpaceOnUse" color-interpolation-filters="sRGB">
<feFlood flood-opacity="0" result="BackgroundImageFix"/>
<feColorMatrix in="SourceAlpha" type="matrix" values="0 0 0 0 0 0 0 0 0 0 0 0 0 0 0 0 0 0 127 0" result="hardAlpha"/>
<feOffset dy="1.46381"/>
<feGaussianBlur stdDeviation="0.731907"/>
<feColorMatrix type="matrix" values="0 0 0 0 0 0 0 0 0 0 0 0 0 0 0 0 0 0 0.25 0"/>
<feBlend mode="normal" in2="BackgroundImageFix" result="effect1_dropShadow_16850_30651"/>
<feBlend mode="normal" in="SourceGraphic" in2="effect1_dropShadow_16850_30651" result="shape"/>
</filter>
</defs>
</svg>
