<svg width="213" height="30" viewBox="0 0 213 30" fill="none" xmlns="http://www.w3.org/2000/svg">
<rect x="0.539551" y="0.879883" width="162.549" height="29.0266" rx="14.5133" fill="#EBEDF1"/>
<path d="M180.231 14.0089C180.08 14.0089 179.854 14.0226 179.552 14.05L182.37 8.27086H179.984L176.468 15.5102C176.207 16.0861 176.029 16.5728 175.933 16.9705C175.782 17.4915 175.707 18.0125 175.707 18.5335C175.707 19.3562 175.905 20.1171 176.303 20.8164C176.714 21.5019 177.263 22.0504 177.948 22.4617C178.648 22.8593 179.408 23.0581 180.231 23.0581C181.054 23.0581 181.808 22.8593 182.493 22.4617C183.193 22.0504 183.741 21.5019 184.139 20.8164C184.55 20.1171 184.756 19.3562 184.756 18.5335C184.756 17.7108 184.55 16.9567 184.139 16.2712C183.741 15.5719 183.2 15.0235 182.514 14.6259C181.815 14.2146 181.054 14.0089 180.231 14.0089ZM180.231 20.9192C179.573 20.9192 179.011 20.6861 178.545 20.2199C178.079 19.7538 177.845 19.1916 177.845 18.5335C177.845 17.8754 178.079 17.3132 178.545 16.8471C179.011 16.3809 179.573 16.1478 180.231 16.1478C180.889 16.1478 181.451 16.3809 181.918 16.8471C182.384 17.3132 182.617 17.8754 182.617 18.5335C182.617 19.1916 182.384 19.7538 181.918 20.2199C181.451 20.6861 180.889 20.9192 180.231 20.9192Z" fill="#97A3B7"/>
<path d="M195.392 12.3636C195.392 11.5958 195.2 10.8897 194.816 10.2452C194.446 9.60082 193.939 9.09352 193.295 8.72332C192.65 8.33941 191.944 8.14746 191.176 8.14746C190.408 8.14746 189.702 8.33941 189.058 8.72332C188.413 9.09352 187.899 9.60082 187.515 10.2452C187.145 10.8897 186.96 11.5958 186.96 12.3636V18.8214C186.96 19.5892 187.145 20.2954 187.515 20.9398C187.899 21.5842 188.413 22.0984 189.058 22.4823C189.702 22.8525 190.408 23.0375 191.176 23.0375C191.944 23.0375 192.65 22.8525 193.295 22.4823C193.939 22.0984 194.446 21.5842 194.816 20.9398C195.2 20.2954 195.392 19.5892 195.392 18.8214V12.3636ZM193.253 18.698C193.253 19.2739 193.048 19.7812 192.636 20.2199C192.239 20.6587 191.752 20.8781 191.176 20.8781C190.6 20.8781 190.107 20.6587 189.695 20.2199C189.298 19.7812 189.099 19.2739 189.099 18.698V12.2402C189.099 11.6643 189.298 11.157 189.695 10.7183C190.107 10.2795 190.6 10.0601 191.176 10.0601C191.752 10.0601 192.239 10.2795 192.636 10.7183C193.048 11.157 193.253 11.6643 193.253 12.2402V18.698Z" fill="#97A3B7"/>
<path d="M201.237 14.5231C201.813 14.5231 202.341 14.3791 202.82 14.0912C203.314 13.8032 203.705 13.4193 203.993 12.9394C204.281 12.4458 204.425 11.9111 204.425 11.3353C204.425 10.7594 204.281 10.2315 203.993 9.75164C203.705 9.25805 203.314 8.86729 202.82 8.57936C202.341 8.29143 201.813 8.14746 201.237 8.14746C200.661 8.14746 200.126 8.29143 199.633 8.57936C199.153 8.86729 198.769 9.25805 198.481 9.75164C198.193 10.2315 198.049 10.7594 198.049 11.3353C198.049 11.9111 198.193 12.4458 198.481 12.9394C198.769 13.4193 199.153 13.8032 199.633 14.0912C200.126 14.3791 200.661 14.5231 201.237 14.5231ZM210.533 8.27086H208.394L199.941 22.9142H202.08L210.533 8.27086ZM201.237 12.6721C200.867 12.6721 200.551 12.5418 200.291 12.2813C200.03 12.0208 199.9 11.7055 199.9 11.3353C199.9 10.9651 200.03 10.6497 200.291 10.3892C200.551 10.1287 200.867 9.99844 201.237 9.99844C201.607 9.99844 201.922 10.1287 202.183 10.3892C202.443 10.6497 202.574 10.9651 202.574 11.3353C202.574 11.7055 202.443 12.0208 202.183 12.2813C201.922 12.5418 201.607 12.6721 201.237 12.6721ZM209.402 23.0375C209.978 23.0375 210.505 22.8936 210.985 22.6057C211.479 22.3177 211.87 21.9338 212.158 21.4539C212.446 20.9603 212.59 20.4256 212.59 19.8498C212.59 19.2739 212.446 18.746 212.158 18.2661C211.87 17.7725 211.479 17.3818 210.985 17.0939C210.505 16.8059 209.978 16.662 209.402 16.662C208.826 16.662 208.291 16.8059 207.798 17.0939C207.318 17.3818 206.934 17.7725 206.646 18.2661C206.358 18.746 206.214 19.2739 206.214 19.8498C206.214 20.4256 206.358 20.9603 206.646 21.4539C206.934 21.9338 207.318 22.3177 207.798 22.6057C208.291 22.8936 208.826 23.0375 209.402 23.0375ZM209.402 21.1866C209.032 21.1866 208.716 21.0563 208.456 20.7958C208.195 20.5353 208.065 20.2199 208.065 19.8498C208.065 19.4796 208.195 19.1642 208.456 18.9037C208.716 18.6432 209.032 18.5129 209.402 18.5129C209.772 18.5129 210.087 18.6432 210.348 18.9037C210.608 19.1642 210.739 19.4796 210.739 19.8498C210.739 20.2199 210.608 20.5353 210.348 20.7958C210.087 21.0563 209.772 21.1866 209.402 21.1866Z" fill="#97A3B7"/>
<g filter="url(#filter0_d_16850_30675)">
<rect x="3.44189" y="3.78223" width="92.8852" height="23.2213" rx="11.6106" fill="#0052D9"/>
</g>
<defs>
<filter id="filter0_d_16850_30675" x="1.97286" y="3.78223" width="95.8233" height="26.1597" filterUnits="userSpaceOnUse" color-interpolation-filters="sRGB">
<feFlood flood-opacity="0" result="BackgroundImageFix"/>
<feColorMatrix in="SourceAlpha" type="matrix" values="0 0 0 0 0 0 0 0 0 0 0 0 0 0 0 0 0 0 127 0" result="hardAlpha"/>
<feOffset dy="1.46903"/>
<feGaussianBlur stdDeviation="0.734515"/>
<feColorMatrix type="matrix" values="0 0 0 0 0 0 0 0 0 0 0 0 0 0 0 0 0 0 0.25 0"/>
<feBlend mode="normal" in2="BackgroundImageFix" result="effect1_dropShadow_16850_30675"/>
<feBlend mode="normal" in="SourceGraphic" in2="effect1_dropShadow_16850_30675" result="shape"/>
</filter>
</defs>
</svg>
