<svg width="224" height="160" viewBox="0 0 224 160" fill="none" xmlns="http://www.w3.org/2000/svg">
<rect x="0.589355" y="0.933594" width="222.485" height="158.918" rx="4.41389" fill="#F1F2F5"/>
<g filter="url(#filter0_d_16850_30680)">
<rect x="132.43" y="79.6582" width="28.8941" height="23.1153" rx="4.41389" fill="#0052D9"/>
</g>
<path d="M140.119 88.0892V89.7077L142.208 88.6483V96.5786H143.738V86L140.119 88.0892Z" fill="white"/>
<path d="M147.507 91.9588H149.155C149.479 91.7037 149.847 91.5762 150.259 91.5762C150.749 91.5762 151.166 91.7528 151.509 92.1059C151.862 92.4492 152.039 92.8661 152.039 93.3565C152.039 93.8469 151.862 94.2687 151.509 94.6218C151.166 94.9651 150.749 95.1368 150.259 95.1368C149.876 95.1368 149.528 95.0289 149.214 94.8131C148.91 94.5875 148.694 94.2981 148.567 93.945L147.066 94.4747C147.301 95.1417 147.708 95.686 148.287 96.1078C148.866 96.5296 149.523 96.7405 150.259 96.7405C150.867 96.7405 151.431 96.5884 151.951 96.2844C152.47 95.9803 152.882 95.5683 153.186 95.0485C153.49 94.5286 153.643 93.9646 153.643 93.3565C153.643 92.7483 153.49 92.1843 153.186 91.6645C152.882 91.1446 152.47 90.7327 151.951 90.4286C151.431 90.1245 150.867 89.9725 150.259 89.9725C149.905 89.9725 149.582 90.0215 149.287 90.1196L149.729 87.6037H152.951V86.1618H148.522L147.507 91.9588Z" fill="white"/>
<rect x="17.9258" y="12.4932" width="14.4471" height="11.5577" rx="2.94259" fill="#EBEDF1"/>
<rect x="17.9258" y="37.0527" width="14.4471" height="11.5577" rx="2.94259" fill="#EBEDF1"/>
<rect x="17.9258" y="61.6113" width="14.4471" height="11.5577" rx="2.94259" fill="#D6DBE3"/>
<rect x="17.9258" y="86.1719" width="14.4471" height="11.5577" rx="2.94259" fill="#D6DBE3"/>
<rect x="17.9258" y="110.731" width="14.4471" height="11.5577" rx="2.94259" fill="#D6DBE3"/>
<rect x="17.9258" y="135.294" width="14.4471" height="11.5577" rx="2.94259" fill="#D6DBE3"/>
<rect x="48.2646" y="12.4932" width="14.4471" height="11.5577" rx="2.94259" fill="#EBEDF1"/>
<rect x="48.2646" y="37.0527" width="14.4471" height="11.5577" rx="2.94259" fill="#EBEDF1"/>
<rect x="48.2646" y="61.6113" width="14.4471" height="11.5577" rx="2.94259" fill="#D6DBE3"/>
<rect x="48.2646" y="86.1719" width="14.4471" height="11.5577" rx="2.94259" fill="#D6DBE3"/>
<rect x="48.2646" y="110.731" width="14.4471" height="11.5577" rx="2.94259" fill="#D6DBE3"/>
<rect x="48.2646" y="135.294" width="14.4471" height="11.5577" rx="2.94259" fill="#D6DBE3"/>
<rect x="78.604" y="12.4932" width="14.4471" height="11.5577" rx="2.94259" fill="#EBEDF1"/>
<rect x="78.604" y="37.0527" width="14.4471" height="11.5577" rx="2.94259" fill="#EBEDF1"/>
<rect x="78.604" y="61.6113" width="14.4471" height="11.5577" rx="2.94259" fill="#D6DBE3"/>
<rect x="78.604" y="86.1719" width="14.4471" height="11.5577" rx="2.94259" fill="#D6DBE3"/>
<rect x="78.604" y="110.731" width="14.4471" height="11.5577" rx="2.94259" fill="#D6DBE3"/>
<rect x="78.604" y="135.294" width="14.4471" height="11.5577" rx="2.94259" fill="#D6DBE3"/>
<rect x="108.943" y="12.4932" width="14.4471" height="11.5577" rx="2.94259" fill="#EBEDF1"/>
<rect x="108.943" y="37.0527" width="14.4471" height="11.5577" rx="2.94259" fill="#EBEDF1"/>
<rect x="108.943" y="61.6113" width="14.4471" height="11.5577" rx="2.94259" fill="#D6DBE3"/>
<rect x="108.943" y="86.1719" width="14.4471" height="11.5577" rx="2.94259" fill="#D6DBE3"/>
<rect x="108.943" y="110.731" width="14.4471" height="11.5577" rx="2.94259" fill="#D6DBE3"/>
<rect x="108.943" y="135.294" width="14.4471" height="11.5577" rx="2.94259" fill="#EBEDF1"/>
<rect x="139.282" y="12.4932" width="14.4471" height="11.5577" rx="2.94259" fill="#EBEDF1"/>
<rect x="139.282" y="37.0527" width="14.4471" height="11.5577" rx="2.94259" fill="#D6DBE3"/>
<rect x="139.282" y="61.6113" width="14.4471" height="11.5577" rx="2.94259" fill="#D6DBE3"/>
<rect x="169.62" y="12.4932" width="14.4471" height="11.5577" rx="2.94259" fill="#EBEDF1"/>
<rect x="169.62" y="37.0527" width="14.4471" height="11.5577" rx="2.94259" fill="#D6DBE3"/>
<rect x="169.62" y="61.6113" width="14.4471" height="11.5577" rx="2.94259" fill="#D6DBE3"/>
<rect x="169.62" y="86.1719" width="14.4471" height="11.5577" rx="2.94259" fill="#D6DBE3"/>
<rect x="169.62" y="110.731" width="14.4471" height="11.5577" rx="2.94259" fill="#D6DBE3"/>
<rect x="139.282" y="110.731" width="14.4471" height="11.5577" rx="2.94259" fill="#D6DBE3"/>
<rect x="139.282" y="135.294" width="14.4471" height="11.5577" rx="2.94259" fill="#EBEDF1"/>
<rect x="199.958" y="12.4932" width="14.4471" height="11.5577" rx="2.94259" fill="#EBEDF1"/>
<rect x="199.958" y="37.0527" width="14.4471" height="11.5577" rx="2.94259" fill="#D6DBE3"/>
<rect x="199.958" y="61.6113" width="14.4471" height="11.5577" rx="2.94259" fill="#D6DBE3"/>
<rect x="199.958" y="86.1719" width="14.4471" height="11.5577" rx="2.94259" fill="#D6DBE3"/>
<rect x="199.958" y="110.731" width="14.4471" height="11.5577" rx="2.94259" fill="#D6DBE3"/>
<defs>
<filter id="filter0_d_16850_30680" x="130.958" y="79.6582" width="31.8366" height="26.0578" filterUnits="userSpaceOnUse" color-interpolation-filters="sRGB">
<feFlood flood-opacity="0" result="BackgroundImageFix"/>
<feColorMatrix in="SourceAlpha" type="matrix" values="0 0 0 0 0 0 0 0 0 0 0 0 0 0 0 0 0 0 127 0" result="hardAlpha"/>
<feOffset dy="1.4713"/>
<feGaussianBlur stdDeviation="0.735648"/>
<feColorMatrix type="matrix" values="0 0 0 0 0 0 0 0 0 0 0 0 0 0 0 0 0 0 0.25 0"/>
<feBlend mode="normal" in2="BackgroundImageFix" result="effect1_dropShadow_16850_30680"/>
<feBlend mode="normal" in="SourceGraphic" in2="effect1_dropShadow_16850_30680" result="shape"/>
</filter>
</defs>
</svg>
