<svg width="88" height="103" viewBox="0 0 88 103" fill="none" xmlns="http://www.w3.org/2000/svg">
<rect x="0.679932" y="17.1738" width="68.2872" height="68.2872" rx="8.64" fill="#F1F2F5"/>
<g filter="url(#filter0_d_16850_30468)">
<circle cx="68.9674" cy="17.1734" r="17.0718" fill="#E34D59"/>
<path d="M60.5659 12.9321V15.1497L63.4286 13.6981V24.5644H65.5252V10.0693L60.5659 12.9321Z" fill="white"/>
<path d="M74.5202 15.8351C74.3724 15.8351 74.1506 15.8485 73.8549 15.8754L76.6169 10.2105H74.2783L70.831 17.3068C70.5756 17.8713 70.4009 18.3484 70.3068 18.7381C70.1589 19.2489 70.085 19.7596 70.085 20.2703C70.085 21.0767 70.2799 21.8226 70.6697 22.5081C71.0729 23.1801 71.6105 23.7177 72.2825 24.1209C72.9679 24.5106 73.7138 24.7055 74.5202 24.7055C75.3266 24.7055 76.0658 24.5106 76.7378 24.1209C77.4233 23.7177 77.9609 23.1801 78.3506 22.5081C78.7538 21.8226 78.9554 21.0767 78.9554 20.2703C78.9554 19.4639 78.7538 18.7247 78.3506 18.0527C77.9609 17.3673 77.43 16.8297 76.758 16.4399C76.0726 16.0367 75.3266 15.8351 74.5202 15.8351ZM74.5202 22.6089C73.8751 22.6089 73.3241 22.3804 72.8671 21.9234C72.4101 21.4665 72.1817 20.9154 72.1817 20.2703C72.1817 19.6252 72.4101 19.0741 72.8671 18.6172C73.3241 18.1602 73.8751 17.9317 74.5202 17.9317C75.1654 17.9317 75.7164 18.1602 76.1734 18.6172C76.6303 19.0741 76.8588 19.6252 76.8588 20.2703C76.8588 20.9154 76.6303 21.4665 76.1734 21.9234C75.7164 22.3804 75.1654 22.6089 74.5202 22.6089Z" fill="white"/>
</g>
<defs>
<filter id="filter0_d_16850_30468" x="50.4556" y="0.101562" width="37.0236" height="37.0236" filterUnits="userSpaceOnUse" color-interpolation-filters="sRGB">
<feFlood flood-opacity="0" result="BackgroundImageFix"/>
<feColorMatrix in="SourceAlpha" type="matrix" values="0 0 0 0 0 0 0 0 0 0 0 0 0 0 0 0 0 0 127 0" result="hardAlpha"/>
<feOffset dy="1.44"/>
<feGaussianBlur stdDeviation="0.72"/>
<feColorMatrix type="matrix" values="0 0 0 0 0 0 0 0 0 0 0 0 0 0 0 0 0 0 0.25 0"/>
<feBlend mode="normal" in2="BackgroundImageFix" result="effect1_dropShadow_16850_30468"/>
<feBlend mode="normal" in="SourceGraphic" in2="effect1_dropShadow_16850_30468" result="shape"/>
</filter>
</defs>
</svg>
