<svg width="203" height="146" viewBox="0 0 203 146" fill="none" xmlns="http://www.w3.org/2000/svg">
<rect x="1.61171" y="2.13026" width="199.43" height="34.7126" rx="5.85004" fill="white" stroke="#D4E3FC" stroke-width="2.92502"/>
<rect x="3.80547" y="4.32403" width="195.042" height="30.325" rx="3.65627" fill="white" stroke="#0052D9" stroke-width="1.46251"/>
<path fill-rule="evenodd" clip-rule="evenodd" d="M183.543 21.4351L182.381 22.5972L177.905 18.1212L173.429 22.5972L172.267 21.4351L177.905 15.7969L183.543 21.4351Z" fill="#0052D9"/>
<rect x="14.6328" y="13.707" width="23.1182" height="11.5591" rx="2.92502" fill="#EBEDF1"/>
<rect x="43.5303" y="13.707" width="23.1182" height="11.5591" rx="2.92502" fill="#EBEDF1"/>
<rect x="72.4292" y="13.707" width="23.1182" height="11.5591" rx="2.92502" fill="#EBEDF1"/>
<rect x="3.07422" y="41.1602" width="196.505" height="104.032" rx="4.38753" fill="#F1F2F5"/>
<rect x="8.85449" y="78.7256" width="184.946" height="28.8978" rx="2.92502" fill="#E3E6EB"/>
<g filter="url(#filter0_d_16850_30724)">
<rect x="37.752" y="87.3955" width="147.379" height="11.5591" rx="2.92502" fill="#0052D9"/>
</g>
<rect x="37.752" y="119.185" width="147.379" height="11.5591" rx="2.92502" fill="#E3E6EB"/>
<rect x="37.752" y="55.6084" width="147.379" height="11.5591" rx="2.92502" fill="#E3E6EB"/>
<g filter="url(#filter1_d_16850_30724)">
<rect x="14.6328" y="84.5068" width="17.3387" height="17.3387" rx="4.38753" fill="#0052D9"/>
<path fill-rule="evenodd" clip-rule="evenodd" d="M21.5745 96.3846L17.8838 92.6822L19.0265 91.5394L22.0982 94.6209L27.8915 88.8408L29.033 89.9824L22.6458 96.355C22.6248 96.376 22.6028 96.3955 22.58 96.4133C22.2925 96.671 21.8503 96.6613 21.5745 96.3846Z" fill="white"/>
</g>
<rect x="15.3641" y="53.451" width="15.8762" height="15.8762" rx="3.65627" fill="white" stroke="#DCDCDC" stroke-width="1.46251"/>
<path fill-rule="evenodd" clip-rule="evenodd" d="M21.5745 64.5975L17.8838 60.8951L19.0265 59.7523L22.0982 62.8338L27.8915 57.0537L29.033 58.1952L22.6458 64.5679C22.6248 64.5889 22.6028 64.6083 22.58 64.6262C22.2925 64.8839 21.8503 64.8742 21.5745 64.5975Z" fill="white"/>
<rect x="15.3641" y="117.025" width="15.8762" height="15.8762" rx="3.65627" fill="white" stroke="#DCDCDC" stroke-width="1.46251"/>
<path fill-rule="evenodd" clip-rule="evenodd" d="M21.5745 128.172L17.8838 124.469L19.0265 123.327L22.0982 126.408L27.8915 120.628L29.033 121.769L22.6458 128.142C22.6248 128.163 22.6028 128.183 22.58 128.2C22.2925 128.458 21.8503 128.448 21.5745 128.172Z" fill="white"/>
<defs>
<filter id="filter0_d_16850_30724" x="36.2894" y="87.3955" width="150.304" height="14.4846" filterUnits="userSpaceOnUse" color-interpolation-filters="sRGB">
<feFlood flood-opacity="0" result="BackgroundImageFix"/>
<feColorMatrix in="SourceAlpha" type="matrix" values="0 0 0 0 0 0 0 0 0 0 0 0 0 0 0 0 0 0 127 0" result="hardAlpha"/>
<feOffset dy="1.46251"/>
<feGaussianBlur stdDeviation="0.731255"/>
<feColorMatrix type="matrix" values="0 0 0 0 0 0 0 0 0 0 0 0 0 0 0 0 0 0 0.25 0"/>
<feBlend mode="normal" in2="BackgroundImageFix" result="effect1_dropShadow_16850_30724"/>
<feBlend mode="normal" in="SourceGraphic" in2="effect1_dropShadow_16850_30724" result="shape"/>
</filter>
<filter id="filter1_d_16850_30724" x="13.1703" y="84.5068" width="20.2639" height="20.2639" filterUnits="userSpaceOnUse" color-interpolation-filters="sRGB">
<feFlood flood-opacity="0" result="BackgroundImageFix"/>
<feColorMatrix in="SourceAlpha" type="matrix" values="0 0 0 0 0 0 0 0 0 0 0 0 0 0 0 0 0 0 127 0" result="hardAlpha"/>
<feOffset dy="1.46251"/>
<feGaussianBlur stdDeviation="0.731255"/>
<feColorMatrix type="matrix" values="0 0 0 0 0 0 0 0 0 0 0 0 0 0 0 0 0 0 0.25 0"/>
<feBlend mode="normal" in2="BackgroundImageFix" result="effect1_dropShadow_16850_30724"/>
<feBlend mode="normal" in="SourceGraphic" in2="effect1_dropShadow_16850_30724" result="shape"/>
</filter>
</defs>
</svg>
