<svg width="200" height="62" viewBox="0 0 200 62" fill="none" xmlns="http://www.w3.org/2000/svg">
<g filter="url(#filter0_d_16850_30474)">
<rect x="2.03918" y="0.592773" width="57.6" height="57.6" rx="8.64" fill="#F1F2F5"/>
</g>
<path fill-rule="evenodd" clip-rule="evenodd" d="M24.2999 21.0269L15.058 22.3714L14.7508 22.4333C12.7649 22.9498 12.0355 25.4891 13.5617 26.9768L20.2472 33.4955L18.6702 42.6991L18.635 42.9964C18.5016 45.052 20.697 46.5394 22.5877 45.5453L30.8528 41.1986L39.1191 45.5453L39.391 45.6707C41.3048 46.4327 43.3978 44.8045 43.0367 42.6991L41.4557 33.4928L48.1452 26.9768L48.3573 26.7461C49.6604 25.161 48.7579 22.6779 46.6488 22.3714L37.403 21.0269L33.2746 12.6545C32.2842 10.6477 29.4226 10.6477 28.4322 12.6545L24.2999 21.0269Z" fill="#D6DBE3"/>
<g filter="url(#filter1_d_16850_30474)">
<rect x="71.1599" y="0.592773" width="57.6" height="57.6" rx="8.64" fill="#F1F2F5"/>
</g>
<path fill-rule="evenodd" clip-rule="evenodd" d="M85.3358 41.0928C84.5281 41.0928 83.8733 40.438 83.8733 39.6303C83.8733 38.8226 84.5281 38.1678 85.3358 38.1678L86.7983 38.1648V27.9292C86.7983 21.1548 91.9176 15.5751 98.4992 14.848L98.4983 11.8428H101.423L101.426 14.8484C107.804 15.5549 112.808 20.8186 113.109 27.3107L113.123 27.9292V38.1678H114.586C115.394 38.1678 116.048 38.8226 116.048 39.6303C116.048 40.438 115.394 41.0928 114.586 41.0928L107.273 41.0944C106.581 44.4313 103.57 46.9428 99.9609 46.9428C96.3514 46.9428 93.3404 44.4313 92.6484 41.0944L85.3358 41.0928Z" fill="#D6DBE3"/>
<g filter="url(#filter2_d_16850_30474)">
<rect x="140.277" y="0.592773" width="57.6" height="57.6" rx="8.64" fill="#F1F2F5"/>
</g>
<path fill-rule="evenodd" clip-rule="evenodd" d="M186.629 29.3928C186.629 19.7002 178.771 11.8428 169.079 11.8428C159.386 11.8428 151.529 19.7002 151.529 29.3928C151.529 39.0854 159.386 46.9428 169.079 46.9428C178.771 46.9428 186.629 39.0854 186.629 29.3928ZM167.729 30.7428V18.5928H170.429V29.4837L177.737 35.6166L176.002 37.6849L167.729 30.7428Z" fill="#D6DBE3"/>
<defs>
<filter id="filter0_d_16850_30474" x="0.599185" y="0.592773" width="60.48" height="60.4796" filterUnits="userSpaceOnUse" color-interpolation-filters="sRGB">
<feFlood flood-opacity="0" result="BackgroundImageFix"/>
<feColorMatrix in="SourceAlpha" type="matrix" values="0 0 0 0 0 0 0 0 0 0 0 0 0 0 0 0 0 0 127 0" result="hardAlpha"/>
<feOffset dy="1.44"/>
<feGaussianBlur stdDeviation="0.72"/>
<feColorMatrix type="matrix" values="0 0 0 0 0 0 0 0 0 0 0 0 0 0 0 0 0 0 0.25 0"/>
<feBlend mode="normal" in2="BackgroundImageFix" result="effect1_dropShadow_16850_30474"/>
<feBlend mode="normal" in="SourceGraphic" in2="effect1_dropShadow_16850_30474" result="shape"/>
</filter>
<filter id="filter1_d_16850_30474" x="69.7199" y="0.592773" width="60.48" height="60.4796" filterUnits="userSpaceOnUse" color-interpolation-filters="sRGB">
<feFlood flood-opacity="0" result="BackgroundImageFix"/>
<feColorMatrix in="SourceAlpha" type="matrix" values="0 0 0 0 0 0 0 0 0 0 0 0 0 0 0 0 0 0 127 0" result="hardAlpha"/>
<feOffset dy="1.44"/>
<feGaussianBlur stdDeviation="0.72"/>
<feColorMatrix type="matrix" values="0 0 0 0 0 0 0 0 0 0 0 0 0 0 0 0 0 0 0.25 0"/>
<feBlend mode="normal" in2="BackgroundImageFix" result="effect1_dropShadow_16850_30474"/>
<feBlend mode="normal" in="SourceGraphic" in2="effect1_dropShadow_16850_30474" result="shape"/>
</filter>
<filter id="filter2_d_16850_30474" x="138.837" y="0.592773" width="60.48" height="60.4796" filterUnits="userSpaceOnUse" color-interpolation-filters="sRGB">
<feFlood flood-opacity="0" result="BackgroundImageFix"/>
<feColorMatrix in="SourceAlpha" type="matrix" values="0 0 0 0 0 0 0 0 0 0 0 0 0 0 0 0 0 0 127 0" result="hardAlpha"/>
<feOffset dy="1.44"/>
<feGaussianBlur stdDeviation="0.72"/>
<feColorMatrix type="matrix" values="0 0 0 0 0 0 0 0 0 0 0 0 0 0 0 0 0 0 0.25 0"/>
<feBlend mode="normal" in2="BackgroundImageFix" result="effect1_dropShadow_16850_30474"/>
<feBlend mode="normal" in="SourceGraphic" in2="effect1_dropShadow_16850_30474" result="shape"/>
</filter>
</defs>
</svg>
