<svg width="204" height="23" viewBox="0 0 204 23" fill="none" xmlns="http://www.w3.org/2000/svg">
<path d="M36.584 7.15178V9.36938L39.4467 7.91786V18.7841H41.5433V4.28906L36.584 7.15178Z" fill="#E3E6EB"/>
<rect x="65.124" y="4.52148" width="2.8453" height="14.2265" rx="1.42265" transform="rotate(30 65.124 4.52148)" fill="#E3E6EB"/>
<rect x="144.792" y="4.52148" width="2.8453" height="14.2265" rx="1.42265" transform="rotate(30 144.792 4.52148)" fill="#E3E6EB"/>
<path d="M117.301 8.3406C117.341 7.96428 117.469 7.62156 117.684 7.31244C117.899 7.0302 118.161 6.80843 118.47 6.64715C118.779 6.48587 119.102 6.40523 119.438 6.40523C119.882 6.40523 120.291 6.53291 120.668 6.78827C120.95 7.00331 121.172 7.26539 121.333 7.57451C121.494 7.88363 121.575 8.20619 121.575 8.54219C121.575 8.98571 121.447 9.39563 121.192 9.77195L114.882 18.7835H123.853V16.8078H118.813L122.906 10.9614C123.416 10.2356 123.672 9.43595 123.672 8.56235C123.672 7.87691 123.51 7.22507 123.188 6.60683C122.879 5.98859 122.435 5.47787 121.857 5.07468C121.131 4.56395 120.332 4.30859 119.458 4.30859C118.773 4.30859 118.121 4.46987 117.503 4.79244C116.884 5.10156 116.374 5.54507 115.97 6.12299C115.54 6.71435 115.292 7.38635 115.225 8.13899L117.301 8.3406Z" fill="#E3E6EB"/>
<path d="M199.308 10.1956C200.047 10.2628 200.719 10.5047 201.324 10.9213C201.942 11.338 202.426 11.8689 202.775 12.514C203.138 13.1591 203.32 13.858 203.32 14.6106C203.32 15.417 203.118 16.1629 202.715 16.8484C202.325 17.5204 201.788 18.058 201.102 18.4612C200.43 18.8509 199.691 19.0458 198.885 19.0458C197.877 19.0458 196.976 18.7367 196.183 18.1185C195.39 17.5002 194.866 16.7207 194.611 15.7799L196.627 15.2356C196.761 15.7329 197.037 16.1428 197.453 16.4653C197.883 16.7879 198.36 16.9492 198.885 16.9492C199.53 16.9492 200.081 16.7207 200.538 16.2637C200.995 15.8068 201.223 15.2557 201.223 14.6106C201.223 13.9655 200.995 13.4145 200.538 12.9575C200.081 12.5005 199.53 12.2721 198.885 12.2721H197.09L195.941 11.1229L199.812 6.52646H194.893V4.55078H202.654V6.2039L199.308 10.1956Z" fill="#0052D9"/>
<rect x="0.202881" y="2.85645" width="28.453" height="17.0718" rx="2.88" fill="#EBEDF1"/>
<rect x="79.8712" y="2.85645" width="28.453" height="17.0718" rx="2.88" fill="#EBEDF1"/>
<g filter="url(#filter0_d_16850_30491)">
<rect x="159.539" y="2.85645" width="28.453" height="17.0718" rx="2.88" fill="#0052D9"/>
</g>
<defs>
<filter id="filter0_d_16850_30491" x="158.099" y="2.85645" width="31.333" height="19.9523" filterUnits="userSpaceOnUse" color-interpolation-filters="sRGB">
<feFlood flood-opacity="0" result="BackgroundImageFix"/>
<feColorMatrix in="SourceAlpha" type="matrix" values="0 0 0 0 0 0 0 0 0 0 0 0 0 0 0 0 0 0 127 0" result="hardAlpha"/>
<feOffset dy="1.44"/>
<feGaussianBlur stdDeviation="0.72"/>
<feColorMatrix type="matrix" values="0 0 0 0 0 0 0 0 0 0 0 0 0 0 0 0 0 0 0.25 0"/>
<feBlend mode="normal" in2="BackgroundImageFix" result="effect1_dropShadow_16850_30491"/>
<feBlend mode="normal" in="SourceGraphic" in2="effect1_dropShadow_16850_30491" result="shape"/>
</filter>
</defs>
</svg>
