<svg width="200" height="129" viewBox="0 0 200 129" fill="none" xmlns="http://www.w3.org/2000/svg">
<rect x="0.319946" y="0.0195312" width="198.968" height="35.1121" rx="4.44253" fill="#D4E3FC"/>
<rect x="0.319702" y="46.8369" width="198.968" height="35.1121" rx="4.44253" fill="#BCEBDC"/>
<rect x="0.319702" y="93.6533" width="198.968" height="35.1121" rx="4.44253" fill="#F9D7D9"/>
<path fill-rule="evenodd" clip-rule="evenodd" d="M27.9335 17.5755C27.9335 13.6365 24.7403 10.4434 20.8013 10.4434C16.8624 10.4434 13.6692 13.6365 13.6692 17.5755C13.6692 21.5145 16.8624 24.7076 20.8013 24.7076C24.7403 24.7076 27.9335 21.5145 27.9335 17.5755ZM20.2527 14.8324V13.7351H21.35V14.8324H20.2527ZM19.1554 15.9296H21.35V20.3186H22.4472V21.4159H20.2527V17.0269H19.1554V15.9296Z" fill="#0052D9"/>
<path fill-rule="evenodd" clip-rule="evenodd" d="M27.9335 64.3929C27.9335 60.4539 24.7403 57.2607 20.8013 57.2607C16.8624 57.2607 13.6692 60.4539 13.6692 64.3929C13.6692 68.3318 16.8624 71.525 20.8013 71.525C24.7403 71.525 27.9335 68.3318 27.9335 64.3929ZM23.8679 61.677L24.6438 62.4529L19.9885 67.1081L16.885 64.0046L17.6609 63.2287L19.9885 65.5563L23.8679 61.677Z" fill="#00A870"/>
<path fill-rule="evenodd" clip-rule="evenodd" d="M27.9335 111.209C27.9335 107.27 24.7403 104.077 20.8013 104.077C16.8624 104.077 13.6692 107.27 13.6692 111.209C13.6692 115.148 16.8624 118.341 20.8013 118.341C24.7403 118.341 27.9335 115.148 27.9335 111.209ZM20.2527 112.855V107.369H21.35V112.855H20.2527ZM20.2527 115.05V113.952H21.35V115.05H20.2527Z" fill="#E34D59"/>
<rect x="35.4319" y="11.7246" width="93.6321" height="11.704" rx="4.44253" fill="#BBD3FB"/>
<rect x="35.4319" y="58.541" width="93.6321" height="11.704" rx="4.44253" fill="#85DBBE"/>
<rect x="35.4319" y="105.356" width="93.6321" height="11.704" rx="4.44253" fill="#F8B9BE"/>
<path d="M178.806 18.5847L182.181 21.9598L183.19 20.9511L179.815 17.5761L183.19 14.201L182.181 13.1924L178.806 16.5674L175.431 13.1924L174.422 14.201L177.798 17.5761L174.422 20.9512L175.431 21.9598L178.806 18.5847Z" fill="black" fill-opacity="0.26"/>
<path d="M178.806 112.219L182.181 115.594L183.19 114.585L179.815 111.21L183.19 107.835L182.181 106.826L178.806 110.201L175.431 106.826L174.422 107.835L177.798 111.21L174.422 114.585L175.431 115.594L178.806 112.219Z" fill="black" fill-opacity="0.26"/>
<path d="M178.806 65.4021L182.181 68.7771L183.19 67.7685L179.815 64.3935L183.19 61.0184L182.181 60.0098L178.806 63.3848L175.431 60.0098L174.422 61.0184L177.798 64.3935L174.422 67.7685L175.431 68.7772L178.806 65.4021Z" fill="black" fill-opacity="0.26"/>
</svg>
