<svg width="234" height="38" viewBox="0 0 234 38" fill="none" xmlns="http://www.w3.org/2000/svg">
<rect x="31.587" y="0.321289" width="34.1436" height="34.1436" rx="4.32" fill="#EBEDF1"/>
<g filter="url(#filter0_d_16850_30518)">
<rect x="77.1116" y="0.321289" width="34.1436" height="34.1436" rx="4.32" fill="#0052D9"/>
</g>
<rect x="122.636" y="0.321289" width="34.1436" height="34.1436" rx="4.32" fill="#EBEDF1"/>
<rect x="168.161" y="0.321289" width="34.1436" height="34.1436" rx="4.32" fill="#EBEDF1"/>
<path d="M45.5117 13.1518V15.3694L48.3744 13.9179V24.7841H50.4711V10.2891L45.5117 13.1518Z" fill="#BCC4D0"/>
<path d="M92.0844 14.3406C92.1247 13.9643 92.2524 13.6216 92.4674 13.3124C92.6824 13.0302 92.9445 12.8084 93.2536 12.6472C93.5628 12.4859 93.8853 12.4052 94.2213 12.4052C94.6648 12.4052 95.0748 12.5329 95.4511 12.7883C95.7333 13.0033 95.9551 13.2654 96.1164 13.5745C96.2776 13.8836 96.3583 14.2062 96.3583 14.5422C96.3583 14.9857 96.2306 15.3956 95.9752 15.772L89.6652 24.7835H98.6364V22.8078H93.5964L97.6888 16.9614C98.1996 16.2356 98.4549 15.436 98.4549 14.5624C98.4549 13.8769 98.2936 13.2251 97.9711 12.6068C97.662 11.9886 97.2184 11.4779 96.6405 11.0747C95.9148 10.564 95.1151 10.3086 94.2415 10.3086C93.556 10.3086 92.9042 10.4699 92.286 10.7924C91.6677 11.1016 91.157 11.5451 90.7538 12.123C90.3237 12.7144 90.0751 13.3864 90.0079 14.139L92.0844 14.3406Z" fill="white"/>
<path d="M185.211 19.0794C185.358 19.0794 185.58 19.0659 185.876 19.0391L183.114 24.704H185.453L188.9 17.6077C189.128 17.1507 189.303 16.6736 189.424 16.1763C189.572 15.6522 189.646 15.1415 189.646 14.6442C189.646 13.8378 189.444 13.0986 189.041 12.4266C188.651 11.7411 188.114 11.2035 187.428 10.8138C186.756 10.4106 186.017 10.209 185.211 10.209C184.404 10.209 183.658 10.4106 182.973 10.8138C182.301 11.2035 181.763 11.7411 181.36 12.4266C180.97 13.0986 180.775 13.8378 180.775 14.6442C180.775 15.4506 180.97 16.1965 181.36 16.8819C181.763 17.5539 182.301 18.0848 182.973 18.4746C183.658 18.8778 184.404 19.0794 185.211 19.0794ZM185.211 12.3056C185.856 12.3056 186.407 12.5341 186.864 12.9911C187.321 13.448 187.549 13.9991 187.549 14.6442C187.549 15.2893 187.321 15.8403 186.864 16.2973C186.407 16.7543 185.856 16.9827 185.211 16.9827C184.565 16.9827 184.014 16.7543 183.557 16.2973C183.101 15.8403 182.872 15.2893 182.872 14.6442C182.872 13.9991 183.101 13.448 183.557 12.9911C184.014 12.5341 184.565 12.3056 185.211 12.3056Z" fill="#BCC4D0"/>
<path fill-rule="evenodd" clip-rule="evenodd" d="M13.8596 11.0479L15.1674 12.3556L10.1306 17.3923L15.1674 22.4291L13.8596 23.7368L7.51514 17.3923L13.8596 11.0479Z" fill="#BCC4D0"/>
<path fill-rule="evenodd" clip-rule="evenodd" d="M220.031 23.7373L218.723 22.4295L223.76 17.3928L218.723 12.3561L220.031 11.0483L226.376 17.3928L220.031 23.7373Z" fill="#BCC4D0"/>
<path d="M131.172 17.3934C131.172 16.6076 131.809 15.9707 132.595 15.9707C133.381 15.9707 134.018 16.6076 134.018 17.3934C134.018 18.1791 133.381 18.816 132.595 18.816C131.809 18.816 131.172 18.1791 131.172 17.3934Z" fill="#BCC4D0"/>
<path d="M138.286 17.3934C138.286 16.6076 138.923 15.9707 139.708 15.9707C140.494 15.9707 141.131 16.6076 141.131 17.3934C141.131 18.1791 140.494 18.816 139.708 18.816C138.923 18.816 138.286 18.1791 138.286 17.3934Z" fill="#BCC4D0"/>
<path d="M146.822 15.9707C146.036 15.9707 145.399 16.6076 145.399 17.3934C145.399 18.1791 146.036 18.816 146.822 18.816C147.607 18.816 148.244 18.1791 148.244 17.3934C148.244 16.6076 147.607 15.9707 146.822 15.9707Z" fill="#BCC4D0"/>
<defs>
<filter id="filter0_d_16850_30518" x="75.6716" y="0.321289" width="37.0236" height="37.0236" filterUnits="userSpaceOnUse" color-interpolation-filters="sRGB">
<feFlood flood-opacity="0" result="BackgroundImageFix"/>
<feColorMatrix in="SourceAlpha" type="matrix" values="0 0 0 0 0 0 0 0 0 0 0 0 0 0 0 0 0 0 127 0" result="hardAlpha"/>
<feOffset dy="1.44"/>
<feGaussianBlur stdDeviation="0.72"/>
<feColorMatrix type="matrix" values="0 0 0 0 0 0 0 0 0 0 0 0 0 0 0 0 0 0 0.25 0"/>
<feBlend mode="normal" in2="BackgroundImageFix" result="effect1_dropShadow_16850_30518"/>
<feBlend mode="normal" in="SourceGraphic" in2="effect1_dropShadow_16850_30518" result="shape"/>
</filter>
</defs>
</svg>
