<svg width="183" height="117" viewBox="0 0 183 117" fill="none" xmlns="http://www.w3.org/2000/svg">
<circle cx="18.771" cy="17.1363" r="17.0718" fill="#EBEDF1"/>
<path d="M15.6248 12.894V15.1116L18.4875 13.66V24.5263H20.5841V10.0312L15.6248 12.894Z" fill="#BCC4D0"/>
<g filter="url(#filter0_d_16850_30541)">
<circle cx="18.771" cy="96.8042" r="17.0718" fill="#0052D9"/>
</g>
<path d="M16.6736 93.7517C16.7139 93.3754 16.8416 93.0327 17.0566 92.7236C17.2717 92.4413 17.5338 92.2196 17.8429 92.0583C18.152 91.897 18.4746 91.8164 18.8106 91.8164C19.2541 91.8164 19.664 91.944 20.0403 92.1994C20.3226 92.4144 20.5443 92.6765 20.7056 92.9856C20.8669 93.2948 20.9475 93.6173 20.9475 93.9533C20.9475 94.3968 20.8198 94.8068 20.5645 95.1831L14.2544 104.195H23.2256V102.219H18.1856L22.2781 96.3725C22.7888 95.6468 23.0442 94.8471 23.0442 93.9735C23.0442 93.288 22.8829 92.6362 22.5603 92.018C22.2512 91.3997 21.8077 90.889 21.2298 90.4858C20.504 89.9751 19.7043 89.7197 18.8307 89.7197C18.1453 89.7197 17.4934 89.881 16.8752 90.2036C16.257 90.5127 15.7462 90.9562 15.343 91.5341C14.913 92.1255 14.6643 92.7975 14.5971 93.5501L16.6736 93.7517Z" fill="white"/>
<rect x="44.3789" y="11.4453" width="136.574" height="11.3812" rx="2.88" fill="#EBEDF1"/>
<g filter="url(#filter1_d_16850_30541)">
<rect x="44.3789" y="91.1133" width="136.574" height="11.3812" rx="2.88" fill="#0052D9"/>
</g>
<rect x="44.3789" y="28.5166" width="93.8949" height="8.5359" rx="2.88" fill="#EBEDF1"/>
<rect x="44.3789" y="108.186" width="93.8949" height="8.5359" rx="2.88" fill="#EBEDF1"/>
<rect x="17.3494" y="45.5889" width="2.8453" height="22.7624" rx="1.42265" fill="#0052D9"/>
<defs>
<filter id="filter0_d_16850_30541" x="0.259219" y="79.7324" width="37.0236" height="37.0236" filterUnits="userSpaceOnUse" color-interpolation-filters="sRGB">
<feFlood flood-opacity="0" result="BackgroundImageFix"/>
<feColorMatrix in="SourceAlpha" type="matrix" values="0 0 0 0 0 0 0 0 0 0 0 0 0 0 0 0 0 0 127 0" result="hardAlpha"/>
<feOffset dy="1.44"/>
<feGaussianBlur stdDeviation="0.72"/>
<feColorMatrix type="matrix" values="0 0 0 0 0 0 0 0 0 0 0 0 0 0 0 0 0 0 0.25 0"/>
<feBlend mode="normal" in2="BackgroundImageFix" result="effect1_dropShadow_16850_30541"/>
<feBlend mode="normal" in="SourceGraphic" in2="effect1_dropShadow_16850_30541" result="shape"/>
</filter>
<filter id="filter1_d_16850_30541" x="42.9389" y="91.1133" width="139.454" height="14.2609" filterUnits="userSpaceOnUse" color-interpolation-filters="sRGB">
<feFlood flood-opacity="0" result="BackgroundImageFix"/>
<feColorMatrix in="SourceAlpha" type="matrix" values="0 0 0 0 0 0 0 0 0 0 0 0 0 0 0 0 0 0 127 0" result="hardAlpha"/>
<feOffset dy="1.44"/>
<feGaussianBlur stdDeviation="0.72"/>
<feColorMatrix type="matrix" values="0 0 0 0 0 0 0 0 0 0 0 0 0 0 0 0 0 0 0.25 0"/>
<feBlend mode="normal" in2="BackgroundImageFix" result="effect1_dropShadow_16850_30541"/>
<feBlend mode="normal" in="SourceGraphic" in2="effect1_dropShadow_16850_30541" result="shape"/>
</filter>
</defs>
</svg>
