<svg width="40" height="40" viewBox="0 0 40 40" fill="none" xmlns="http://www.w3.org/2000/svg">
<path d="M30.9669 35H9.89119C9.78793 35.0018 9.68558 34.9806 9.59155 34.9379C9.49752 34.8952 9.41418 34.8321 9.34758 34.7532C9.28098 34.6742 9.23279 34.5815 9.2065 34.4816C9.18022 34.3817 9.1765 34.2773 9.19562 34.1758L10.3781 27.5018H32.0415C32.1448 27.5 32.2471 27.5213 32.3411 27.564C32.4352 27.6067 32.5185 27.6698 32.5851 27.7487C32.6517 27.8276 32.6999 27.9204 32.7262 28.0202C32.7525 28.1201 32.7562 28.2246 32.7371 28.3261L31.6589 34.4192C31.6316 34.5826 31.5469 34.7308 31.42 34.8373C31.2932 34.9438 31.1325 35.0015 30.9669 35V35Z" fill="url(#paint0_linear_65_49)"/>
<path d="M34.935 12.5018H13.0247L14.2454 5.5809C14.2728 5.41695 14.358 5.26824 14.4856 5.16169C14.6132 5.05515 14.7747 4.99783 14.9409 5.0001H36.0097C36.1129 4.99832 36.2153 5.01955 36.3093 5.06225C36.4033 5.10495 36.4867 5.16805 36.5533 5.24697C36.6199 5.3259 36.6681 5.41866 36.6943 5.51853C36.7206 5.6184 36.7243 5.72287 36.7052 5.82435L35.6271 11.921C35.5998 12.0843 35.5151 12.2326 35.3882 12.3391C35.2613 12.4455 35.1006 12.5032 34.935 12.5018Z" fill="url(#paint1_linear_65_49)"/>
<path d="M11.7068 20.0001H4.20166L5.42586 13.0792C5.45401 12.9159 5.53955 12.768 5.66708 12.6622C5.7946 12.5563 5.95572 12.4995 6.12142 12.5019H13.0249L11.7068 20.0001Z" fill="#0064FF"/>
<path d="M18.61 20H11.7065L13.0316 12.5018H20.5228L19.3021 19.4192C19.2748 19.5826 19.1901 19.7308 19.0632 19.8373C18.9364 19.9438 18.7757 20.0015 18.61 20Z" fill="#00C7F8"/>
<path d="M10.3781 27.5017H3.70759C3.60434 27.5035 3.50198 27.4822 3.40795 27.4395C3.31393 27.3968 3.23059 27.3337 3.16399 27.2548C3.09738 27.1759 3.04919 27.0831 3.02291 26.9833C2.99662 26.8834 2.99291 26.7789 3.01203 26.6774L4.19101 20H11.7066L10.3781 27.5017Z" fill="#00C7F8"/>
<defs>
<linearGradient id="paint0_linear_65_49" x1="7.52626" y1="31.2509" x2="34.6012" y2="31.2509" gradientUnits="userSpaceOnUse">
<stop stop-color="#FFA000"/>
<stop offset="0.5" stop-color="#FFB700"/>
<stop offset="1" stop-color="#FFD300"/>
</linearGradient>
<linearGradient id="paint1_linear_65_49" x1="13.0247" y1="8.74921" x2="36.7122" y2="8.74921" gradientUnits="userSpaceOnUse">
<stop offset="0.04" stop-color="#0064FF"/>
<stop offset="0.29" stop-color="#006DFF"/>
<stop offset="0.7" stop-color="#0085FF"/>
<stop offset="1" stop-color="#009BFF"/>
</linearGradient>
</defs>
</svg>
