<svg width="169" height="34" viewBox="0 0 169 34" fill="none" xmlns="http://www.w3.org/2000/svg">
  <path
    d="M50.6977 5.8872L48.0412 20.4756H46.233L47.2822 14.8947H46.0545C45.6415 16.9485 45.1615 18.8683 44.6927 20.4756H42.8845C43.4203 18.7232 43.9002 16.8257 44.3132 14.7608C45.0387 11.2672 45.608 7.91864 46.1103 4.84916H49.4588C50.4298 4.84916 50.7759 5.00543 50.6977 5.8872ZM48.1305 10.5416H46.9027C46.7353 11.4904 46.5567 12.4726 46.3781 13.399H47.5948L48.1305 10.5416ZM48.4654 6.36716H47.5724L47.1148 9.09062H48.3426L48.7891 6.71317C48.8449 6.42297 48.7444 6.36716 48.4654 6.36716ZM55.7428 18.3214H49.5816L49.336 16.9261H56.033L55.7428 18.3214ZM60.5312 12.2717L60.0624 13.8455C59.2652 13.6668 58.5082 13.3413 57.8301 12.8856L57.3948 14.7943H58.2765C58.9016 14.7943 59.3369 14.9059 59.203 15.6537C58.9909 17.0154 58.6672 18.8794 58.3658 20.4756H53.4993L53.1756 19.0804H56.6581C56.8367 18.2879 57.0264 17.3615 57.1604 16.6136C57.1604 16.3569 57.1604 16.2676 56.9036 16.2676H50.6977L51.2558 13.3544C50.7037 13.5968 50.1276 13.7801 49.5369 13.9013L49.9164 12.1154C51.036 11.819 52.069 11.2604 52.9301 10.4858H50.2624L50.5526 9.09062H53.9011C54.0409 8.82317 54.1639 8.54732 54.2695 8.26465H50.6977L50.9768 6.80247H52.2157L51.8139 4.68174H53.7002C53.823 5.39609 53.9681 6.06579 54.1244 6.83595H54.7383C54.9326 6.03014 55.0521 5.20814 55.0954 4.38037H56.9929C56.9377 5.1973 56.8107 6.00779 56.6134 6.80247H57.3948C57.6949 6.11083 57.9558 5.40279 58.1761 4.68174H60.0513C59.7914 5.40561 59.4895 6.11373 59.1472 6.80247H60.4642L60.1294 8.23117H56.2116C56.1 8.49905 55.9884 8.78925 55.8656 9.05713H60.7433L60.3973 10.4523H57.5845C58.3406 11.371 59.3814 12.0113 60.5424 12.2717H60.5312ZM55.5531 14.7943L55.8433 13.4995C55.8433 13.2539 55.8433 13.1646 55.5977 13.1646H52.2492L53.0863 13.7339L52.8743 14.8501L55.5531 14.7943ZM55.0508 10.4858C54.6613 10.9647 54.2237 11.4023 53.7449 11.7918H56.5576C56.2115 11.4011 55.9256 10.9609 55.7093 10.4858H55.0508Z"
    fill="currentColor" />
  <path
    d="M65.3532 16.7144C66.0898 16.1787 66.9381 15.4978 67.7194 14.8727L67.2953 17.1944C65.815 18.3602 64.2643 19.4338 62.652 20.409L64.4602 10.6424H62.6185L62.8864 9.03516H66.7149L65.3532 16.7144ZM65.3532 8.1199L64.6834 4.3584H66.5475L67.3065 8.1199H65.3532ZM77.8878 6.03266C77.1511 10.129 76.3475 14.75 75.6554 18.8128H77.8878L77.2516 20.4759H73.3226C73.8584 17.373 74.3272 14.6607 74.7625 12.2944H71.9051L70.4764 20.4759H68.4896L69.9183 12.2944H67.4404L67.7418 10.7764H70.1527L70.8336 6.93676L72.5748 8.23152L72.1283 10.7764H75.0304C75.2759 9.32537 75.5103 8.01944 75.7224 6.90327C75.8117 6.43448 75.6108 6.38983 75.209 6.38983H68.5566L68.1994 4.81603H76.7381C77.8766 4.81603 78.0552 5.12856 77.8878 6.03266Z"
    fill="currentColor" />
  <path
    d="M84.1831 13.9229L83.279 20.4748H79.8188L79.3389 18.901H81.5712L82.1516 14.6149L80.3992 15.1507L79.5956 13.6773C80.522 13.4318 81.4708 13.1639 82.4083 12.896L82.8883 9.36888H80.522L80.7564 7.79508H83.1227L83.5692 4.56934H85.4778L85.0313 7.79508H86.7726L86.5382 9.36888H84.8193L84.4063 12.2709C85.0871 12.0477 85.7569 11.8356 86.3596 11.6236L86.114 13.2532C85.5225 13.4987 84.8751 13.6885 84.1831 13.9229ZM92.5878 8.56524L92.2641 11.0543H94.8983C95.4899 11.0543 95.6127 11.2552 95.6127 11.6347C95.6249 12.1644 95.4685 12.6842 95.1662 13.1192C94.1971 14.4731 93.0733 15.7093 91.8177 16.8026C92.9405 18.0871 94.129 19.3128 95.3783 20.4748H92.532C91.7882 19.6921 91.0841 18.8725 90.4225 18.0192C89.3241 18.9177 88.1641 19.7383 86.9512 20.4748H83.9598C85.8541 19.3306 87.6633 18.0511 89.3733 16.6463C88.5808 15.5302 87.8106 14.414 87.1409 13.2978H89.2058C89.6784 14.0478 90.1926 14.7708 90.7461 15.4632C91.6784 14.663 92.5138 13.7565 93.2352 12.762C93.3022 12.6504 93.2352 12.6169 93.1571 12.6169H86.7168L86.9512 11.0766H90.2997L90.6234 8.58756H87.0963L87.3307 7.01376H90.802L91.1368 4.49121H93.1124L92.7776 7.01376H96.7288L96.5168 8.58756L92.5878 8.56524Z"
    fill="currentColor" />
  <path
    d="M103.895 10.151C102.736 13.2402 101.321 16.2271 99.6643 19.0804H97.0859C99.0203 16.3072 100.61 13.3086 101.819 10.151H103.895ZM114.666 7.56146L114.42 9.29153H107.544L106.015 20.4979H103.85L105.39 9.24688H98.6932L98.9723 7.51682H105.669L106.105 4.38037H108.214L107.79 7.51682L114.666 7.56146ZM110.603 10.151C111.351 13.1739 112.26 16.1546 113.326 19.0804H110.971C110.402 17.4619 109.051 12.0931 108.661 10.151H110.603ZM110.837 7.33823C110.58 6.62388 110.301 5.57468 110.067 4.63709H111.786C112.082 5.55597 112.428 6.45773 112.824 7.33823H110.837Z"
    fill="currentColor" />
  <path
    d="M123.997 13.4214H131.565L131.375 14.9059H128.54C127.324 16.0119 126.033 17.0337 124.678 17.9642C126.732 18.8013 129.064 19.6943 131.141 20.4867H126.486C125.191 19.9621 124.064 19.3706 122.892 18.9241C121.776 19.4487 120.503 20.0403 119.309 20.4867H114.621C116.731 19.7836 118.874 19.0357 120.827 18.1763L117.858 16.982C118.639 16.2788 119.376 15.5979 120.09 14.917H115.994L116.206 13.4325H121.597C122.01 13.0195 122.401 12.6066 122.78 12.1936H125.147C124.745 12.6289 124.365 13.0307 123.997 13.4214ZM119.276 12.3833H116.117C117.609 11.5364 119.001 10.5256 120.269 9.36966H122.725C121.658 10.4652 120.504 11.473 119.276 12.3833ZM132.179 7.51682L131.967 8.91203H125.537L125.091 11.8476H123.026L123.517 8.91203H117.032L117.233 7.51682H123.752L123.964 6.25554C122.1 6.33367 120.146 6.40064 118.383 6.43413L118.572 5.00543C123.037 4.91613 127.792 4.70406 131.319 4.38037L131.062 5.8872C129.701 5.98766 127.904 6.09928 125.95 6.18857L125.761 7.51682H132.179ZM122.546 14.9059C121.999 15.4751 121.497 16.022 120.995 16.4797C121.363 16.6471 122.01 16.9261 122.725 17.2164C123.834 16.5215 124.893 15.7494 125.895 14.9059H122.546ZM131.888 12.3833H129.21C128.328 11.5685 127.234 10.4412 126.274 9.36966H128.596C129.633 10.4386 130.732 11.445 131.888 12.3833Z"
    fill="currentColor" />
  <path
    d="M145.238 20.4754C143.879 19.5623 142.575 18.571 141.331 17.5064C140.125 18.8248 138.626 19.8417 136.956 20.4754H132.714C135.438 19.5601 139.166 18.098 140.17 15.821C140.466 15.0772 140.676 14.302 140.795 13.5105H142.872C142.743 14.6743 142.415 15.8072 141.9 16.859H143.017C144.868 18.2462 146.844 19.457 148.921 20.4754H145.238ZM137.213 17.5734H135.081L136.052 10.7759H146.934C148.051 10.7759 148.352 11.1777 148.184 12.1711L147.448 17.5734H145.327L146.041 12.6176C146.041 12.439 146.041 12.3497 145.807 12.3497H137.916L137.213 17.5734ZM147.827 9.76016H136.8L137.536 4.67041H147.202C148.318 4.67041 148.508 5.02758 148.318 6.14376L147.827 9.76016ZM146.019 6.22189H139.322L139.054 8.231H145.952L146.198 6.51209C146.254 6.33351 146.22 6.22189 146.019 6.22189Z"
    fill="currentColor" />
  <path
    d="M154.636 11.1441H151.712C153.853 9.16979 155.769 6.965 157.426 4.56982H163.498C164.157 4.56982 164.358 4.89351 164.614 5.42928C165.732 7.4117 166.969 9.32392 168.32 11.1552H165.664C164.701 9.62053 163.818 8.03718 163.018 6.41151C162.929 6.23292 162.784 6.19944 162.572 6.19944H158.632C157.393 7.91834 155.853 9.78235 154.636 11.1441ZM152.404 12.9523H167.048L166.78 14.6154H159.235C158.175 15.9953 157.035 17.311 155.819 18.5555H162.46C161.869 17.5509 161.277 16.4905 160.719 15.4413H162.951C163.965 17.1783 165.083 18.852 166.3 20.453H163.543L162.773 19.2028L162.215 20.319H151.723C153.561 18.5724 155.239 16.6634 156.734 14.6154H152.169L152.404 12.9523ZM156.623 9.03451H164.179L163.978 10.6641H156.422L156.623 9.03451Z"
    fill="currentColor" />
  <path
    d="M46.6572 24.6613H45.2731L44.4137 29.539H43.398L44.2574 24.6613H42.8845L43.0296 23.8242H46.8358L46.6572 24.6613Z"
    fill="currentColor" />
  <path
    d="M50.8654 26.1012C50.8748 26.2126 50.8748 26.3246 50.8654 26.436L50.7649 27.0276C50.6421 27.6973 50.3854 27.9317 49.7603 27.9317H48.0749V28.1661C48.0655 28.2775 48.0655 28.3895 48.0749 28.5009C48.0749 28.7577 48.2089 28.8246 48.6442 28.8246H50.1622L49.8496 29.5836H48.3875C47.4052 29.5836 47.0592 29.3381 47.0592 28.7242C47.0439 28.5496 47.0439 28.3741 47.0592 28.1996L47.3494 26.503C47.3882 26.148 47.5409 25.8151 47.7847 25.5542C48.1674 25.3046 48.6259 25.1979 49.0795 25.2529H49.5929C50.4412 25.2529 50.8654 25.465 50.8654 26.1012ZM49.9166 26.2463C49.9166 26.0565 49.805 26.0119 49.459 26.0119H48.9232C48.5772 26.0119 48.4098 26.0119 48.3316 26.503L48.2089 27.195H49.4925C49.7045 27.195 49.7827 27.1169 49.8162 26.916L49.8943 26.436C49.9114 26.3743 49.9189 26.3103 49.9166 26.2463Z"
    fill="currentColor" />
  <path
    d="M56.0111 26.0797C55.9946 26.3876 55.9536 26.6937 55.8883 26.995L55.4418 29.5845H54.5043L54.9507 27.062C54.9953 26.8447 55.0251 26.6247 55.04 26.4034C55.04 26.169 54.9172 26.0797 54.415 26.0797H53.4662L52.8635 29.5845H51.9259L52.6737 25.3096H54.7275C55.6762 25.3096 56.0111 25.5216 56.0111 26.0797Z"
    fill="currentColor" />
  <path
    d="M57.395 28.5899C57.4029 28.3201 57.4328 28.0513 57.4843 27.7863L57.6629 26.8041C57.6792 26.3677 57.8447 25.95 58.1317 25.6209C58.5105 25.3618 58.9712 25.2506 59.4265 25.3084H60.8217L60.5091 26.0674H59.393C59.2942 26.0537 59.1937 26.0605 59.0976 26.0874C59.0016 26.1143 58.9122 26.1606 58.8349 26.2236C58.7148 26.387 58.6415 26.5799 58.6228 26.7817L58.4442 27.7863C58.3992 27.9997 58.3693 28.216 58.3549 28.4337C58.3549 28.7574 58.5224 28.8243 59.0246 28.8243H60.3417L60.018 29.5833H58.7679C57.808 29.5833 57.395 29.3154 57.395 28.5899Z"
    fill="currentColor" />
  <path
    d="M65.6547 26.1011C65.6641 26.2126 65.6641 26.3246 65.6547 26.436L65.5542 27.0276C65.4314 27.6973 65.1859 27.9317 64.5608 27.9317H62.8642V28.1661C62.8555 28.2775 62.8555 28.3895 62.8642 28.5009C62.8642 28.7576 62.9982 28.8246 63.4446 28.8246H64.8733L64.572 29.5836H63.1768C62.1945 29.5836 61.8485 29.338 61.8485 28.7241C61.8332 28.5496 61.8332 28.3741 61.8485 28.1995L62.1387 26.503C62.1765 26.1455 62.3338 25.8112 62.5852 25.5542C62.9629 25.3026 63.4186 25.1956 63.8688 25.2529H64.3822C65.2082 25.2529 65.6547 25.4649 65.6547 26.1011ZM64.7059 26.2462C64.7059 26.0565 64.5943 26.0118 64.2483 26.0118H63.7125C63.3665 26.0118 63.1991 26.0118 63.121 26.503L62.9982 27.195H64.2818C64.4938 27.195 64.572 27.1169 64.6055 26.9159L64.6836 26.436C64.7007 26.3743 64.7082 26.3103 64.7059 26.2462Z"
    fill="currentColor" />
  <path
    d="M70.789 26.0797C70.7716 26.3869 70.7343 26.6926 70.6774 26.995L70.2198 29.5845H69.2822L69.7287 27.062C69.779 26.8457 69.8089 26.6252 69.818 26.4034C69.818 26.169 69.6952 26.0797 69.1929 26.0797H68.2553L67.6414 29.5845H66.7039L67.4405 25.3096H69.4943C70.4765 25.3096 70.789 25.5216 70.789 26.0797Z"
    fill="currentColor" />
  <path
    d="M73.5348 27.7855C73.4759 28.0273 73.4385 28.2738 73.4232 28.5222C73.4232 28.8124 73.6129 28.8235 74.1041 28.8235H74.6175L74.2938 29.5825H73.7469C72.8986 29.5825 72.4745 29.3593 72.4745 28.7008C72.4923 28.393 72.5333 28.0871 72.5972 27.7855L72.8986 26.0666H72.3293L72.4745 25.3076H73.0214L73.2446 24.0352H74.1822L73.959 25.3076H75.1533L75.0193 26.0666H73.8362L73.5348 27.7855Z"
    fill="currentColor" />
  <path
    d="M83.0671 24.6613H81.6496L80.8348 29.5837H79.8191L80.6339 24.6613H79.2386L79.3949 23.8242H83.1899L83.0671 24.6613Z"
    fill="currentColor" />
  <path
    d="M87.2415 26.1011C87.2509 26.2126 87.2509 26.3246 87.2415 26.436L87.141 27.0276C87.0182 27.6973 86.7727 27.9317 86.1476 27.9317H84.451V28.1661C84.4423 28.2775 84.4423 28.3895 84.451 28.5009C84.451 28.7576 84.585 28.8246 85.0314 28.8246H86.4155L86.1141 29.5836H84.7635C83.7813 29.5836 83.4353 29.338 83.4353 28.7241C83.42 28.5496 83.42 28.3741 83.4353 28.1995L83.7255 26.503C83.7632 26.1455 83.9206 25.8112 84.172 25.5542C84.5497 25.3026 85.0054 25.1956 85.4556 25.2529H85.969C86.8173 25.2529 87.2415 25.4649 87.2415 26.1011ZM86.2927 26.2462C86.2927 26.0565 86.1811 26.0118 85.8351 26.0118H85.2993C84.9533 26.0118 84.7859 26.0118 84.7077 26.503L84.585 27.195H85.8686C86.0806 27.195 86.1588 27.1169 86.1923 26.9159L86.2704 26.436C86.2875 26.3743 86.295 26.3103 86.2927 26.2462Z"
    fill="currentColor" />
  <path
    d="M88.3909 28.5908C88.4042 28.3208 88.4377 28.0522 88.4913 27.7872L88.6699 26.805C88.6816 26.3676 88.8477 25.9485 89.1387 25.6218C89.5166 25.3608 89.9781 25.2494 90.4335 25.3093H91.8287L91.505 26.0683H90.3888C90.29 26.0539 90.1893 26.0604 90.0932 26.0873C89.9971 26.1142 89.9077 26.161 89.8307 26.2246C89.7107 26.3879 89.6374 26.5808 89.6187 26.7826L89.4401 27.7872C89.3893 27.9996 89.3594 28.2164 89.3508 28.4346C89.3508 28.7583 89.507 28.8252 90.0093 28.8252H91.3264L91.0027 29.5842H89.7638C88.7927 29.5842 88.3909 29.3164 88.3909 28.5908Z"
    fill="currentColor" />
  <path
    d="M96.8742 26.0796C96.8577 26.3875 96.8167 26.6935 96.7514 26.9949L96.2938 29.5844H95.345L95.7915 27.0618C95.8419 26.8456 95.8718 26.6251 95.8808 26.4033C95.8808 26.1689 95.7692 26.0796 95.2557 26.0796H94.307L93.6931 29.5844H92.7778L93.827 23.5459H94.7646L94.4521 25.2871H95.5683C96.5393 25.3095 96.8742 25.5215 96.8742 26.0796Z"
    fill="currentColor" />
  <path
    d="M102.287 26.0797C102.265 26.3871 102.224 26.6927 102.165 26.995L101.707 29.5845H100.769L101.216 27.062C101.266 26.8457 101.296 26.6252 101.305 26.4034C101.305 26.169 101.182 26.0797 100.68 26.0797H99.7425L99.1286 29.5845H98.191L98.9389 25.3096H100.993C101.953 25.3096 102.287 25.5216 102.287 26.0797Z"
    fill="currentColor" />
  <path
    d="M104.341 25.3091H105.279L104.531 29.584H103.604L104.341 25.3091ZM104.62 23.646H105.591L105.39 24.6617H104.43L104.62 23.646Z"
    fill="currentColor" />
  <path
    d="M106.506 28.5905C106.52 28.3205 106.553 28.0519 106.607 27.7869L106.774 26.8046C106.794 26.3669 106.963 25.9491 107.254 25.6215C107.628 25.3602 108.086 25.2486 108.538 25.309H109.933L109.62 26.068H108.504C108.406 26.0536 108.305 26.0601 108.209 26.087C108.113 26.1139 108.023 26.1606 107.946 26.2242C107.826 26.3876 107.753 26.5805 107.734 26.7823L107.556 27.7869C107.503 27.9992 107.469 28.2159 107.455 28.4343C107.455 28.7579 107.623 28.8249 108.125 28.8249H109.442L109.118 29.5839H107.879C106.919 29.5839 106.506 29.316 106.506 28.5905Z"
    fill="currentColor" />
  <path
    d="M114.777 26.0782C114.765 26.3292 114.735 26.5791 114.688 26.8261L114.197 29.583H111.965C111.474 29.583 110.994 29.4379 110.994 28.8463C111.005 28.6063 111.035 28.3674 111.083 28.132V27.8753C111.195 27.2949 111.362 27.0605 111.73 26.96C112.017 26.9018 112.309 26.8793 112.601 26.893H113.717C113.759 26.7246 113.785 26.5527 113.795 26.3796C113.795 26.1564 113.661 26.0782 113.237 26.0782H111.719L111.596 25.3192H113.55C114.454 25.3081 114.777 25.5425 114.777 26.0782ZM113.427 28.824L113.639 27.6185H112.456C112.154 27.6185 112.054 27.7078 112.009 27.9869V28.1431C112.009 28.3887 111.942 28.5785 111.942 28.6454C111.942 28.7124 112.032 28.824 112.221 28.824H113.427Z"
    fill="currentColor" />
  <path
    d="M116.195 28.7469C116.206 28.4245 116.244 28.1035 116.307 27.787L117.054 23.5679H117.992L117.244 27.787C117.193 28.0299 117.16 28.2761 117.144 28.5237C117.144 28.8139 117.333 28.825 117.825 28.825H118.26L117.936 29.584H117.4C116.552 29.584 116.195 29.3831 116.195 28.7469Z"
    fill="currentColor" />
  <path
    d="M122.323 28.4565C122.329 28.1453 122.363 27.8353 122.423 27.53L122.814 25.2977C122.825 25.0599 122.885 24.827 122.991 24.6138C123.096 24.4005 123.245 24.2115 123.428 24.0587C123.766 23.8652 124.156 23.7832 124.544 23.8243H126.43L126.084 24.6615H124.667C124.064 24.6615 123.952 24.907 123.818 25.6549L123.55 27.1617C123.474 27.5111 123.422 27.8654 123.394 28.2221C123.394 28.635 123.662 28.702 124.287 28.702H125.693L125.336 29.5391H123.874C122.769 29.5838 122.323 29.2936 122.323 28.4565Z"
    fill="currentColor" />
  <path
    d="M127.19 28.6465C127.197 28.3766 127.227 28.1078 127.279 27.8428L127.48 26.7267C127.499 26.2908 127.664 25.874 127.949 25.5435C128.331 25.2939 128.79 25.1872 129.243 25.2421H129.768C130.717 25.2421 131.119 25.51 131.119 26.2355C131.105 26.5056 131.072 26.7742 131.018 27.0392L130.828 28.1553C130.806 28.5892 130.637 29.0027 130.348 29.3273C129.975 29.5887 129.517 29.7002 129.065 29.6399H128.54C127.58 29.6399 127.19 29.372 127.19 28.6465ZM129.132 28.8697C129.388 28.8697 129.567 28.8697 129.679 28.7246C129.794 28.5545 129.867 28.3593 129.891 28.1553L130.092 27.0392C130.135 26.8258 130.161 26.6093 130.17 26.3918C130.17 26.0681 130.002 26.0011 129.511 26.0011H129.188C129.09 25.9872 128.99 25.9928 128.894 26.0177C128.798 26.0426 128.708 26.0863 128.629 26.1462C128.5 26.313 128.426 26.5159 128.417 26.7267L128.216 27.8428C128.171 28.0562 128.142 28.2726 128.127 28.4902C128.127 28.8139 128.295 28.8697 128.786 28.8697H129.132Z"
    fill="currentColor" />
  <path
    d="M138.742 26.0797C138.725 26.3876 138.684 26.6937 138.619 26.995L138.161 29.5845H137.224L137.67 27.062C137.722 26.8457 137.756 26.6254 137.771 26.4034C137.771 26.169 137.637 26.0797 137.146 26.0797H136.286L135.672 29.5845H134.735L135.349 26.0797H133.897L133.295 29.5845H132.357L133.105 25.3096H137.458C138.418 25.3096 138.742 25.5216 138.742 26.0797Z"
    fill="currentColor" />
  <path
    d="M146.443 26.0797C146.431 26.3874 146.394 26.6935 146.332 26.995L145.863 29.5845H144.936L145.383 27.062C145.427 26.8447 145.457 26.6247 145.472 26.4034C145.472 26.169 145.349 26.0797 144.847 26.0797H143.988L143.34 29.5845H142.403L143.005 26.0797H141.566L140.952 29.5845H140.014L140.762 25.3096H145.126C146.12 25.3096 146.443 25.5216 146.443 26.0797Z"
    fill="currentColor" />
  <path
    d="M148.508 25.3091H149.446L148.698 29.584H147.805L148.508 25.3091ZM148.798 23.646H149.758L149.58 24.6059H148.62L148.798 23.646Z"
    fill="currentColor" />
  <path
    d="M152.024 27.7855C151.965 28.0273 151.928 28.2738 151.913 28.5222C151.913 28.8124 152.102 28.8235 152.593 28.8235H153.107L152.783 29.5825H152.27C151.433 29.5825 151.008 29.3593 151.008 28.7008C151.026 28.393 151.067 28.0871 151.131 27.7855L151.433 26.0666H150.863L150.997 25.3076H151.567L151.79 24.0352H152.727L152.504 25.3076H153.698L153.553 26.0666H152.37L152.024 27.7855Z"
    fill="currentColor" />
  <path
    d="M155.842 27.7855C155.791 28.0284 155.757 28.2745 155.741 28.5222C155.741 28.8124 155.92 28.8235 156.411 28.8235H156.924L156.601 29.5825H156.054C155.205 29.5825 154.781 29.3593 154.781 28.7008C154.799 28.393 154.84 28.0871 154.904 27.7855L155.205 26.0666H154.647L154.781 25.3076H155.339L155.574 24.0352H156.5L156.277 25.3076H157.482L157.337 26.0666H156.143L155.842 27.7855Z"
    fill="currentColor" />
  <path
    d="M162.226 26.101C162.236 26.2124 162.236 26.3245 162.226 26.4359L162.114 27.0275C161.992 27.6972 161.746 27.9316 161.121 27.9316H159.458V28.166C159.448 28.2774 159.448 28.3894 159.458 28.5008C159.458 28.7575 159.592 28.8245 160.027 28.8245H161.545L161.233 29.5835H159.849C158.866 29.5835 158.52 29.3379 158.52 28.724C158.51 28.5493 158.51 28.3742 158.52 28.1994L158.822 26.5029C158.851 26.1453 159.005 25.8095 159.257 25.5541C159.639 25.3027 160.098 25.1958 160.552 25.2527H161.054C161.802 25.2527 162.226 25.4648 162.226 26.101ZM161.288 26.2461C161.288 26.0564 161.177 26.0117 160.831 26.0117H160.295C159.949 26.0117 159.782 26.0117 159.692 26.5029L159.569 27.1949H160.853C161.065 27.1949 161.154 27.1167 161.177 26.9158L161.266 26.4359C161.278 26.3732 161.285 26.3098 161.288 26.2461Z"
    fill="currentColor" />
  <path
    d="M167.17 26.1012C167.18 26.2126 167.18 26.3246 167.17 26.436L167.07 27.0276C166.947 27.6973 166.691 27.9317 166.065 27.9317H164.414V28.1661C164.404 28.2775 164.404 28.3895 164.414 28.5009C164.414 28.7577 164.547 28.8246 164.983 28.8246H166.501L166.188 29.5836H164.804C163.822 29.5836 163.476 29.3381 163.476 28.7242C163.479 28.548 163.498 28.3725 163.532 28.1996L163.822 26.503C163.861 26.148 164.013 25.8151 164.257 25.5542C164.64 25.3046 165.098 25.1979 165.552 25.2529H166.065C166.78 25.2529 167.17 25.465 167.17 26.1012ZM166.222 26.2463C166.222 26.0565 166.11 26.0119 165.764 26.0119H165.228C164.882 26.0119 164.715 26.0119 164.637 26.503L164.514 27.195H165.798C166.01 27.195 166.088 27.1169 166.121 26.916L166.199 26.436C166.217 26.3743 166.224 26.3103 166.222 26.2463Z"
    fill="currentColor" />
  <path
    d="M33.4438 13.8888C33.3843 13.5911 33.3248 13.2935 33.2553 12.9959L33.1958 12.7776C33.1363 12.5494 33.0767 12.3212 33.0073 12.093L32.9478 11.9045C32.8684 11.6664 32.799 11.4382 32.7097 11.2001L32.6501 11.0513C32.5729 10.8186 32.4835 10.5901 32.3823 10.3667L23.1256 20.4667H26.4592L26.3005 20.8238L26.2211 20.9826C26.0155 21.4666 25.7734 21.9342 25.4968 22.3815C25.4569 22.4388 25.4204 22.4984 25.3877 22.5601L25.1793 22.8875C23.8216 24.9861 21.9405 26.6947 19.7215 27.845C17.5024 28.9953 15.0219 29.5476 12.5245 29.4474C10.027 29.3473 7.59868 28.5982 5.47884 27.2739C3.359 25.9496 1.62077 24.0959 0.435425 21.8953C0.439521 21.9316 0.439521 21.9682 0.435425 22.0045C0.554481 22.4013 0.693381 22.7982 0.842201 23.1851V23.2546C0.991022 23.6514 1.16961 24.0384 1.35811 24.4253L1.45733 24.6237C1.63591 24.9908 1.83434 25.348 2.04269 25.7051L2.17167 25.9036C2.38994 26.2607 2.61813 26.608 2.86616 26.9453C2.88693 26.98 2.91014 27.0132 2.93561 27.0445C3.18365 27.3719 3.43168 27.6993 3.69956 28.0367L3.79877 28.1557C4.07657 28.4732 4.36429 28.7709 4.66193 29.0685C4.72146 29.128 4.78099 29.1776 4.83059 29.2372C5.13816 29.5249 5.44572 29.8027 5.7632 30.0706L5.93187 30.1995C6.26919 30.4773 6.62636 30.7452 6.98353 31.0032C10.6964 33.5576 15.2711 34.5346 19.7036 33.7199C24.136 32.9052 28.0643 30.3653 30.6262 26.6576C31.9221 24.824 32.8389 22.75 33.3228 20.5574C33.8066 18.3647 33.8478 16.0975 33.4438 13.8888Z"
    fill="currentColor" />
  <path
    d="M30.5072 7.05256V6.99303C30.3385 6.76484 30.16 6.54657 29.9814 6.31838C29.8028 6.09019 29.8325 6.12987 29.7631 6.04058C28.6422 4.73506 27.3351 3.60178 25.8838 2.67723C22.2316 0.336465 17.8204 -0.513599 13.5599 0.302329C9.2993 1.11826 5.51428 3.53796 2.9853 7.06248C1.06626 9.93676 0.126718 13.3539 0.306526 16.8053C0.566232 19.9909 2.03246 22.9571 4.40566 25.0979C6.77886 27.2388 9.87993 28.3927 13.0753 28.324C14.9161 28.3233 16.7356 27.931 18.413 27.1731C17.8495 27.2714 17.2786 27.3212 16.7066 27.3219C15.3082 27.3161 13.9255 27.0274 12.6416 26.4732C11.3577 25.9191 10.1992 25.111 9.23577 24.0975C8.38807 23.2127 7.71487 22.176 7.25149 21.0417C6.64995 19.6188 6.37461 18.0793 6.44569 16.5362C6.51676 14.993 6.93244 13.4853 7.66222 12.1237C8.392 10.7622 9.41736 9.58129 10.6631 8.66772C11.9088 7.75414 13.3432 7.13107 14.8612 6.84421C16.7984 6.48705 18.7977 6.70076 20.6156 7.45934C20.6156 7.45934 21.3895 7.80658 21.7565 8.00501H21.826L22.2625 8.26297L22.461 8.40187L22.7487 8.6003L23.0265 8.80864C23.0969 8.85603 23.1632 8.90912 23.2249 8.96739L23.5424 9.23526C23.5933 9.27296 23.6399 9.31622 23.6813 9.36424L23.969 9.63212L24.0385 9.71149C24.1674 9.84047 24.2964 9.96945 24.4155 10.1083C24.5345 10.2472 24.5345 10.2373 24.5841 10.3068L24.7826 10.5449C25.4846 11.4426 26.0374 12.4477 26.4196 13.5213L31.291 8.21336C31.0628 7.84627 30.785 7.43949 30.5072 7.05256Z"
    fill="currentColor" />
</svg>