<svg width="24px" height="24px" viewBox="0 0 24 24" version="1.1" xmlns="http://www.w3.org/2000/svg">
    <g id="页面-1" stroke="none" stroke-width="1" fill="none" fill-rule="evenodd">
        <g id="组件代码一行一个3" transform="translate(-1358.000000, -93.000000)" fill="currentColor" fill-rule="nonzero">
            <g id="编组-3" transform="translate(1358.000000, 93.000000)">
                <g id="logo.10e09b95" transform="translate(1.000000, 2.000000)">
                    <path d="M4.26530612,1.61632653 L12.8902041,1.61632653 L12.8902041,0 L5.18122449,0 L4.26530612,1.61632653 Z M2.18877551,5.26428571 L19.7326531,5.26428571 L18.7965306,3.64795918 L3.10469388,3.64795918 L2.18877551,5.26428571 Z M19.7685714,14.564898 L2.11244898,14.564898 L3.04632653,16.1812245 L18.8526531,16.1812245 L19.7685714,14.564898 L19.7685714,14.564898 Z" id="形状"></path>
                    <polygon id="路径" points="16.6885714 0 14.0822449 0 14.0822449 1.61632653 17.6381633 1.61632653"></polygon>
                    <polygon id="路径" points="21.9034694 10.9304082 17.2183673 10.9304082 17.2183673 12.5467347 20.987551 12.5467347 21.9034694 10.9304082"></polygon>
                    <polygon id="路径" points="0.949591837 12.5467347 5.76938776 12.5467347 5.76938776 10.9304082 0 10.9304082"></polygon>
                    <polygon id="路径" points="7.07142857 10.9304082 16.0802041 10.9304082 16.0802041 12.5467347 7.07142857 12.5467347"></polygon>
                    <polygon id="路径" points="17.7032653 18.1836735 6.92102041 18.1836735 6.92102041 19.8 16.7873469 19.8"></polygon>
                    <path d="M5.13183673,19.8 L5.7155102,19.8 L5.7155102,18.1836735 L4.1822449,18.1836735 L5.13183673,19.8 L5.13183673,19.8 Z M0.0853061224,8.9122449 L9.57897959,8.9122449 L9.57897959,7.29591837 L1.00122449,7.29591837 L0.0853061224,8.9122449 Z" id="形状"></path>
                    <polygon id="路径" points="20.8842857 7.29591837 10.8832653 7.29591837 10.8832653 8.9122449 21.8338776 8.9122449 20.8842857 7.29591837"></polygon>
                </g>
            </g>
        </g>
    </g>
</svg>