<svg width="24" height="24" viewBox="0 0 24 24" fill="none" xmlns="http://www.w3.org/2000/svg">
<path d="M4.39715 14.2967C3.6161 15.0778 3.45781 16.1858 4.0436 16.7716L7.22558 19.9536C7.81137 20.5393 8.91941 20.3811 9.70045 19.6L13.1502 16.1503L12.0895 15.0896L8.38266 18.7965L5.20068 15.6145L8.90756 11.9076L7.8469 10.847L4.39715 14.2967Z" fill="#0052D9"/>
<path d="M16.3322 12.9683L15.2715 11.9076L18.7964 8.38272L15.6144 5.20074L12.0895 8.72564L11.0289 7.66498L14.2966 4.39721C15.0777 3.61616 16.1857 3.45787 16.7715 4.04366L19.9535 7.22564C20.5393 7.81143 20.381 8.91947 19.5999 9.70051L16.3322 12.9683Z" fill="#0052D9"/>
<path d="M9.65735 13.1714L10.718 14.232L14.9606 9.98941L13.9 8.92875L9.65735 13.1714Z" fill="#0052D9"/>
</svg>
