<svg width="32" height="32" viewBox="0 0 32 32" fill="none" xmlns="http://www.w3.org/2000/svg">
  <path d="M28.0011 24.0276L4.0023 24L4 26L27.9988 26.0276L28.0011 24.0276Z" fill="currentColor" />
  <path d="M16.9999 15L4.00115 15L4.00115 17L16.9999 17V15Z" fill="currentColor" />
  <path d="M28.0011 6.02761L4.0023 6L4 8L27.9988 8.02761L28.0011 6.02761Z" fill="currentColor" />
  <path fill-rule="evenodd" clip-rule="evenodd" d="M20.0666 16.8139C19.5333 16.4139 19.5333 15.6139 20.0666 15.2139L26.3999 10.4639C27.0592 9.96944 27.9999 10.4398 27.9999 11.2639L27.9999 20.7639C27.9999 21.5879 27.0592 22.0583 26.3999 21.5639L20.0666 16.8139ZM25.9999 18.7639L22.3333 16.0139L25.9999 13.2639L25.9999 18.7639Z" fill="currentColor" />
</svg>