<svg width="40" height="40" viewBox="0 0 40 40" fill="none" xmlns="http://www.w3.org/2000/svg">
<path d="M30.3192 12.5017H8.65485C8.55366 12.4993 8.45419 12.4751 8.36319 12.4308C8.27219 12.3865 8.1918 12.3231 8.12748 12.2449C8.06315 12.1668 8.01641 12.0757 7.99043 11.9779C7.96444 11.88 7.95982 11.7778 7.97689 11.678L9.05485 5.57631C9.08373 5.41354 9.16942 5.2663 9.29666 5.16078C9.42391 5.05526 9.58447 4.9983 9.74976 5.00004H30.8074C30.9086 5.00248 31.008 5.02668 31.099 5.071C31.19 5.11531 31.2704 5.1787 31.3347 5.25685C31.3991 5.335 31.4458 5.42608 31.4718 5.5239C31.4978 5.62173 31.5024 5.724 31.4853 5.82377L30.3192 12.5017Z" fill="url(#paint0_linear_65_53)"/>
<path d="M27.0852 27.5017H5.17334L6.39368 20.5932C6.42255 20.4332 6.5058 20.2882 6.62935 20.1825C6.75289 20.0769 6.90914 20.0172 7.07164 20.0135H28.997L27.7767 26.9356C27.7458 27.0959 27.6597 27.2403 27.5334 27.3437C27.407 27.4472 27.2484 27.503 27.0852 27.5017Z" fill="url(#paint1_linear_65_53)"/>
<path d="M34.9699 20H13.0581L14.3835 12.5017H36.0479C36.1491 12.5042 36.2486 12.5284 36.3396 12.5727C36.4306 12.617 36.511 12.6804 36.5753 12.7585C36.6396 12.8367 36.6863 12.9278 36.7123 13.0256C36.7383 13.1234 36.7429 13.2257 36.7259 13.3254L35.6479 19.4271C35.6188 19.5864 35.5353 19.7306 35.4117 19.8351C35.288 19.9396 35.1318 19.9979 34.9699 20V20Z" fill="url(#paint2_linear_65_53)"/>
<path d="M10.7666 35H4.68868C4.5873 34.9981 4.48754 34.9743 4.39626 34.9302C4.30497 34.886 4.22434 34.8226 4.15991 34.7443C4.09547 34.6661 4.04877 34.5747 4.02302 34.4767C3.99726 34.3786 3.99306 34.2761 4.01071 34.1763L5.17681 27.5017H12.6751L11.4446 34.4203C11.4157 34.5803 11.3325 34.7254 11.2089 34.831C11.0854 34.9366 10.9291 34.9963 10.7666 35V35Z" fill="#00ECF8"/>
<defs>
<linearGradient id="paint0_linear_65_53" x1="7.95316" y1="8.74919" x2="31.5091" y2="8.74919" gradientUnits="userSpaceOnUse">
<stop offset="0.03" stop-color="#0064FF"/>
<stop offset="0.32" stop-color="#0070FF"/>
<stop offset="0.86" stop-color="#0091FF"/>
<stop offset="1" stop-color="#009BFF"/>
</linearGradient>
<linearGradient id="paint1_linear_65_53" x1="5.17334" y1="23.7525" x2="28.997" y2="23.7525" gradientUnits="userSpaceOnUse">
<stop stop-color="#00C7F8"/>
<stop offset="1" stop-color="#00ECF8"/>
</linearGradient>
<linearGradient id="paint2_linear_65_53" x1="14.1496" y1="16.2509" x2="35.2208" y2="16.2509" gradientUnits="userSpaceOnUse">
<stop stop-color="#009BFF"/>
<stop offset="1" stop-color="#00C7F8"/>
</linearGradient>
</defs>
</svg>
