<svg width="20" height="20" viewBox="0 0 20 20" fill="none" xmlns="http://www.w3.org/2000/svg">
  <path d="M8.75 5H5V8.75H8.75V5Z" fill="currentColor"/>
  <path fill-rule="evenodd" clip-rule="evenodd" d="M10 2.5C10.6904 2.5 11.25 3.05964 11.25 3.75V10C11.25 10.6904 10.6904 11.25 10 11.25H3.75C3.05964 11.25 2.5 10.6904 2.5 10V3.75C2.5 3.05964 3.05964 2.5 3.75 2.5H10ZM10 3.75H3.75V10H10V3.75Z" fill="currentColor"/>
  <path fill-rule="evenodd" clip-rule="evenodd" d="M17.5 3.75C17.5 3.05964 16.9404 2.5 16.25 2.5H13.75C13.0596 2.5 12.5 3.05964 12.5 3.75V6.25C12.5 6.94036 13.0596 7.5 13.75 7.5H16.25C16.9404 7.5 17.5 6.94036 17.5 6.25V3.75ZM13.75 3.75H16.25V6.25H13.75V3.75Z" fill="currentColor"/>
  <path fill-rule="evenodd" clip-rule="evenodd" d="M6.25 12.5C6.94036 12.5 7.5 13.0596 7.5 13.75V16.25C7.5 16.9404 6.94036 17.5 6.25 17.5H3.75C3.05964 17.5 2.5 16.9404 2.5 16.25V13.75C2.5 13.0596 3.05964 12.5 3.75 12.5H6.25ZM6.25 16.25V13.75H3.75V16.25H6.25Z" fill="currentColor"/>
  <path fill-rule="evenodd" clip-rule="evenodd" d="M17.5 13.75C17.5 13.0596 16.9404 12.5 16.25 12.5H13.75C13.0596 12.5 12.5 13.0596 12.5 13.75V16.25C12.5 16.9404 13.0596 17.5 13.75 17.5H16.25C16.9404 17.5 17.5 16.9404 17.5 16.25V13.75ZM13.75 16.25V13.75H16.25V16.25H13.75Z" fill="currentColor"/>
  <path d="M12.5 9.35091H13.75V10.6009H12.5V9.35091Z" fill="currentColor"/>
  <path d="M15 9.35091H17.5V10.6009H15V9.35091Z" fill="currentColor"/>
  <path d="M10.6301 15.0165H9.38007V17.5165H10.6301V15.0165Z" fill="currentColor"/>
  <path d="M9.38007 12.5H10.6301V13.75H9.38007V12.5Z" fill="currentColor"/>
</svg>
