<svg width="40" height="40" viewBox="0 0 40 40" fill="none" xmlns="http://www.w3.org/2000/svg">
<path d="M15.3162 35H9.24496C9.14439 34.9999 9.04501 34.9782 8.95352 34.9365C8.86202 34.8947 8.78054 34.8338 8.71457 34.7579C8.64859 34.682 8.59965 34.5928 8.57105 34.4964C8.54245 34.4 8.53485 34.2986 8.54875 34.199L9.73156 27.5214H17.2177L15.9974 34.4385C15.965 34.5958 15.8797 34.7372 15.7558 34.8394C15.6319 34.9415 15.4768 34.9982 15.3162 35V35Z" fill="#009BFF"/>
<path d="M32.4071 12.4893H12.3743L13.6918 5.00315H33.4552C33.5634 4.99282 33.6725 5.00797 33.7738 5.0474C33.8752 5.08683 33.9658 5.14944 34.0386 5.23021C34.1114 5.31099 34.1642 5.40768 34.1929 5.51255C34.2216 5.61742 34.2253 5.72755 34.2038 5.83411L33.0958 11.9278C33.0658 12.0876 32.9802 12.2317 32.8541 12.3345C32.7281 12.4372 32.5697 12.4921 32.4071 12.4893Z" fill="url(#paint0_linear_65_44)"/>
<path d="M12.3742 12.4883H5.71155C5.60962 12.4894 5.50866 12.4684 5.41565 12.4267C5.32265 12.385 5.23982 12.3235 5.17289 12.2466C5.10597 12.1698 5.05655 12.0792 5.02806 11.9814C4.99956 11.8835 4.99267 11.7806 5.00786 11.6798L6.09334 5.57863C6.12299 5.41735 6.20804 5.2715 6.33379 5.16625C6.45953 5.06101 6.61809 5.00298 6.78206 5.0022H13.6917L12.3742 12.4883Z" fill="#0064FF"/>
<path d="M17.2252 27.499H9.72412L12.3742 12.5043H19.8753L17.2252 27.499Z" fill="url(#paint1_linear_65_44)"/>
<defs>
<linearGradient id="paint0_linear_65_44" x1="13.0167" y1="8.7537" x2="32.9937" y2="12.3496" gradientUnits="userSpaceOnUse">
<stop offset="0.03" stop-color="#E9FFFF"/>
<stop offset="0.17" stop-color="#C4FAC9"/>
<stop offset="0.33" stop-color="#A0F694"/>
<stop offset="0.48" stop-color="#82F269"/>
<stop offset="0.63" stop-color="#6AEF47"/>
<stop offset="0.76" stop-color="#5AED2F"/>
<stop offset="0.89" stop-color="#4FEB20"/>
<stop offset="1" stop-color="#4CEB1B"/>
</linearGradient>
<linearGradient id="paint1_linear_65_44" x1="16.1156" y1="11.9578" x2="16.2573" y2="26.066" gradientUnits="userSpaceOnUse">
<stop stop-color="#009BFF"/>
<stop offset="0.35" stop-color="#0081FE"/>
<stop offset="0.75" stop-color="#006AFD"/>
<stop offset="1" stop-color="#0062FD"/>
</linearGradient>
</defs>
</svg>
