<svg width="16" height="16" viewBox="0 0 16 16" fill="none" xmlns="http://www.w3.org/2000/svg">
<path d="M8 1C6.6247 1 5.36829 1.5546 4.46644 2.46644C3.5546 3.36829 3 4.6247 3 6C3 7.37457 3.554 8.63036 4.46498 9.53211C4.77388 9.84935 5.12363 10.1126 5.5 10.3289V12C5.5 12.5523 5.94772 13 6.5 13H9.5C10.0523 13 10.5 12.5523 10.5 12V10.3289C10.8764 10.1126 11.2261 9.84935 11.535 9.5321C12.446 8.63036 13 7.37456 13 6C13 3.23386 10.7661 1 8 1Z" fill="#FFBD2E"/>
<path d="M6 14C5.72386 14 5.5 14.2239 5.5 14.5C5.5 14.7761 5.72386 15 6 15H10C10.2761 15 10.5 14.7761 10.5 14.5C10.5 14.2239 10.2761 14 10 14H6Z" fill="#FFBD2E"/>
</svg>
