<svg width="40" height="40" viewBox="0 0 40 40" fill="none" xmlns="http://www.w3.org/2000/svg">
<path fill-rule="evenodd" clip-rule="evenodd" d="M22.8416 20.5481L29.4427 22.3224C29.7259 22.3985 29.8937 22.6897 29.8176 22.9729C29.7777 23.1211 29.6757 23.2449 29.5377 23.3122L16.9354 29.4595C16.3627 29.7389 15.6786 29.65 15.1963 29.2335L9.24081 24.091C9.0189 23.8994 8.99434 23.5641 9.18596 23.3422C9.24636 23.2723 9.32397 23.2193 9.41112 23.1886L11.7768 22.3538L10.1961 20.4835L6.21422 21.6628C5.76332 21.7963 5.45398 22.2106 5.45398 22.6808V23.6765C5.45398 23.9454 5.55598 24.2042 5.7394 24.4008L14.9201 34.2409C15.6178 34.9887 16.7494 35.1329 17.6124 34.584L33.6122 24.4078C33.9186 24.2129 34.1041 23.875 34.1041 23.5119V22.2971C34.1041 21.8186 33.784 21.3992 33.3224 21.273L23.8296 18.6779L22.8416 20.5481Z" fill="#2378FF"/>
<path fill-rule="evenodd" clip-rule="evenodd" d="M8.40344 13.336L10.1686 11.7555L16.7316 17.7675C16.7316 17.7675 21.1466 12.6426 23.7965 9.60567C27.3927 5.61964 29.2855 4.35291 29.2855 4.35291L30.7337 6.31296C30.7337 6.31296 27.4544 9.28799 23.8581 14.4129C20.4511 19.348 18.1798 24.1552 18.1798 24.1552H16.1638L8.40344 13.336Z" fill="#1ED261"/>
<path fill-rule="evenodd" clip-rule="evenodd" d="M16.7324 17.7676C16.7324 17.7676 20.1308 13.7981 22.7535 10.8038C26.7513 6.11024 29.3012 4.35291 29.3012 4.35291L30.7345 6.33032C30.7345 6.33032 27.4747 9.34 24.278 14.033C21.0889 18.715 19.9848 20.7078 19.9848 20.7078L16.7324 17.7676Z" fill="#0CA17E"/>
</svg>
