<svg width="24" height="24" viewBox="0 0 24 24" fill="none" xmlns="http://www.w3.org/2000/svg">
<path d="M8.50998 22.5001C10.442 22.5001 12.01 20.9321 12.01 19.0001V15.5001H8.50998C6.578 15.5001 5.01001 17.0681 5.01001 19.0001C5.01001 20.9321 6.578 22.5001 8.50998 22.5001Z" fill="#0ACF83"/>
<path d="M5.01001 12C5.01001 10.068 6.578 8.5 8.50998 8.5H12.01V15.4999H8.50998C6.578 15.4999 5.01001 13.932 5.01001 12Z" fill="#A259FF"/>
<path d="M5.01001 5C5.01001 3.068 6.578 1.5 8.50998 1.5H12.01V8.5H8.50998C6.578 8.5 5.01001 6.932 5.01001 5Z" fill="#F24E1E"/>
<path d="M12.01 1.5H15.5101C17.4421 1.5 19.0101 3.068 19.0101 5C19.0101 6.932 17.4421 8.5 15.5101 8.5H12.01V1.5Z" fill="#FF7262"/>
<path d="M19.0101 12C19.0101 13.932 17.4421 15.4999 15.5101 15.4999C13.578 15.4999 12.01 13.932 12.01 12C12.01 10.068 13.578 8.5 15.5101 8.5C17.4421 8.5 19.0101 10.068 19.0101 12Z" fill="#1ABCFE"/>
</svg>
