<svg width="24" height="24" viewBox="0 0 24 24" fill="none" xmlns="http://www.w3.org/2000/svg">
<mask id="mask0_16043_28146" style="mask-type:alpha" maskUnits="userSpaceOnUse" x="0" y="0" width="24" height="24">
<rect width="24" height="24" fill="white"/>
</mask>
<g mask="url(#mask0_16043_28146)">
<path fill-rule="evenodd" clip-rule="evenodd" d="M19.4984 2.9726C21.0893 3.75183 22.0772 5.28885 22.4267 7.31602C22.766 9.28379 21.887 10.8538 20.8895 11.8903C19.9145 12.9033 18.6841 13.5713 17.8225 13.8304C17.0292 14.0689 16.1927 13.6192 15.9541 12.8259C15.7155 12.0325 16.1653 11.196 16.9586 10.9575C17.3381 10.8433 18.1184 10.4433 18.728 9.80997C19.315 9.2 19.5944 8.54513 19.4704 7.8258C19.2407 6.49408 18.6979 5.92103 18.1788 5.66676C17.598 5.38228 16.6891 5.32087 15.4574 5.7238C13.9218 6.22615 13.6358 7.26442 13.5952 7.63578V16.9963L13.5749 17.1185C13.3858 18.2554 12.6038 19.6743 11.3488 20.6612C10.0131 21.7114 8.11746 22.2877 5.85336 21.5762C3.5785 20.8614 2.38814 19.3 1.94097 17.6645C1.52237 16.1335 1.75544 14.5615 2.21054 13.5745C2.48627 12.9765 3.08239 12.2005 3.83919 11.5631C4.60506 10.9181 5.72211 10.2581 7.07267 10.206C7.90048 10.1741 8.59743 10.8193 8.62934 11.6471C8.66125 12.4749 8.01604 13.1719 7.18823 13.2038C6.7515 13.2206 6.25514 13.4506 5.77171 13.8577C5.27919 14.2725 4.99008 14.7109 4.93488 14.8306C4.76485 15.1994 4.60896 16.0475 4.83475 16.8733C5.03196 17.5946 5.51932 18.3266 6.7527 18.7142C7.99686 19.1051 8.87319 18.7914 9.49446 18.3029C10.1395 17.7957 10.4958 17.1054 10.5952 16.7206V7.5176L10.599 7.46443C10.6859 6.24253 11.4887 3.86569 14.5247 2.8725C16.1889 2.32806 17.9692 2.22358 19.4984 2.9726Z" fill="#07C160"/>
</g>
</svg>
