<svg width="24" height="24" viewBox="0 0 24 24" fill="none" xmlns="http://www.w3.org/2000/svg">
<path fill-rule="evenodd" clip-rule="evenodd" d="M16.8708 3.55156C17.1129 3.69135 17.3414 3.9915 17.4658 4.57316C17.5902 5.15472 17.5899 5.93843 17.4375 6.88928C17.3901 7.18516 17.3286 7.49349 17.2532 7.81247C16.4373 7.63789 15.5607 7.50331 14.6406 7.41432C14.1034 6.66199 13.5486 5.97012 12.9895 5.35087C13.228 5.12604 13.4643 4.91859 13.6969 4.72959C14.4441 4.12224 15.1227 3.73012 15.6886 3.54707C16.2545 3.36398 16.6287 3.41178 16.8708 3.55156ZM10.9966 5.35087C10.7581 5.12604 10.5218 4.9186 10.2893 4.7296C9.542 4.12225 8.86343 3.73013 8.29759 3.54708C7.73165 3.36399 7.35747 3.41179 7.11536 3.55157C6.87324 3.69136 6.64476 3.99151 6.52035 4.57317C6.39596 5.15473 6.39626 5.93844 6.5486 6.88929C6.596 7.18517 6.65751 7.49349 6.73295 7.81248C7.54881 7.6379 8.42544 7.50332 9.34557 7.41433C9.88269 6.66199 10.4375 5.97012 10.9966 5.35087ZM11.9931 4.32827C11.7239 4.07383 11.4556 3.83787 11.1897 3.62174C10.3632 2.95005 9.52927 2.44507 8.73701 2.18877C7.94485 1.9325 7.11538 1.90309 6.40155 2.31522C5.68771 2.72735 5.29845 3.4604 5.1243 4.27456C4.95014 5.08883 4.97048 6.06356 5.13895 7.11514C5.19316 7.45349 5.26336 7.80381 5.34914 8.16411C4.99422 8.26998 4.65574 8.38434 4.33561 8.50657C3.34069 8.88645 2.48638 9.35621 1.86828 9.91417C1.25027 10.4721 0.810059 11.1757 0.810059 12C0.810059 12.8242 1.25027 13.5279 1.86828 14.0858C2.48638 14.6437 3.34069 15.1135 4.33561 15.4934C4.65575 15.6156 4.99424 15.73 5.34917 15.8358C5.26339 16.1962 5.19318 16.5465 5.13897 16.8849C4.9705 17.9364 4.95016 18.9112 5.12433 19.7254C5.29847 20.5396 5.68773 21.2726 6.40157 21.6848C7.1154 22.0969 7.94487 22.0675 8.73703 21.8112C9.52929 21.5549 10.3633 21.0499 11.1897 20.3783C11.4556 20.1621 11.7239 19.9262 11.9931 19.6717C12.2622 19.9262 12.5305 20.1621 12.7964 20.3783C13.6229 21.05 14.4569 21.5549 15.2491 21.8112C16.0413 22.0675 16.8707 22.0969 17.5846 21.6848C18.2984 21.2727 18.6877 20.5396 18.8618 19.7254C19.036 18.9112 19.0156 17.9364 18.8472 16.8849C18.793 16.5465 18.7228 16.1962 18.637 15.8358C18.9919 15.73 19.3304 15.6156 19.6506 15.4934C20.6455 15.1135 21.4998 14.6437 22.1179 14.0858C22.7359 13.5279 23.1761 12.8242 23.1761 12C23.1761 11.1757 22.7359 10.4721 22.1179 9.91417C21.4998 9.35621 20.6455 8.88645 19.6506 8.50657C19.3304 8.38434 18.9919 8.26998 18.637 8.16411C18.7228 7.8038 18.793 7.45348 18.8472 7.11513C19.0157 6.06356 19.036 5.08882 18.8618 4.27455C18.6877 3.46039 18.2984 2.72734 17.5846 2.31521C16.8708 1.90308 16.0413 1.93249 15.2491 2.18876C14.4569 2.44506 13.6229 2.95004 12.7964 3.62173C12.5305 3.83786 12.2622 4.07383 11.9931 4.32827ZM16.8619 9.18893C16.482 9.10962 16.0861 9.03915 15.6763 8.9784C15.8105 9.19682 15.9428 9.41891 16.073 9.64443C16.2032 9.86994 16.3294 10.0956 16.4515 10.321C16.6038 9.93572 16.7407 9.55765 16.8619 9.18893ZM17.2881 12C17.6711 11.1587 17.9929 10.3322 18.2496 9.53834C18.5636 9.6325 18.8614 9.73339 19.1413 9.84028C20.041 10.1838 20.7198 10.5754 21.1613 10.9739C21.6028 11.3725 21.7485 11.7204 21.7485 12C21.7485 12.2795 21.6028 12.6275 21.1613 13.0261C20.7198 13.4246 20.041 13.8162 19.1413 14.1597C18.8614 14.2666 18.5636 14.3674 18.2496 14.4616C17.9929 13.6678 17.6711 12.8413 17.2881 12ZM15.7101 12C15.4462 11.4584 15.1548 10.9093 14.8367 10.3582C14.5185 9.80714 14.1887 9.28032 13.8515 8.78094C13.2505 8.73868 12.6294 8.71644 11.9931 8.71644C11.3568 8.71644 10.7356 8.73868 10.1346 8.78095C9.79747 9.28032 9.46764 9.80714 9.14946 10.3582C8.83129 10.9093 8.53997 11.4584 8.27606 12C8.53996 12.5416 8.83128 13.0907 9.14944 13.6418C9.4676 14.1928 9.79742 14.7196 10.1345 15.219C10.7356 15.2613 11.3567 15.2835 11.9931 15.2835C12.6294 15.2835 13.2506 15.2613 13.8516 15.219C14.1887 14.7196 14.5185 14.1928 14.8367 13.6418C15.1549 13.0907 15.4462 12.5416 15.7101 12ZM15.6764 15.0215C15.8106 14.8031 15.9429 14.5811 16.0731 14.3556C16.2032 14.1301 16.3294 13.9045 16.4515 13.6791C16.6037 14.0643 16.7406 14.4423 16.8619 14.811C16.482 14.8903 16.0861 14.9608 15.6764 15.0215ZM12.7682 16.7006C12.512 16.7076 12.2535 16.7111 11.9931 16.7111C11.7327 16.7111 11.4742 16.7076 11.2179 16.7006C11.4754 17.0251 11.7344 17.3327 11.9931 17.6221C12.2517 17.3327 12.5107 17.0251 12.7682 16.7006ZM12.9895 18.6491C13.5486 18.0299 14.1035 17.338 14.6406 16.5856C15.5607 16.4966 16.4373 16.3621 17.2532 16.1875C17.3286 16.5065 17.3901 16.8148 17.4375 17.1107C17.5899 18.0616 17.5902 18.8453 17.4658 19.4268C17.3414 20.0085 17.1129 20.3087 16.8708 20.4484C16.6286 20.5882 16.2545 20.636 15.6885 20.4529C15.1227 20.2699 14.4441 19.8778 13.6968 19.2704C13.4643 19.0814 13.228 18.874 12.9895 18.6491ZM10.9966 18.6491C10.4375 18.0299 9.88264 17.338 9.34551 16.5856C8.42541 16.4966 7.54882 16.362 6.73298 16.1875C6.65754 16.5065 6.59602 16.8148 6.54862 17.1107C6.39628 18.0616 6.39598 18.8453 6.52037 19.4268C6.64478 20.0085 6.87326 20.3086 7.11538 20.4484C7.35749 20.5882 7.73167 20.636 8.29761 20.4529C8.86345 20.2699 9.54202 19.8777 10.2893 19.2704C10.5218 19.0814 10.7581 18.874 10.9966 18.6491ZM7.12423 14.811C7.50416 14.8903 7.89999 14.9608 8.30972 15.0215C8.17557 14.8031 8.04328 14.5811 7.91309 14.3556C7.78289 14.1301 7.65673 13.9045 7.53466 13.6791C7.3824 14.0643 7.24551 14.4423 7.12423 14.811ZM7.53466 10.321C7.65673 10.0956 7.78291 9.86994 7.91311 9.64442C8.04331 9.4189 8.17562 9.19682 8.30978 8.9784C7.90002 9.03915 7.50415 9.10963 7.12419 9.18894C7.24549 9.55765 7.38239 9.93572 7.53466 10.321ZM6.69802 12C6.31504 12.8413 5.99329 13.6678 5.73655 14.4616C5.42258 14.3674 5.1248 14.2665 4.84485 14.1597C3.94522 13.8162 3.26635 13.4246 2.8249 13.0261C2.38337 12.6275 2.23768 12.2795 2.23768 12C2.23768 11.7204 2.38337 11.3725 2.8249 10.9739C3.26635 10.5754 3.94522 10.1838 4.84485 9.84028C5.12479 9.7334 5.42255 9.63251 5.73652 9.53835C5.99326 10.3322 6.31502 11.1587 6.69802 12ZM11.218 7.29935C11.4742 7.29237 11.7327 7.28882 11.9931 7.28882C12.2535 7.28882 12.5119 7.29237 12.7681 7.29934C12.5107 6.97488 12.2517 6.66731 11.9931 6.37793C11.7344 6.66731 11.4755 6.97488 11.218 7.29935ZM13.9439 12C13.9439 13.0776 13.0704 13.9511 11.9928 13.9511C10.9152 13.9511 10.0417 13.0776 10.0417 12C10.0417 10.9225 10.9152 10.0489 11.9928 10.0489C13.0704 10.0489 13.9439 10.9225 13.9439 12Z" fill="#61DAFB"/>
</svg>
