<svg width="24" height="24" viewBox="0 0 24 24" fill="none" xmlns="http://www.w3.org/2000/svg">
<path d="M6.08181 3.62567L12 3L17.9182 3.62567L22.5 9.77635L12 22.0035L1.5 9.77635L6.08181 3.62567Z" fill="#FDB300"/>
<path d="M5.75302 9.77637L12 22.0035L1.5 9.77637H5.75302Z" fill="#EA6C00"/>
<path d="M18.247 9.77637L12 22.0035L22.5 9.77637H18.247Z" fill="#EA6C00"/>
<path d="M5.75293 9.77637H18.2469L11.9999 22.0035L5.75293 9.77637Z" fill="#FDAD00"/>
<path d="M11.9999 3L6.0817 3.62566L5.75293 9.77635L11.9999 3Z" fill="#FDD231"/>
<path d="M11.9998 3L17.9181 3.62566L18.2468 9.77635L11.9998 3Z" fill="#FDD231"/>
<path d="M22.5 9.7763L17.9182 3.62561L18.247 9.7763H22.5Z" fill="#FDAD00"/>
<path d="M1.5 9.7763L6.0818 3.62561L5.75302 9.7763H1.5Z" fill="#FDAD00"/>
<path d="M11.9999 3L5.75293 9.77635H18.2469L11.9999 3Z" fill="#FEEEB7"/>
</svg>
