<svg width="173" height="24" viewBox="0 0 173 24" fill="none" xmlns="http://www.w3.org/2000/svg">
  <path
    d="M34.0952 5.97009H30.0702L27.5589 20.1135H24.6186L27.1124 5.97009H23.063L23.5025 3.52856H34.5347L34.0952 5.97009Z"
    fill="#203251" />
  <path
    d="M47.7356 7.72262C47.725 8.67102 47.6293 9.61655 47.4496 10.5478L46.9682 13.3381C45.9846 19.006 44.429 20.1256 40.0517 20.1256H33.3062L36.2185 3.5511H41.9771C46.159 3.54064 47.7356 4.59049 47.7356 7.72262ZM44.8022 8.15861C44.8022 6.27863 43.9024 5.9717 41.5376 5.9717H38.7194L36.6789 17.684H39.4693C42.7549 17.684 43.4315 17.0283 44.0663 13.3277L44.5476 10.5374C44.6991 9.75299 44.7843 8.95726 44.8022 8.15861Z"
    fill="#203251" />
  <path
    d="M58.9506 9.9993C58.9506 10.3222 58.9214 10.6444 58.8634 10.962L58.5565 12.7059C58.2077 14.6522 57.4857 15.3323 55.6685 15.3323H50.8448L50.7332 16.0124C50.6731 16.3302 50.6369 16.6519 50.625 16.9751C50.625 17.7389 51.0192 17.9168 52.2888 17.9168H56.6905L55.7906 20.1281H51.7621C48.9195 20.1281 47.9254 19.4027 47.9254 17.6308C47.9364 17.1172 47.9877 16.6052 48.0789 16.0996L48.9334 11.1957C49.4566 8.17165 50.7262 7.56127 53.9455 7.56127H55.4348C57.7194 7.54732 58.9506 8.1577 58.9506 9.9993ZM56.2161 10.3934C56.2161 9.86676 55.8883 9.73422 54.8803 9.73422H53.3247C52.3167 9.73422 51.8353 9.86677 51.5807 11.1817L51.2319 13.1942H54.9535C55.0703 13.2136 55.19 13.2072 55.304 13.1753C55.418 13.1434 55.5237 13.0869 55.6135 13.0097C55.7033 12.9325 55.7751 12.8366 55.8238 12.7287C55.8724 12.6207 55.8969 12.5034 55.8953 12.385L56.1359 10.962C56.1751 10.7746 56.1996 10.5846 56.2092 10.3934H56.2161Z"
    fill="#203251" />
  <path
    d="M59.0957 17.9035H64.2857C65.1367 17.9035 65.2902 17.771 65.4437 16.9165L65.6425 15.755C65.6785 15.5897 65.7006 15.4217 65.7087 15.2527C65.7087 14.9702 65.5553 14.9249 65.0495 14.9249H62.5348C60.606 14.9249 59.9712 14.5517 59.9712 13.303C59.9928 12.6933 60.0663 12.0865 60.1909 11.4893L60.3653 10.5022C60.8048 7.98397 61.4605 7.71191 63.9334 7.71191H69.4722L68.5549 9.92324H63.9334C63.0789 9.92324 62.9289 10.0523 62.7754 10.9068L62.5975 11.8939C62.5621 12.0592 62.5411 12.2272 62.5348 12.3962C62.5348 12.6787 62.6847 12.724 63.1905 12.724H65.8169C67.7422 12.724 68.377 13.0972 68.377 14.3424C68.3553 14.9531 68.2829 15.5609 68.1607 16.1596L67.9201 17.5547C67.5259 19.8323 66.8737 20.1393 64.2857 20.1393H59.4898L59.0957 17.9035Z"
    fill="#203251" />
  <path
    d="M71.7511 7.70155H74.4647L72.2987 20.115H69.5817L71.7511 7.70155ZM72.5534 2.86035H75.3437L74.8379 5.65067H72.0476L72.5534 2.86035Z"
    fill="#203251" />
  <path
    d="M86.375 10.4146C86.3414 11.2022 86.2458 11.9859 86.089 12.7585L84.7322 20.4318C84.2055 23.407 82.915 24 80.3967 24H75.6672L75.273 21.7677H79.7829C81.4919 21.7677 81.8198 21.6352 82.1477 19.7099L82.3011 18.8553H79.162C76.3717 18.8553 75.2207 18.088 75.2207 15.9883C75.2539 15.2006 75.3495 14.4169 75.5067 13.6444L75.8346 11.8272C76.4694 8.33932 77.2786 7.53711 80.9374 7.53711H82.4476C85.2135 7.54757 86.375 8.31142 86.375 10.4146ZM82.6953 16.6545L83.3649 12.7341C83.5028 12.1143 83.5902 11.4845 83.6265 10.8506C83.6265 9.91236 83.1452 9.73448 81.7221 9.73448H80.7351C79.0713 9.73448 78.8097 10.2402 78.5272 11.8272L78.1959 13.6444C78.0633 14.2651 77.9758 14.8946 77.9343 15.5279C77.9343 16.4696 78.3947 16.644 79.8387 16.644L82.6953 16.6545Z"
    fill="#203251" />
  <path
    d="M98.8718 9.93321C98.8226 10.8313 98.706 11.7244 98.523 12.6049L97.2081 20.1144H94.4945L95.8303 12.6049C95.9492 12.0303 96.0227 11.4472 96.0501 10.861C96.0501 10.0937 95.7222 9.94019 94.6933 9.94019H91.4949L89.7231 20.1004H87.006L89.1755 7.68701H95.1956C98.0138 7.70096 98.8718 8.37064 98.8718 9.93321Z"
    fill="#203251" />
  <path
    d="M4.81098 4.88305H0.444138C0.3804 4.88378 0.317267 4.87063 0.259116 4.84453C0.200965 4.81842 0.14919 4.77998 0.10738 4.73186C0.0655703 4.68375 0.0347274 4.62712 0.0169905 4.56589C-0.000746306 4.50467 -0.00495257 4.44032 0.00466348 4.37731L0.723169 0.348789C0.74112 0.250876 0.79283 0.162355 0.869303 0.0986272C0.945776 0.0348998 1.04217 0 1.14172 0L5.67598 0L4.81098 4.88305Z"
    fill="url(#paint0_linear_16000_26371)" />
  <path d="M7.87349 15.2407H2.97998L4.81112 4.88867H9.70464L7.87349 15.2407Z" fill="url(#paint1_linear_16000_26371)" />
  <path
    d="M6.65255 20.1325H2.63798C2.57433 20.1317 2.51158 20.1173 2.454 20.0902C2.39642 20.063 2.34537 20.0238 2.30433 19.9751C2.26328 19.9265 2.23321 19.8695 2.21615 19.8082C2.19909 19.7469 2.19545 19.6826 2.20548 19.6197L2.98328 15.2424H7.86633L7.06412 19.7767C7.04785 19.8747 6.99778 19.964 6.92261 20.0289C6.84744 20.0939 6.75189 20.1305 6.65255 20.1325Z"
    fill="url(#paint2_linear_16000_26371)" />
  <path
    d="M18.5471 4.88305H4.81177L5.67677 0H19.2447C19.∑3085 0.000120406 19.3716 0.0141485 19.4294 0.0411084C19.4873 0.0680683 19.5386 0.107313 19.5798 0.156111C19.6209 0.20491 19.651 0.26209 19.6678 0.323676C19.6846 0.385261 19.6878 0.449772 19.6772 0.51272L18.9621 4.53426C18.9456 4.63219 18.8948 4.72104 18.8187 4.78494C18.7427 4.84883 18.6464 4.88361 18.5471 4.88305Z"
    fill="url(#paint3_linear_16000_26371)" />
  <path
    d="M103.691 20.2811H108.811C111.778 20.2811 113.052 19.9075 113.58 16.9411L113.975 14.7437C114.063 14.2823 114.261 12.9858 114.261 12.3705C114.261 10.7225 113.074 10.4588 111.206 10.4588H108.394C107.779 10.4588 107.471 10.349 107.471 9.9754C107.471 9.77764 107.537 9.33817 107.647 8.76685L107.91 7.40448C108.13 6.28382 108.306 6.06408 109.317 6.06408H114.656L115.667 3.64697H109.163C106.416 3.64697 105.559 4.26224 105.098 6.89908L104.68 9.2283C104.57 9.86554 104.482 10.4369 104.482 10.9203C104.482 12.3046 105.076 12.9858 106.856 12.9858H110.13C110.921 12.9858 111.228 13.0298 111.228 13.5132C111.228 13.7549 111.184 14.2383 111.031 15.0074L110.811 16.15C110.525 17.6882 110.306 17.842 108.855 17.842H103.252L103.691 20.2811Z"
    fill="#203251" />
  <path
    d="M120.114 10.0413H123.608L124.003 7.82198H120.509L121.169 4.13039H118.444L117.785 7.82198H116.137L115.763 10.0413H117.389L116.4 15.6446C116.268 16.3478 116.159 17.1169 116.159 17.6882C116.159 19.6219 117.389 20.2811 119.85 20.2811H121.454L122.399 18.0617H120.905C119.477 18.0617 118.927 18.0398 118.927 17.1608C118.927 16.8092 119.015 16.2379 119.125 15.6446L120.114 10.0413Z"
    fill="#203251" />
  <path
    d="M131.394 7.82198H125.681L126.055 10.0413H130.471C131.724 10.0413 132.097 10.2611 132.097 10.9203C132.097 11.2279 132.031 11.5795 131.943 12.0409L131.878 12.4365H128.582C125.593 12.4365 124.626 12.6123 124.099 15.5567L123.967 16.3038C123.857 16.963 123.769 17.5344 123.769 18.0617C123.769 19.512 124.428 20.2811 126.56 20.2811H133.152L134.558 12.2387C134.69 11.4916 134.844 10.6126 134.844 10.0853C134.844 8.50316 133.877 7.82198 131.394 7.82198ZM127.329 18.0617C126.736 18.0617 126.516 17.9299 126.516 17.4025C126.516 17.2267 126.538 16.985 126.604 16.6334L126.78 15.6446C126.933 14.7437 127.153 14.5459 128.076 14.5459H131.504L130.889 18.0617H127.329Z"
    fill="#203251" />
  <path
    d="M135.378 20.2811H138.125L139.597 11.997C139.883 10.349 140.213 10.0853 141.795 10.0853H143.794L144.739 7.82198H141.707C138.257 7.82198 137.466 8.43724 136.873 11.8432L135.378 20.2811Z"
    fill="#203251" />
  <path
    d="M148.904 10.0413H152.398L152.793 7.82198H149.3L149.959 4.13039H147.234L146.575 7.82198H144.927L144.553 10.0413H146.179L145.191 15.6446C145.059 16.3478 144.949 17.1169 144.949 17.6882C144.949 19.6219 146.179 20.2811 148.64 20.2811H150.245L151.189 18.0617H149.695C148.267 18.0617 147.718 18.0398 147.718 17.1608C147.718 16.8092 147.805 16.2379 147.915 15.6446L148.904 10.0413Z"
    fill="#203251" />
  <path
    d="M160.009 7.66816H158.514C155.284 7.66816 154.01 8.28343 153.482 11.3158L152.625 16.2379C152.538 16.7653 152.472 17.3146 152.472 17.7761C152.472 19.5559 153.482 20.2811 156.339 20.2811H160.382L161.283 18.0617H156.866C155.592 18.0617 155.196 17.8859 155.196 17.1169C155.196 16.8752 155.24 16.5236 155.306 16.15L155.416 15.4688H160.25C162.074 15.4688 162.799 14.7876 163.151 12.832L163.458 11.0961C163.524 10.7445 163.546 10.3929 163.546 10.1292C163.546 8.28343 162.316 7.66816 160.009 7.66816ZM160.734 11.0961L160.492 12.5244C160.404 13.0957 160.162 13.3374 159.547 13.3374H155.812L156.163 11.3158C156.405 9.99738 156.888 9.86554 157.899 9.86554H159.459C160.47 9.86554 160.8 9.99738 160.8 10.5247C160.8 10.6786 160.778 10.8324 160.734 11.0961Z"
    fill="#203251" />
  <path
    d="M163.332 20.2811H166.078L167.551 11.997C167.836 10.349 168.166 10.0853 169.748 10.0853H171.748L172.693 7.82198H169.66C166.21 7.82198 165.419 8.43724 164.826 11.8432L163.332 20.2811Z"
    fill="#203251" />
  <defs>
    <linearGradient id="paint0_linear_16000_26371" x1="-0.0231699" y1="2.44501" x2="5.72606" y2="2.33003"
      gradientUnits="userSpaceOnUse">
      <stop stop-color="#0062FF" />
      <stop offset="0.26" stop-color="#006AFF" />
      <stop offset="0.68" stop-color="#0081FF" />
      <stop offset="1" stop-color="#0097FF" />
    </linearGradient>
    <linearGradient id="paint1_linear_16000_26371" x1="7.54291" y1="4.39688" x2="4.99094" y2="15.6828"
      gradientUnits="userSpaceOnUse">
      <stop stop-color="#0097FF" />
      <stop offset="0.32" stop-color="#0081FF" />
      <stop offset="0.74" stop-color="#006AFF" />
      <stop offset="1" stop-color="#0062FF" />
    </linearGradient>
    <linearGradient id="paint2_linear_16000_26371" x1="2.25724" y1="19.8534" x2="7.9146" y2="15.2424"
      gradientUnits="userSpaceOnUse">
      <stop stop-color="#009EFF" />
      <stop offset="0.31" stop-color="#00A3FF" />
      <stop offset="0.71" stop-color="#00B3FF" />
      <stop offset="1" stop-color="#00C3FF" />
    </linearGradient>
    <linearGradient id="paint3_linear_16000_26371" x1="4.77696" y1="2.44501" x2="19.7201" y2="2.14615"
      gradientUnits="userSpaceOnUse">
      <stop offset="0.03" stop-color="#ECFFFE" />
      <stop offset="0.19" stop-color="#AFF1D9" />
      <stop offset="0.34" stop-color="#79E5B9" />
      <stop offset="0.49" stop-color="#4EDB9F" />
      <stop offset="0.63" stop-color="#2CD48A" />
      <stop offset="0.77" stop-color="#14CE7C" />
      <stop offset="0.89" stop-color="#05CB73" />
      <stop offset="1" stop-color="#00CA70" />
    </linearGradient>
  </defs>
</svg>