<svg width="24" height="24" viewBox="0 0 24 24" fill="none" xmlns="http://www.w3.org/2000/svg">
<path d="M12.7615 5.90852L9.05866 12.1749L13.0084 18.821C13.033 18.8717 13.0454 18.9223 13.033 18.9729C13.0207 19.0236 12.9713 18.9856 12.8973 18.9983H10.0708C9.87328 18.9983 9.73751 18.9856 9.65111 18.859C9.39191 18.3273 9.12037 17.8083 8.86117 17.2766C8.60197 16.7576 8.31809 16.2259 8.02186 15.6815C7.72563 15.1372 7.4294 14.5928 7.13317 14.0358H7.10849C6.84929 14.5802 6.5654 15.1245 6.28152 15.6689C5.99763 16.2132 5.71375 16.7576 5.44221 17.2892C5.15832 17.8209 4.87444 18.3653 4.59055 18.8843C4.54118 19.0109 4.44244 19.0236 4.30667 19.0236H1.59124C1.54187 19.0236 1.50484 19.0489 1.50484 18.9856C1.4925 18.935 1.50484 18.8843 1.52953 18.8463L5.36815 12.3901L1.62827 5.89586C1.59124 5.84522 1.5789 5.79458 1.60358 5.76927C1.62827 5.73129 1.67764 5.71863 1.72701 5.71863H4.52884C4.59055 5.71863 4.65226 5.73129 4.70164 5.74395C4.75101 5.76927 4.78804 5.80724 4.82506 5.85788C5.05958 6.40223 5.33112 6.94658 5.61501 7.49093C5.91123 8.03528 6.19512 8.56697 6.50369 9.09867C6.79992 9.63036 7.07146 10.162 7.33066 10.7064H7.35534C7.61454 10.1494 7.88609 9.60504 8.15763 9.07335C8.42917 8.54166 8.71306 8.00996 8.99694 7.47827C9.28083 6.94658 9.55237 6.40223 9.82391 5.8832C9.83625 5.83256 9.86094 5.78192 9.89797 5.75661C9.94734 5.73129 9.99671 5.71863 10.0584 5.73129H12.6628C12.7245 5.71863 12.7862 5.75661 12.7985 5.8199C12.8109 5.83256 12.7862 5.8832 12.7615 5.90852Z" fill="#FF61F6"/>
<path d="M18.4639 19.2642C17.5505 19.2768 16.6371 19.0869 15.8102 18.6945C15.0326 18.3274 14.3908 17.7197 13.9464 16.9728C13.4897 16.2006 13.2676 15.2385 13.2676 14.0865C13.2552 13.1497 13.4897 12.2256 13.9464 11.4154C14.4154 10.5925 15.0943 9.90892 15.9089 9.45318C16.7729 8.95947 17.8097 8.71894 19.0317 8.71894C19.0934 8.71894 19.1798 8.71894 19.2909 8.7316C19.4019 8.74426 19.5254 8.74426 19.6735 8.75692V4.75658C19.6735 4.66796 19.7105 4.61732 19.7969 4.61732H22.3025C22.3642 4.60466 22.4136 4.6553 22.4259 4.70594C22.4259 4.7186 22.4259 4.73126 22.4259 4.73126V16.7829C22.4259 17.0108 22.4383 17.264 22.4506 17.5425C22.4753 17.8083 22.4876 18.0615 22.5 18.2767C22.5 18.3653 22.463 18.4413 22.3766 18.4793C21.7347 18.7578 21.0559 18.9603 20.3647 19.0869C19.7352 19.2009 19.1057 19.2642 18.4639 19.2642ZM19.6735 16.7323V11.1622C19.5624 11.1369 19.4513 11.1116 19.3402 11.0989C19.2045 11.0862 19.0687 11.0736 18.9329 11.0736C18.4515 11.0736 17.9702 11.1748 17.5382 11.4027C17.1185 11.6179 16.7606 11.9344 16.489 12.3395C16.2175 12.7446 16.0817 13.289 16.0817 13.9472C16.0694 14.3903 16.1434 14.8334 16.2915 15.2511C16.415 15.5929 16.6001 15.8968 16.847 16.15C17.0815 16.3778 17.3654 16.5551 17.6863 16.6563C18.0195 16.7703 18.3651 16.8209 18.7107 16.8209C18.8959 16.8209 19.0687 16.8082 19.2291 16.7956C19.3896 16.8082 19.5254 16.7829 19.6735 16.7323Z" fill="#FF61F6"/>
</svg>
