<svg width="32" height="32" viewBox="0 0 32 32" fill="none" xmlns="http://www.w3.org/2000/svg">
<path fill-rule="evenodd" clip-rule="evenodd" d="M24.9631 5.12046C24.7821 4.73882 24.4005 4.51062 23.9362 4.51062H22.1421C21.6227 4.51062 21.2332 4.71915 21.0247 5.09686L18.365 8.98019L20.6942 12.1632L24.7585 6.33228C25.2071 5.79719 25.0497 5.30539 24.9631 5.12046Z" fill="#74BB11"/>
<path fill-rule="evenodd" clip-rule="evenodd" d="M10.9446 5.05751C10.5393 4.51062 10.0003 4.51062 9.81931 4.51062H8.06453C7.616 4.51062 7.24616 4.71915 7.05337 5.07719C6.85664 5.44703 6.89599 5.88769 7.1714 6.29688L13.6712 15.3068L6.19565 25.7332C5.93598 26.1267 5.89663 26.5595 6.09335 26.9293C6.28614 27.2873 6.65598 27.4959 7.10451 27.4959H8.89864C9.35897 27.4959 9.76422 27.2558 9.96882 26.8781L18.3375 15.3501L10.9446 5.05751Z" fill="#009CD9"/>
<path fill-rule="evenodd" clip-rule="evenodd" d="M25.8561 25.8278L20.639 18.671L18.3452 21.8343L22.4686 27.3386L22.5748 27.3858C22.74 27.4606 22.9171 27.4999 23.0941 27.4999H24.8489C25.2738 27.4999 25.6319 27.3111 25.8365 26.9845C26.0489 26.6461 26.0529 26.2252 25.8561 25.8278Z" fill="#EB2084"/>
</svg>
