<svg width="32" height="32" viewBox="0 0 32 32" fill="none" xmlns="http://www.w3.org/2000/svg">
<path d="M4.2793 16.8193V7.71963C4.2793 7.61312 4.36729 7.52515 4.4738 7.52515H9.2899C9.39641 7.52515 9.48439 7.61312 9.48439 7.71963V16.8193C9.48439 16.9258 9.39641 17.0138 9.2899 17.0138H4.4738C4.36729 17.0138 4.2793 16.9258 4.2793 16.8193Z" fill="#FF3333"/>
<path d="M12.7866 16.819V7.71938C12.7866 7.61288 12.8746 7.5249 12.9811 7.5249H17.7972C17.9037 7.5249 17.9917 7.61288 17.9917 7.71938V16.819C17.9917 16.9256 17.9037 17.0135 17.7972 17.0135H12.9811C12.8746 17.0135 12.7866 16.9256 12.7866 16.819Z" fill="#FF3333"/>
<path d="M27.1652 7.5249C27.2717 7.5249 27.3596 7.61288 27.3596 7.71938V14.9065C27.3596 15.6196 27.3088 16.3282 27.2161 17.0135C26.4938 22.2464 23.1225 26.6365 18.4962 28.7806C18.399 28.8269 18.2786 28.7806 18.2369 28.6833L16.2734 24.284C16.2317 24.1868 16.2734 24.071 16.3707 24.0247C19.7929 22.4131 22.1593 18.9353 22.1593 14.9065V7.71938C22.1593 7.61288 22.2472 7.5249 22.3537 7.5249H27.1652Z" fill="#FF3333"/>
</svg>
