<svg width="32" height="32" viewBox="0 0 32 32" fill="none" xmlns="http://www.w3.org/2000/svg">
<path fill-rule="evenodd" clip-rule="evenodd" d="M19.1874 7.84118C16.7921 7.84118 14.8503 9.78294 14.8503 12.1782V27.6406C14.8503 29.3233 13.4862 30.6874 11.8035 30.6874C10.1207 30.6874 8.75659 29.3233 8.75659 27.6406V12.1782C8.75659 6.41745 13.4266 1.74744 19.1874 1.74744C24.9481 1.74744 29.6181 6.41745 29.6181 12.1782C29.6181 17.939 24.9481 22.609 19.1874 22.609C17.5046 22.609 16.1405 21.2449 16.1405 19.5621C16.1405 17.8794 17.5046 16.5153 19.1874 16.5153C21.5826 16.5153 23.5244 14.5735 23.5244 12.1782C23.5244 9.78294 21.5826 7.84118 19.1874 7.84118Z" fill="url(#paint0_linear_25141_106114)"/>
<path fill-rule="evenodd" clip-rule="evenodd" d="M22.5477 14.9775C21.0321 16.8323 18.2999 17.1073 16.4451 15.5917L7.40065 8.20126C6.0976 7.13651 4.17813 7.32968 3.11338 8.63273C2.04863 9.93577 2.2418 11.8552 3.54485 12.92L12.5893 20.3104C17.0502 23.9555 23.6214 23.2942 27.2665 18.8333C30.9116 14.3724 30.2503 7.80121 25.7894 4.1561C24.4863 3.09135 22.5668 3.28453 21.5021 4.58757C20.4373 5.89061 20.6305 7.81009 21.9336 8.87484C23.7884 10.3904 24.0633 13.1227 22.5477 14.9775Z" fill="url(#paint1_linear_25141_106114)"/>
<path d="M7.09375 10.6094C7.09375 11.5155 6.35922 12.25 5.45312 12.25C4.54703 12.25 3.8125 11.5155 3.8125 10.6094C3.8125 9.70328 4.54703 8.96875 5.45312 8.96875C6.35922 8.96875 7.09375 9.70328 7.09375 10.6094Z" fill="white"/>
<defs>
<linearGradient id="paint0_linear_25141_106114" x1="12.8698" y1="30.5918" x2="16.9325" y2="6.4455" gradientUnits="userSpaceOnUse">
<stop stop-color="#A9FFD6"/>
<stop offset="0.586163" stop-color="#9831FF"/>
<stop offset="1" stop-color="#F55EC7"/>
</linearGradient>
<linearGradient id="paint1_linear_25141_106114" x1="3.28809" y1="9.78007" x2="20.6121" y2="9.89505" gradientUnits="userSpaceOnUse">
<stop stop-color="#FFCEB9"/>
<stop offset="0.617431" stop-color="#F65EC6"/>
</linearGradient>
</defs>
</svg>
