<svg width="32" height="32" viewBox="0 0 32 32" fill="none" xmlns="http://www.w3.org/2000/svg">
<path d="M17.0153 7.87806L12.0782 16.2332L17.3445 25.0947C17.3774 25.1623 17.3939 25.2298 17.3774 25.2973C17.3609 25.3648 17.2951 25.3142 17.1964 25.331H13.4277C13.1644 25.331 12.9833 25.3142 12.8681 25.1454C12.5225 24.4365 12.1605 23.7444 11.8149 23.0355C11.4693 22.3434 11.0908 21.6345 10.6958 20.9087C10.3008 20.1829 9.90587 19.4571 9.5109 18.7144H9.47798C9.13239 19.4402 8.75387 20.166 8.37536 20.8918C7.99684 21.6176 7.61833 22.3434 7.25627 23.0524C6.87776 23.7613 6.49925 24.4871 6.12073 25.1791C6.05491 25.3479 5.92325 25.3648 5.74222 25.3648H2.12166C2.05583 25.3648 2.00646 25.3986 2.00646 25.3142C1.99 25.2467 2.00646 25.1791 2.03937 25.1285L7.15753 16.5202L2.17103 7.86119C2.12166 7.79367 2.1052 7.72615 2.13811 7.69239C2.17103 7.64176 2.23686 7.62488 2.30268 7.62488H6.03845C6.12073 7.62488 6.20302 7.64176 6.26885 7.65864C6.33468 7.69239 6.38405 7.74303 6.43342 7.81055C6.7461 8.53635 7.10816 9.26215 7.48667 9.98795C7.88165 10.7138 8.26016 11.4227 8.67159 12.1316C9.06656 12.8405 9.42861 13.5494 9.77421 14.2752H9.80713C10.1527 13.5326 10.5148 12.8068 10.8768 12.0978C11.2389 11.3889 11.6174 10.68 11.9959 9.97107C12.3744 9.26215 12.7365 8.53635 13.0985 7.84431C13.115 7.77679 13.1479 7.70927 13.1973 7.67552C13.2631 7.64176 13.3289 7.62488 13.4112 7.64176H16.8837C16.966 7.62488 17.0483 7.67552 17.0647 7.75991C17.0812 7.77679 17.0483 7.84431 17.0153 7.87806Z" fill="#FF61F6"/>
<path d="M24.6185 25.6855C23.4007 25.7024 22.1829 25.4492 21.0802 24.926C20.0434 24.4365 19.1877 23.6263 18.5952 22.6304C17.9863 21.6008 17.6901 20.318 17.6901 18.782C17.6736 17.5329 17.9863 16.3008 18.5952 15.2205C19.2206 14.1234 20.1257 13.2119 21.2119 12.6042C22.3639 11.946 23.7463 11.6253 25.3755 11.6253C25.4578 11.6253 25.573 11.6253 25.7211 11.6421C25.8693 11.659 26.0338 11.659 26.2313 11.6759V6.3421C26.2313 6.22395 26.2807 6.15643 26.3959 6.15643H29.7367C29.819 6.13955 29.8848 6.20707 29.9012 6.27459C29.9012 6.29146 29.9012 6.30834 29.9012 6.30834V22.3772C29.9012 22.6811 29.9177 23.0186 29.9342 23.39C29.9671 23.7444 29.9835 24.082 30 24.369C30 24.4871 29.9506 24.5884 29.8354 24.639C28.9796 25.0104 28.0745 25.2804 27.1529 25.4492C26.3136 25.6011 25.4743 25.6855 24.6185 25.6855ZM26.2313 22.3097V14.8829C26.0832 14.8492 25.9351 14.8154 25.787 14.7985C25.6059 14.7816 25.4249 14.7648 25.2439 14.7648C24.6021 14.7648 23.9602 14.8998 23.3842 15.2036C22.8247 15.4906 22.3474 15.9125 21.9854 16.4527C21.6233 16.9928 21.4423 17.7186 21.4423 18.5963C21.4258 19.1871 21.5246 19.7779 21.7221 20.3349C21.8866 20.7906 22.1335 21.1957 22.4626 21.5333C22.7753 21.8371 23.1538 22.0734 23.5817 22.2084C24.0261 22.3604 24.4869 22.4279 24.9477 22.4279C25.1945 22.4279 25.4249 22.411 25.6389 22.3941C25.8528 22.411 26.0338 22.3772 26.2313 22.3097Z" fill="#FF61F6"/>
</svg>
