<svg width="24" height="24" viewBox="0 0 24 24" fill="none" xmlns="http://www.w3.org/2000/svg">
<path fill-rule="evenodd" clip-rule="evenodd" d="M18.7225 3.84032C18.5868 3.55408 18.3006 3.38293 17.9523 3.38293H16.6068C16.2172 3.38293 15.9251 3.53933 15.7687 3.82261L13.7739 6.73511L15.5208 9.12236L18.5691 4.74918C18.9055 4.34787 18.7874 3.97901 18.7225 3.84032Z" fill="#74BB11"/>
<path fill-rule="evenodd" clip-rule="evenodd" d="M8.20855 3.7931C7.90461 3.38294 7.50034 3.38293 7.3646 3.38293H6.04852C5.71212 3.38293 5.43474 3.53933 5.29015 3.80786C5.1426 4.08524 5.17211 4.41574 5.37867 4.72263L10.2535 11.4801L4.64686 19.2999C4.4521 19.595 4.42259 19.9196 4.57014 20.1969C4.71473 20.4655 4.99211 20.6219 5.32851 20.6219H6.6741C7.01935 20.6219 7.32329 20.4419 7.47673 20.1586L13.7532 11.5126L8.20855 3.7931Z" fill="#009CD9"/>
<path fill-rule="evenodd" clip-rule="evenodd" d="M19.3922 19.3708L15.4794 14.0032L13.759 16.3757L16.8515 20.5039L16.9312 20.5393C17.0551 20.5954 17.1879 20.6249 17.3207 20.6249H18.6368C18.9555 20.6249 19.224 20.4833 19.3775 20.2383C19.5368 19.9846 19.5398 19.6688 19.3922 19.3708Z" fill="#EB2084"/>
</svg>
