<svg width="32" height="32" viewBox="0 0 32 32" fill="none" xmlns="http://www.w3.org/2000/svg">
<path d="M11.3466 30C13.9225 30 16.0132 27.9094 16.0132 25.3334V20.6667H11.3466C8.77058 20.6667 6.67993 22.7574 6.67993 25.3334C6.67993 27.9094 8.77058 30 11.3466 30Z" fill="#0ACF83"/>
<path d="M6.67993 16C6.67993 13.424 8.77058 11.3334 11.3466 11.3334H16.0132V20.6666H11.3466C8.77058 20.6666 6.67993 18.576 6.67993 16Z" fill="#A259FF"/>
<path d="M6.67993 6.66667C6.67993 4.09067 8.77058 2 11.3466 2H16.0132V11.3333H11.3466C8.77058 11.3333 6.67993 9.24267 6.67993 6.66667Z" fill="#F24E1E"/>
<path d="M16.0132 2H20.6799C23.256 2 25.3467 4.09067 25.3467 6.66667C25.3467 9.24267 23.256 11.3333 20.6799 11.3333H16.0132V2Z" fill="#FF7262"/>
<path d="M25.3467 16C25.3467 18.576 23.256 20.6666 20.6799 20.6666C18.1039 20.6666 16.0132 18.576 16.0132 16C16.0132 13.424 18.1039 11.3334 20.6799 11.3334C23.256 11.3334 25.3467 13.424 25.3467 16Z" fill="#1ABCFE"/>
</svg>
