<svg width="32" height="32" viewBox="0 0 32 32" fill="none" xmlns="http://www.w3.org/2000/svg">
<path fill-rule="evenodd" clip-rule="evenodd" d="M16.002 6.77835L18.192 2.66835C18.482 2.11835 19.172 1.90835 19.722 2.19835C19.922 2.30835 20.082 2.46835 20.192 2.66835L28.072 17.4683C28.332 17.9683 28.332 18.5683 28.072 19.0683L23.082 28.4384C22.782 28.9984 22.202 29.3484 21.572 29.3484H10.432C9.79199 29.3484 9.22199 28.9984 8.92199 28.4384L3.93199 19.0683C3.66199 18.5683 3.66199 17.9683 3.93199 17.4683L11.812 2.66835C12.102 2.11835 12.792 1.90835 13.342 2.19835C13.542 2.30835 13.702 2.46835 13.812 2.66835L16.002 6.77835ZM6.93644 18.6641C6.80644 18.4141 6.80644 18.1141 6.93644 17.8641L12.3064 7.77414C12.3564 7.67414 12.4364 7.59414 12.5364 7.54414C12.8164 7.39414 13.1564 7.49414 13.3064 7.77414L14.3864 9.80414L11.2364 15.7241C11.0864 16.0141 10.9664 16.3041 10.8664 16.6041L10.8564 16.6441L10.8164 16.7741C10.6764 17.2441 10.6064 17.7541 10.6064 18.2741C10.6064 21.2541 13.0264 23.6741 16.0064 23.6741C18.9864 23.6741 21.4064 21.2541 21.4064 18.2741C21.4064 17.3041 21.1464 16.3941 20.6964 15.6041L19.2064 12.7941L17.5864 15.8241L18.2564 17.0641C18.4564 17.4341 18.5564 17.8541 18.5564 18.2641V18.3141C18.5364 19.7141 17.3964 20.8241 16.0064 20.8241C14.5864 20.8241 13.4464 19.6841 13.4464 18.2741V18.2641C13.4464 18.0941 13.4664 17.9341 13.4964 17.7641L13.5064 17.7241C13.5564 17.4641 13.6564 17.2241 13.7764 17.0041L15.9964 12.8241L16.0064 12.8341L17.6064 9.81414V9.80414L18.6864 7.77414C18.7464 7.67414 18.8264 7.59414 18.9264 7.54414C19.2064 7.39414 19.5464 7.49414 19.6864 7.77414L25.0664 17.8641C25.1964 18.1141 25.1964 18.4141 25.0664 18.6641L21.1264 26.0541C20.9764 26.3241 20.6864 26.5042 20.3764 26.5042H11.6264C11.3064 26.5042 11.0164 26.3241 10.8764 26.0541L6.93644 18.6641Z" fill="#D75252"/>
</svg>
