<svg width="32" height="32" viewBox="0 0 32 32" fill="none" xmlns="http://www.w3.org/2000/svg">
<path d="M8.10909 4.83423L16 4L23.8909 4.83423L30 13.0351L16 29.338L2 13.0351L8.10909 4.83423Z" fill="#FDB300"/>
<path d="M7.6707 13.0352L16 29.338L2 13.0352H7.6707Z" fill="#EA6C00"/>
<path d="M24.3293 13.0352L16 29.338L30 13.0352H24.3293Z" fill="#EA6C00"/>
<path d="M7.67065 13.0352H24.3293L16 29.338L7.67065 13.0352Z" fill="#FDAD00"/>
<path d="M16 4L8.10902 4.83422L7.67065 13.0351L16 4Z" fill="#FDD231"/>
<path d="M15.9998 4L23.8907 4.83422L24.3291 13.0351L15.9998 4Z" fill="#FDD231"/>
<path d="M30 13.0351L23.8909 4.83423L24.3293 13.0351H30Z" fill="#FDAD00"/>
<path d="M2 13.0351L8.10906 4.83423L7.6707 13.0351H2Z" fill="#FDAD00"/>
<path d="M16 4L7.67065 13.0351H24.3293L16 4Z" fill="#FEEEB7"/>
</svg>
